<svg width="822" height="326" viewBox="0 0 822 326" fill="none" xmlns="http://www.w3.org/2000/svg">
  <path
    d="M328.426 60.8544C356.182 49.1307 393.597 47.1461 410.08 76.6966C417.29 89.6226 420.179 105.769 420.179 105.769C444.97 85.6266 486.375 81.6055 512.761 101.695C544.795 77.9561 597.424 41.7228 631.837 79.5111C656.831 73.0577 698.134 88.2997 696.806 120.707C728.595 120.707 740.522 153.215 720.435 183.919C698.88 216.869 664.985 235.146 620.459 226.638C599.98 252.168 522.385 288.011 500.271 223.321C471.341 240.418 442.577 260.027 409.099 266.717C387.072 271.118 358.255 263.692 355.671 238.143C326.935 249.617 291.62 267.565 260.192 256.567C252.596 253.908 233.606 244.846 236.602 225.471C208.782 235.932 179.303 252.107 149.122 242.344C127.775 235.438 109.357 200.689 121.987 180.077C103.06 175.848 87.4138 148.407 99.1749 123.824C109.94 101.323 137.748 80.9764 161.034 72.0263C214.247 51.5744 238.235 99.9607 238.235 99.9607C267.749 86.0715 298.362 73.5531 328.426 60.8544Z"
    fill="#F6B611" />
  <path
    d="M179.389 152.684C185.664 152.72 193.722 152.7 203.561 152.624C213.4 152.549 223.42 152.486 233.621 152.438C243.822 152.389 253.39 152.319 262.324 152.23C271.258 152.141 280.466 152.001 289.948 151.81C299.43 151.62 309.415 151.417 319.903 151.203C330.391 150.989 340.605 150.797 350.545 150.627C360.486 150.457 371.299 150.313 382.984 150.195C394.668 150.077 406.424 150.021 418.249 150.027C430.075 150.033 441.702 150.032 453.133 150.024C464.563 150.016 476.56 150.03 489.124 150.067C501.688 150.103 513.227 150.06 523.74 149.937C534.253 149.814 543.945 149.569 552.816 149.202C561.687 148.835 571.404 148.326 581.969 147.674C592.533 147.022 602.619 146.542 612.229 146.236C621.838 145.929 630.219 145.972 637.37 146.366C644.52 146.759 649.959 147.37 653.684 148.198C657.41 149.026 660.899 150.426 664.153 152.397C667.407 154.368 670.26 156.808 672.712 159.717C675.163 162.626 677.099 165.852 678.519 169.393C679.939 172.934 680.728 176.607 680.888 180.41C681.047 184.213 680.64 187.949 679.665 191.616C678.691 195.283 677.099 198.69 674.889 201.837C672.68 204.984 670.095 207.706 667.133 210.004C664.172 212.301 660.848 214.053 657.161 215.26C653.474 216.467 649.755 217.065 646.004 217.056C642.253 217.047 638.547 216.429 634.886 215.204C631.225 213.978 627.913 212.21 624.952 209.897C621.991 207.585 619.405 204.85 617.196 201.692C614.986 198.534 613.42 195.119 612.496 191.447C611.573 187.775 611.178 184.038 611.312 180.235C611.446 176.431 612.261 172.763 613.757 169.23C615.253 165.696 617.202 162.481 619.603 159.583C622.004 156.686 624.87 154.26 628.2 152.306C631.53 150.353 635.032 148.971 638.707 148.161C642.381 147.351 646.126 147.157 649.94 147.58C653.754 148.003 657.384 149.018 660.829 150.625C664.274 152.232 667.369 154.349 670.113 156.977C672.858 159.604 675.125 162.602 676.914 165.971C678.704 169.339 679.901 172.904 680.506 176.665C681.111 180.426 681.098 184.184 680.468 187.94C679.837 191.696 678.628 195.254 676.838 198.615C675.048 201.976 672.769 204.962 669.999 207.573C667.229 210.184 664.109 212.284 660.638 213.875C657.167 215.466 653.55 216.461 649.787 216.862C646.024 217.263 644.126 217.463 644.094 217.465C644.062 217.466 642.139 217.368 638.325 217.171C634.511 216.974 627.328 216.787 616.776 216.611C606.224 216.434 595.755 216.576 585.369 217.036C574.983 217.496 565.011 217.864 555.452 218.137C545.894 218.411 535.603 218.579 524.581 218.639C513.558 218.7 501.739 218.749 489.124 218.787C476.509 218.824 464.512 218.838 453.133 218.829C441.753 218.82 430.126 218.819 418.249 218.826C406.373 218.833 394.617 218.777 382.984 218.658C371.35 218.54 360.537 218.395 350.545 218.226C340.554 218.057 330.34 217.865 319.903 217.65C309.466 217.435 299.481 217.233 289.948 217.043C280.415 216.854 271.207 216.714 262.324 216.624C253.441 216.533 243.864 216.464 233.592 216.416C223.32 216.368 213.31 216.306 203.561 216.229C193.812 216.153 185.75 216.133 179.375 216.17C173.001 216.207 167.84 215.821 163.892 215.013C159.945 214.205 156.197 212.653 152.65 210.356C149.103 208.06 146.235 205.192 144.046 201.752C141.857 198.312 140.305 194.565 139.39 190.509C138.474 186.454 138.474 182.398 139.39 178.341C140.306 174.284 141.858 170.537 144.048 167.099C146.237 163.662 149.105 160.794 152.653 158.495C156.2 156.197 159.948 154.645 163.895 153.84C167.843 153.034 169.87 152.631 169.976 152.63C170.083 152.629 173.216 152.647 179.375 152.684H179.389Z"
    fill="#E7516C" />
  <path
    d="M185.29 110.389C192.848 110.404 204.225 110.429 219.42 110.465C234.616 110.5 247.899 110.413 259.268 110.204C270.637 109.994 281.566 110.09 292.053 110.491C302.54 110.892 315.786 111.11 331.789 111.144C347.792 111.179 360.171 111.243 368.927 111.337C377.682 111.431 389.743 111.449 405.109 111.389C420.476 111.329 434.829 111.211 448.169 111.036C461.509 110.861 472.997 110.63 482.632 110.342C492.268 110.055 502.877 109.729 514.459 109.363C526.042 108.998 536.931 108.679 547.127 108.406C557.322 108.134 567.893 108.22 578.839 108.666C589.785 109.112 600.496 109.622 610.972 110.199C621.447 110.775 631.967 111.785 642.531 113.23C653.095 114.675 660.877 115.978 665.876 117.138C670.875 118.299 675.065 119.562 678.446 120.928C681.827 122.294 684.896 124.164 687.654 126.538C690.412 128.912 692.73 131.666 694.608 134.801C696.486 137.936 697.798 141.286 698.543 144.851C699.289 148.417 699.467 152.012 699.078 155.637C698.689 159.262 697.721 162.726 696.174 166.028C694.628 169.331 692.59 172.301 690.061 174.938C687.533 177.576 684.654 179.741 681.426 181.433C678.198 183.126 674.785 184.259 671.187 184.833C667.588 185.407 663.984 185.391 660.374 184.782C656.764 184.174 653.363 183.009 650.173 181.287C646.982 179.564 644.129 177.372 641.614 174.711C639.099 172.049 637.087 169.06 635.577 165.744C634.068 162.428 633.125 158.955 632.75 155.325C632.375 151.696 632.578 148.102 633.361 144.545C634.144 140.988 635.494 137.651 637.411 134.532C639.329 131.414 641.672 128.682 644.441 126.335C647.211 123.989 650.306 122.148 653.726 120.812C657.146 119.477 660.661 118.72 664.271 118.541C667.881 118.363 671.46 118.769 675.007 119.76C678.555 120.752 681.815 122.279 684.789 124.342C687.762 126.405 690.36 128.893 692.583 131.806C694.806 134.719 696.487 137.907 697.626 141.371C698.766 144.835 699.326 148.39 699.308 152.036C699.289 155.682 698.69 159.231 697.512 162.684C696.333 166.137 694.627 169.309 692.392 172.2C690.157 175.092 687.534 177.555 684.521 179.588C681.509 181.622 678.236 183.117 674.702 184.075C671.168 185.032 667.589 185.404 663.966 185.19C660.342 184.976 658.52 184.868 658.502 184.868C658.483 184.867 652.243 183.677 639.78 181.296C627.318 178.916 616.39 177.21 606.998 176.178C597.606 175.146 587.761 174.037 577.464 172.851C567.166 171.665 556.977 170.909 546.898 170.584C536.818 170.259 526.005 169.915 514.459 169.55C502.914 169.186 492.305 168.86 482.632 168.571C472.96 168.283 461.472 168.052 448.169 167.878C434.866 167.703 420.513 167.586 405.109 167.525C389.706 167.464 377.645 167.481 368.927 167.576C360.208 167.672 347.829 167.736 331.789 167.769C315.749 167.803 302.503 168.02 292.053 168.422C281.603 168.824 270.663 168.92 259.233 168.71C247.803 168.5 234.532 168.413 219.42 168.449C204.309 168.485 192.923 168.511 185.263 168.525C177.603 168.539 171.977 168.177 168.387 167.44C164.796 166.703 161.368 165.283 158.102 163.18C154.836 161.077 152.212 158.453 150.23 155.307C148.248 152.162 146.828 148.734 145.97 145.022C145.111 141.31 145.112 137.599 145.971 133.889C146.829 130.179 148.25 126.75 150.231 123.604C152.213 120.457 154.837 117.834 158.104 115.733C161.371 113.632 164.799 112.212 168.39 111.473C171.98 110.734 173.834 110.365 173.953 110.366C174.072 110.368 177.842 110.375 185.263 110.389H185.29Z"
    fill="#E7516C" />
  <path
    d="M223.645 176.716C225.539 177.108 226.486 178.577 226.486 181.124C226.486 182.496 226.16 183.573 225.507 184.357C224.854 185.14 224.005 185.532 222.96 185.532C222.633 185.532 222.013 185.5 221.099 185.434C220.184 185.304 219.205 185.206 218.16 185.14C217.115 185.01 216.103 184.912 215.123 184.846C214.144 184.716 213.458 184.651 213.066 184.651C212.675 184.651 212.315 184.651 211.989 184.651C211.662 184.651 211.336 184.683 211.009 184.749C209.899 184.683 208.593 184.553 207.091 184.357C205.655 184.096 204.218 183.834 202.781 183.573C201.41 183.247 200.169 182.92 199.059 182.594C198.014 182.267 197.394 181.973 197.198 181.712C196.545 179.753 196.218 177.141 196.218 173.876C196.218 173.353 196.218 172.831 196.218 172.308C196.218 171.721 196.251 171.133 196.316 170.545L196.904 163.591C196.969 163.068 197.002 162.578 197.002 162.121C197.002 161.599 197.002 161.142 197.002 160.75C197.002 160.227 197.002 159.803 197.002 159.476C197.002 159.085 196.937 158.725 196.806 158.399C197.263 155.917 197.59 153.86 197.786 152.228C197.982 150.53 198.079 149.224 198.079 148.31V147.526C198.079 146.612 198.471 143.706 199.255 138.808C200.234 136.718 201.736 135.674 203.761 135.674C205.002 135.674 206.046 136.163 206.895 137.143C207.744 138.057 208.169 139.331 208.169 140.963C207.908 141.877 207.646 143.02 207.385 144.392C207.189 145.763 206.993 147.395 206.797 149.289V150.073C206.797 150.661 206.732 151.575 206.601 152.816C206.536 153.991 206.438 155.232 206.308 156.538C206.177 157.779 206.046 158.921 205.916 159.966C205.85 160.946 205.818 161.501 205.818 161.631C205.818 162.35 205.85 162.807 205.916 163.003C205.655 165.745 205.459 168.031 205.328 169.86C205.197 171.688 205.132 173.092 205.132 174.072C205.132 174.725 205.165 175.149 205.23 175.345C208.626 175.737 210.879 175.933 211.989 175.933C212.511 175.933 213.034 175.933 213.556 175.933C214.144 175.867 214.732 175.835 215.319 175.835C217.801 175.835 220.576 176.129 223.645 176.716ZM289.692 189.646C289.431 190.887 288.223 191.507 286.068 191.507C284.305 191.507 283.031 191.116 282.248 190.332C281.921 189.222 281.464 187.883 280.877 186.316C280.289 184.683 279.603 182.822 278.819 180.732C278.428 178.186 278.036 176.39 277.644 175.345C277.318 174.3 276.893 173.516 276.371 172.994C275.391 173.059 273.987 173.19 272.159 173.386C270.33 173.516 268.404 173.712 266.379 173.974C264.355 174.17 262.461 174.463 260.698 174.855C258.935 175.182 257.661 175.541 256.878 175.933C256.551 177.565 256.159 179.361 255.702 181.32C255.245 183.279 254.69 185.369 254.037 187.589C253.841 188.242 253.384 188.699 252.666 188.961C251.947 189.287 251.066 189.45 250.021 189.45C248.976 189.45 248.062 189.254 247.278 188.863C246.56 188.536 246.201 188.014 246.201 187.295C246.201 185.989 246.984 182.104 248.552 175.639C248.486 175.378 248.454 174.986 248.454 174.463C248.454 173.614 248.552 172.57 248.748 171.329C249.009 170.023 249.27 168.782 249.531 167.607C249.792 166.431 250.021 165.419 250.217 164.57C250.478 163.721 250.609 163.264 250.609 163.199L253.743 154.481C253.874 153.632 254.2 152.489 254.723 151.052C255.311 149.616 255.931 148.146 256.584 146.644C257.237 145.143 257.857 143.739 258.445 142.432C259.033 141.061 259.425 140.016 259.621 139.298C260.208 137.143 261.776 136.065 264.322 136.065C266.412 136.065 267.751 136.849 268.338 138.416C268.338 138.416 268.534 138.776 268.926 139.494C269.318 140.212 269.84 141.126 270.493 142.237C271.146 143.347 271.832 144.587 272.55 145.959C273.334 147.265 274.052 148.538 274.705 149.779C275.358 150.954 275.914 152.032 276.371 153.011C276.828 153.926 277.089 154.546 277.154 154.873C277.677 156.113 278.33 157.55 279.113 159.183C279.897 160.75 280.844 162.513 281.954 164.472C282.607 165.321 283.195 166.464 283.717 167.9C284.305 169.272 284.827 170.676 285.284 172.112C285.742 173.549 286.133 174.855 286.46 176.031C286.786 177.206 287.08 177.99 287.341 178.382C287.341 178.839 287.472 179.557 287.733 180.537C288.06 181.451 288.354 182.43 288.615 183.475C288.941 184.52 289.235 185.5 289.496 186.414C289.758 187.328 289.888 187.981 289.888 188.373C289.888 188.699 289.823 189.124 289.692 189.646ZM272.55 164.962C272.028 163.395 271.538 162.056 271.081 160.946C270.689 159.836 270.2 158.725 269.612 157.615C269.089 156.505 268.469 155.264 267.751 153.893C267.032 152.456 266.118 150.628 265.008 148.408C263.506 151.15 262.429 154.318 261.776 157.909C260.404 160.587 259.425 163.427 258.837 166.431C260.861 165.843 262.494 165.55 263.735 165.55C264.192 165.55 264.518 165.582 264.714 165.648C265.824 165.386 267.163 165.256 268.73 165.256C270.297 165.256 271.571 165.158 272.55 164.962ZM346.127 185.63C345.996 185.695 345.637 185.728 345.049 185.728C344.919 185.728 344.266 185.695 343.09 185.63C341.915 185.5 340.576 185.369 339.074 185.238C337.637 185.108 336.201 185.01 334.764 184.944C333.327 184.814 332.25 184.749 331.532 184.749H329.671C328.364 184.749 326.34 184.651 323.597 184.455C320.855 184.193 318.145 183.9 315.467 183.573C314.684 183.573 313.867 183.442 313.018 183.181C312.169 182.855 311.353 182.463 310.57 182.006C309.786 181.483 309.1 180.896 308.512 180.243C307.99 179.524 307.631 178.773 307.435 177.99C307.827 176.749 309.068 174.855 311.157 172.308L317.328 164.668C317.72 164.211 318.504 163.264 319.679 161.827C320.92 160.325 322.291 158.66 323.793 156.832C325.295 155.003 326.83 153.175 328.397 151.346C329.964 149.518 331.303 148.016 332.413 146.84H331.238C330.519 146.71 329.932 146.677 329.475 146.742C329.018 146.742 328.528 146.742 328.005 146.742C327.222 146.677 326.373 146.71 325.459 146.84C324.61 146.906 323.63 146.971 322.52 147.036L314.586 147.624C312.692 146.71 311.745 145.077 311.745 142.726C311.745 142.073 311.908 141.453 312.235 140.865C312.627 140.277 313.378 139.755 314.488 139.298C315.663 138.841 317.328 138.482 319.483 138.22C321.638 137.959 324.544 137.829 328.201 137.829C330.291 137.829 332.576 137.992 335.058 138.318C337.605 138.58 340.348 139.069 343.286 139.788C344.07 140.898 344.462 142.367 344.462 144.196C344.462 146.024 343.906 147.298 342.796 148.016C341.621 149.387 340.511 150.661 339.466 151.836C338.486 152.946 337.344 154.252 336.038 155.754C334.797 157.256 333.295 159.085 331.532 161.24C329.834 163.395 327.679 166.17 325.067 169.566C324.74 170.153 323.271 172.047 320.659 175.247C323.728 175.965 326.34 176.325 328.495 176.325C329.018 176.325 329.442 176.325 329.768 176.325C330.16 176.259 330.617 176.227 331.14 176.227C331.728 176.227 332.642 176.259 333.883 176.325C335.123 176.39 336.397 176.455 337.703 176.52C339.074 176.586 340.282 176.651 341.327 176.716C342.437 176.782 343.09 176.814 343.286 176.814C344.266 176.814 344.951 176.749 345.343 176.618C347.563 177.075 348.674 178.545 348.674 181.026C348.674 183.508 347.825 185.042 346.127 185.63ZM410.261 141.551C409.739 142.857 409.282 143.869 408.89 144.587C408.498 145.24 408.041 145.894 407.519 146.547C406.996 147.134 406.278 147.885 405.364 148.799C404.515 149.648 403.307 150.889 401.739 152.522C400.433 153.893 399.356 155.036 398.507 155.95C397.723 156.799 396.94 157.583 396.156 158.301C395.438 159.019 394.654 159.803 393.805 160.652C392.956 161.436 391.879 162.448 390.573 163.688C390.573 164.603 390.54 165.713 390.475 167.019C390.409 168.325 390.377 169.827 390.377 171.525C390.377 172.112 390.409 172.831 390.475 173.68C390.54 174.463 390.605 175.247 390.671 176.031C390.801 176.814 390.899 177.565 390.964 178.284C391.03 178.937 391.062 179.459 391.062 179.851V182.594C391.062 185.01 391.193 186.969 391.454 188.471C390.932 190.43 389.397 191.409 386.85 191.409C385.74 191.409 384.859 191.083 384.206 190.43C383.618 189.777 383.161 188.928 382.834 187.883C382.508 186.773 382.279 185.532 382.149 184.161C382.083 182.724 382.051 181.222 382.051 179.655C382.051 179.133 382.051 178.675 382.051 178.284C382.116 177.892 382.181 177.533 382.246 177.206C382.116 174.398 381.985 172.047 381.855 170.153C381.789 168.26 381.757 166.823 381.757 165.843V164.766C380.777 163.721 379.536 162.35 378.034 160.652C376.533 158.954 374.769 156.962 372.745 154.677C372.418 154.024 371.896 153.207 371.178 152.228C370.459 151.248 369.708 150.301 368.925 149.387C368.206 148.408 367.553 147.526 366.966 146.742C366.443 145.894 366.182 145.273 366.182 144.881C366.182 143.771 366.639 142.694 367.553 141.649C368.533 140.604 369.676 140.082 370.982 140.082C371.57 140.082 372.027 140.18 372.353 140.375C372.745 140.506 373.104 140.767 373.431 141.159C373.822 141.486 374.214 141.975 374.606 142.628C375.063 143.216 375.651 143.967 376.369 144.881C377.088 145.796 377.675 146.612 378.132 147.33C378.655 148.048 379.079 148.669 379.406 149.191C379.602 149.387 379.994 149.812 380.581 150.465C381.234 151.118 381.92 151.836 382.638 152.62C383.357 153.338 384.01 154.024 384.597 154.677C385.25 155.33 385.708 155.754 385.969 155.95C386.687 155.297 387.601 154.513 388.711 153.599C389.822 152.685 391.128 151.607 392.63 150.367C392.891 149.844 393.544 148.832 394.589 147.33C395.634 145.828 396.809 144.261 398.115 142.628C399.486 140.931 400.825 139.396 402.131 138.025C403.437 136.588 404.482 135.674 405.266 135.282C405.723 135.478 406.245 135.804 406.833 136.261C407.421 136.653 407.976 137.143 408.498 137.731C409.021 138.253 409.445 138.808 409.772 139.396C410.098 139.984 410.261 140.539 410.261 141.061V141.551ZM467.492 185.238C467.492 186.414 466.969 187.524 465.924 188.569C464.88 189.548 463.835 190.038 462.79 190.038C462.267 190.038 461.843 189.875 461.516 189.548C461.451 189.548 461.157 189.222 460.635 188.569C460.112 187.916 459.492 187.099 458.774 186.12C458.055 185.14 457.272 184.096 456.423 182.985C455.574 181.875 454.79 180.83 454.072 179.851C453.354 178.871 452.766 178.088 452.309 177.5C451.917 176.847 451.754 176.553 451.819 176.618C451.688 176.227 451.362 175.606 450.839 174.757C450.317 173.908 449.729 173.027 449.076 172.112C448.489 171.133 447.933 170.251 447.411 169.468C446.889 168.619 446.595 168.096 446.529 167.9C446.399 167.9 446.04 167.966 445.452 168.096C444.864 168.162 444.211 168.26 443.493 168.39C442.775 168.456 442.024 168.554 441.24 168.684C440.522 168.749 439.967 168.782 439.575 168.782H439.085C438.889 170.806 438.726 172.472 438.595 173.778C438.465 175.084 438.399 176.063 438.399 176.716V179.753C438.399 183.279 438.105 187.099 437.518 191.213C436.734 192.389 435.591 192.977 434.089 192.977C432.783 192.977 431.64 192.618 430.661 191.899C429.747 191.246 429.29 190.071 429.29 188.373C429.29 187.85 429.29 187.23 429.29 186.512C429.355 185.728 429.388 184.944 429.388 184.161C429.453 183.377 429.486 182.692 429.486 182.104C429.551 181.451 429.583 181.026 429.583 180.83V180.341L430.269 165.55C430.334 164.701 430.334 163.656 430.269 162.415C430.269 161.174 430.334 159.738 430.465 158.105L431.249 152.228C431.64 150.203 431.836 148.473 431.836 147.036C431.836 146.579 431.804 146.155 431.738 145.763C431.738 145.306 431.706 144.849 431.64 144.392C431.64 144.392 431.738 143.249 431.934 140.963C432 139.396 432.294 138.123 432.816 137.143C433.338 136.163 434.579 135.674 436.538 135.674C437.91 135.674 439.281 135.902 440.652 136.359C441.958 136.229 443.101 136.163 444.081 136.163C445.125 136.163 446.007 136.163 446.725 136.163C447.378 136.163 447.966 136.196 448.489 136.261C449.011 136.261 449.533 136.327 450.056 136.457C450.578 136.523 451.166 136.653 451.819 136.849C452.472 136.98 453.256 137.176 454.17 137.437L458.48 140.375C460.896 142.269 462.496 144.163 463.28 146.057C464.129 147.951 464.553 149.942 464.553 152.032C464.553 153.469 464.488 154.709 464.357 155.754C464.292 156.734 463.965 157.713 463.378 158.693C462.79 159.672 461.876 160.685 460.635 161.729C459.394 162.774 457.631 164.08 455.345 165.648C456.847 167.541 458.545 170.349 460.439 174.072C461.614 174.986 463.965 178.708 467.492 185.238ZM455.443 153.991C455.509 153.73 455.541 153.371 455.541 152.914C455.541 152.261 455.476 151.607 455.345 150.954C455.215 150.236 454.921 149.55 454.464 148.897C454.007 148.179 453.321 147.493 452.407 146.84C451.558 146.122 450.35 145.436 448.782 144.783C447.411 144.261 446.268 144 445.354 144C445.093 144.065 444.734 144.13 444.277 144.196C443.885 144.326 443.395 144.457 442.807 144.587C442.22 144.653 441.566 144.751 440.848 144.881C440.913 145.273 440.946 145.665 440.946 146.057C440.946 146.383 440.881 147.036 440.75 148.016C440.685 148.995 440.554 150.399 440.358 152.228C440.162 154.056 439.934 156.603 439.673 159.868C439.934 159.934 440.195 159.966 440.456 159.966C440.718 159.966 440.979 159.966 441.24 159.966C442.481 159.966 443.852 159.803 445.354 159.476C446.921 159.085 448.391 158.628 449.762 158.105C451.133 157.517 452.341 156.864 453.386 156.146C454.431 155.428 455.117 154.709 455.443 153.991ZM523.295 181.908C525.45 183.018 526.528 184.618 526.528 186.708C526.528 188.079 526.169 189.059 525.45 189.646C524.797 190.234 523.818 190.626 522.512 190.822C521.271 191.083 519.704 191.213 517.81 191.213C515.916 191.279 513.794 191.377 511.443 191.507C510.659 191.246 507.786 190.985 502.823 190.724C502.105 190.789 501.419 190.822 500.766 190.822C500.113 190.887 499.493 190.92 498.905 190.92C495.379 190.92 492.962 190.397 491.656 189.352C491.33 186.74 491.069 184.324 490.873 182.104C490.742 179.883 490.677 177.859 490.677 176.031C490.677 173.157 490.775 170.676 490.971 168.586C491.232 166.431 491.362 164.505 491.362 162.807C491.362 160.717 491.265 159.085 491.069 157.909L491.656 147.624C491.918 145.143 492.211 143.02 492.538 141.257C492.93 139.494 493.387 138.155 493.909 137.241C494.301 136.718 496.26 136.065 499.787 135.282L506.056 133.91C506.447 133.845 507.264 133.747 508.504 133.617C509.745 133.486 511.019 133.355 512.325 133.225C513.696 133.094 514.904 132.996 515.949 132.931C516.994 132.866 517.484 132.833 517.418 132.833H517.81C518.528 132.833 519.247 133.323 519.965 134.302C520.749 135.282 521.14 136.425 521.14 137.731C521.14 138.384 521.108 138.971 521.043 139.494C521.043 140.016 520.847 140.473 520.455 140.865C520.063 141.192 519.41 141.453 518.496 141.649C517.581 141.845 516.243 141.975 514.48 142.041C511.606 142.171 509.647 142.465 508.602 142.922H508.113C506.415 142.922 504.292 143.314 501.746 144.098C501.484 144.424 501.288 145.012 501.158 145.861C501.027 146.644 500.929 147.493 500.864 148.408C500.799 149.257 500.733 150.008 500.668 150.661C500.668 151.248 500.668 151.444 500.668 151.248C500.603 151.575 500.537 151.901 500.472 152.228C500.472 152.554 500.472 152.979 500.472 153.501C500.472 153.958 500.472 154.481 500.472 155.069C500.537 155.591 500.603 156.179 500.668 156.832C502.692 156.636 504.325 156.44 505.566 156.244C506.872 155.983 507.884 155.852 508.602 155.852C509.974 155.852 511.312 155.82 512.618 155.754C513.925 155.689 515.067 155.787 516.047 156.048C517.092 156.244 517.908 156.701 518.496 157.419C519.083 158.072 519.377 159.15 519.377 160.652C519.377 162.35 518.822 163.46 517.712 163.982C516.667 164.505 514.806 164.799 512.129 164.864C508.994 164.995 507.1 165.125 506.447 165.256C506.056 165.256 505.631 165.256 505.174 165.256C504.782 165.19 504.325 165.158 503.803 165.158C503.476 165.158 503.084 165.158 502.627 165.158C502.235 165.092 501.844 165.092 501.452 165.158C501.06 165.158 500.701 165.288 500.374 165.55C500.113 165.745 499.982 166.137 499.982 166.725C499.982 167.117 499.982 167.639 499.982 168.292C500.048 168.88 500.08 169.435 500.08 169.958C500.08 170.741 500.048 171.525 499.982 172.308C499.982 173.092 499.95 173.941 499.884 174.855C499.884 175.704 499.852 176.684 499.787 177.794C499.787 178.904 499.787 180.21 499.787 181.712C500.178 181.777 500.929 181.843 502.039 181.908C503.215 181.973 504.423 182.038 505.664 182.104C506.97 182.169 508.211 182.267 509.386 182.398C510.561 182.463 511.345 182.528 511.737 182.594C511.802 182.594 512.259 182.561 513.108 182.496C513.957 182.43 515.198 182.332 516.83 182.202C519.051 182.006 520.814 181.908 522.12 181.908H523.295ZM581.888 155.46C581.757 156.636 581.594 157.681 581.398 158.595C581.268 159.509 580.974 160.391 580.517 161.24C580.059 162.023 579.439 162.872 578.655 163.786C577.937 164.635 576.99 165.615 575.815 166.725C572.746 169.598 569.35 171.264 565.628 171.721C564.779 172.047 563.669 172.439 562.297 172.896C560.926 173.288 559.293 173.745 557.399 174.267L557.693 180.634C557.824 181.549 557.922 182.463 557.987 183.377C558.052 184.291 558.085 185.304 558.085 186.414C558.085 187.197 558.085 188.046 558.085 188.961C558.085 189.875 557.955 190.724 557.693 191.507C557.497 192.291 557.073 192.944 556.42 193.466C555.832 193.989 554.951 194.25 553.775 194.25C552.534 194.25 551.62 194.022 551.032 193.564C550.445 193.107 550.053 192.454 549.857 191.605C549.661 190.822 549.531 189.875 549.465 188.765C549.465 187.655 549.367 186.479 549.171 185.238V185.336C549.106 184.487 549.041 183.475 548.975 182.3C548.91 181.255 548.845 179.981 548.78 178.479C548.714 176.912 548.616 175.084 548.486 172.994V172.406C548.486 172.015 548.453 171.492 548.388 170.839C548.388 170.186 548.355 169.5 548.29 168.782C548.224 168.064 548.159 167.443 548.094 166.921C548.094 166.333 548.094 165.941 548.094 165.745C548.094 165.354 548.094 164.668 548.094 163.688C548.159 162.644 548.192 161.533 548.192 160.358C548.257 159.183 548.29 158.072 548.29 157.028C548.355 155.917 548.388 155.069 548.388 154.481C548.388 153.436 548.322 152.489 548.192 151.64C548.127 150.791 548.029 150.008 547.898 149.289C547.898 149.159 547.898 148.734 547.898 148.016C547.963 147.298 548.029 146.514 548.094 145.665C548.159 144.751 548.257 143.869 548.388 143.02C548.518 142.106 548.682 141.355 548.877 140.767C550.641 139.918 552.763 139.494 555.244 139.494H556.028C558.836 138.645 561.448 138.22 563.864 138.22C564.779 138.22 567.358 138.612 571.603 139.396L575.913 141.747C577.088 142.465 578.035 143.216 578.753 144C579.537 144.718 580.157 145.6 580.615 146.644C581.072 147.689 581.398 148.93 581.594 150.367C581.79 151.738 581.888 153.436 581.888 155.46ZM572.68 156.832C572.876 155.591 572.974 154.481 572.974 153.501C572.974 151.738 572.256 150.138 570.819 148.702C569.382 147.2 567.032 146.449 563.766 146.449C562.265 146.449 559.979 146.971 556.91 148.016C557.04 149.257 557.138 150.759 557.204 152.522C557.269 154.22 557.302 156.211 557.302 158.497C557.236 158.628 557.204 159.281 557.204 160.456C557.204 161.044 557.204 161.762 557.204 162.611C557.204 163.395 557.236 164.309 557.302 165.354C557.889 165.288 558.542 165.158 559.261 164.962C560.044 164.766 560.763 164.57 561.416 164.374C562.069 164.113 562.624 163.884 563.081 163.688C563.538 163.493 563.766 163.395 563.766 163.395C568.468 162.284 571.44 160.097 572.68 156.832ZM645.893 169.566C645.044 172.961 642.628 176.88 638.645 181.32C638.122 181.516 637.436 181.908 636.587 182.496C635.804 183.083 634.759 183.704 633.453 184.357C632.212 184.944 630.678 185.467 628.849 185.924C627.021 186.381 624.866 186.61 622.384 186.61C617.421 186.61 613.274 185.304 609.944 182.692C606.614 180.014 604.034 175.835 602.206 170.153C602.14 169.696 602.108 169.239 602.108 168.782C602.108 168.325 602.108 167.835 602.108 167.313C602.108 163.264 602.532 159.705 603.381 156.636C604.23 153.501 605.373 150.791 606.81 148.506C608.246 146.22 609.879 144.294 611.707 142.726C613.601 141.159 615.56 139.886 617.584 138.906C620.915 137.992 624.18 137.535 627.38 137.535C629.665 137.535 631.918 138.123 634.139 139.298C636.359 140.473 638.318 142.139 640.016 144.294C641.779 146.449 643.183 149.093 644.228 152.228C645.338 155.297 645.958 158.791 646.089 162.709L645.893 169.566ZM636.881 169.272C637.338 166.594 637.567 164.505 637.567 163.003C637.567 160.521 637.208 158.236 636.49 156.146C635.771 154.056 634.922 152.261 633.943 150.759C632.963 149.191 631.918 147.983 630.808 147.134C629.763 146.22 628.882 145.763 628.163 145.763C624.702 145.763 621.862 146.547 619.641 148.114C617.486 149.616 615.789 151.444 614.548 153.599C613.307 155.754 612.458 158.007 612.001 160.358C611.544 162.709 611.315 164.701 611.315 166.333C611.315 167.835 611.544 169.304 612.001 170.741C612.523 172.112 613.242 173.353 614.156 174.463C615.136 175.508 616.278 176.357 617.584 177.01C618.89 177.663 620.392 177.99 622.09 177.99C626.074 177.99 629.208 177.271 631.494 175.835C633.779 174.333 635.575 172.145 636.881 169.272Z"
    fill="white" />
</svg>