<svg width="822" height="326" viewBox="0 0 822 326" fill="none" xmlns="http://www.w3.org/2000/svg">
<path d="M191.454 132.032C186.88 135.07 178.984 131.511 167.766 121.355C156.548 111.199 157.568 103.89 170.827 99.429C184.086 94.9674 197.65 91.289 211.52 88.3937C225.39 85.4984 238.139 83.0527 249.766 81.0566C261.394 79.0606 260.929 87.0214 248.373 104.939C235.816 122.857 237.02 137.685 251.986 149.424C266.951 161.164 270.358 172.585 262.205 183.687C254.053 194.79 243.455 204.356 230.411 212.386C217.367 220.416 208.008 214.301 202.333 194.04C196.658 173.779 188.314 161.502 177.3 157.209C166.286 152.916 168.127 146.892 182.823 139.136C197.518 131.381 210.577 124.33 221.998 117.985C233.419 111.639 244.413 105.417 254.979 99.3195C265.546 93.2219 277.692 86.4422 291.419 78.9804C305.145 71.5186 317.481 65.4762 328.426 60.8533C339.371 56.2304 353.445 53.6422 370.646 53.0888C387.848 52.5354 400.993 60.4044 410.08 76.6956C419.167 92.9868 421.627 106.714 417.46 117.876C413.294 129.038 406.928 138.952 398.363 147.62C389.798 156.287 380.869 165.162 371.576 174.244C362.282 183.326 352.407 192.609 341.949 202.091C331.491 211.574 321.702 209.818 312.581 196.822C303.459 183.826 303.752 171.904 313.458 161.055C323.164 150.206 334.519 142.182 347.523 136.981C360.527 131.78 373.052 126.617 385.098 121.492C397.144 116.367 408.672 111.454 419.68 106.753C430.688 102.051 441.716 96.6904 452.765 90.6702C463.813 84.6501 481.189 86.7218 504.895 96.8855C528.6 107.049 538.992 119.256 536.07 133.505C533.148 147.754 527.04 159.74 517.747 169.463C508.453 179.186 497.683 189.68 485.436 200.944C473.189 212.209 462.574 221.756 453.59 229.586C444.607 237.417 437.45 232.436 432.119 214.644C426.788 196.853 418.754 185.34 408.015 180.106C397.277 174.872 399.84 168.015 415.706 159.535C431.571 151.054 444.888 143.578 455.655 137.107C466.422 130.636 476.917 124.071 487.14 117.413C497.362 110.755 509.182 103.2 522.598 94.7489C536.015 86.2973 548.437 78.9269 559.864 72.6376C571.29 66.3483 586.93 64.5431 606.781 67.2219C626.632 69.9007 639.244 79.964 644.614 97.4116C649.985 114.859 648.866 129.834 641.259 142.335C633.652 154.837 625.101 167.462 615.607 180.21C606.113 192.958 597.338 204.093 589.284 213.615C581.229 223.136 570.769 218.551 557.902 199.859C545.036 181.168 542.679 166.862 550.831 156.943C558.984 147.024 569.238 138.18 581.593 130.411C593.949 122.642 584.865 92.8569 597.078 86.8199C609.29 80.7829 630.384 74.4108 652.253 76.6956C674.122 78.9804 693.338 96.8855 696.376 115.809C699.415 134.732 733.432 142.266 727.654 155.119C721.876 167.973 728.799 171.133 720.435 183.918C712.071 196.704 705.757 206.011 701.493 211.839C697.229 217.667 693.392 222.489 689.983 226.306C686.574 230.123 682.479 233.269 677.699 235.743C672.919 238.217 668.033 239.89 663.04 240.761C658.048 241.632 652.887 241.656 647.556 240.834C642.225 240.013 637.322 238.387 632.846 235.957C628.37 233.527 624.241 230.42 620.459 226.637C616.676 222.854 613.752 218.593 611.684 213.853C609.617 209.113 608.223 204.143 607.504 198.942C606.784 193.74 607.042 188.581 608.278 183.465C609.514 178.348 611.389 173.54 613.904 169.042C616.418 164.544 619.756 160.592 623.917 157.185C628.078 153.778 632.482 151.094 637.13 149.134C641.778 147.174 646.819 146.04 652.253 145.732C657.687 145.424 662.831 145.959 667.686 147.336C672.54 148.713 677.237 150.86 681.776 153.777C686.316 156.694 690.066 160.229 693.028 164.381C695.99 168.533 698.433 173.086 700.357 178.038C702.282 182.99 703.142 188.084 702.938 193.318C702.734 198.553 701.926 203.654 700.512 208.622C699.099 213.589 696.707 218.164 693.338 222.345C689.969 226.527 686.235 230.096 682.138 233.053C678.04 236.011 673.361 238.201 668.099 239.624C662.837 241.048 657.71 241.63 652.718 241.37C647.725 241.111 642.667 240.023 637.543 238.108C632.419 236.193 627.98 233.55 624.227 230.18C620.473 226.809 617.118 222.887 614.162 218.415C611.205 213.942 609.261 209.153 608.329 204.045C607.398 198.938 607.105 193.782 607.452 188.576C607.799 183.371 609.158 178.387 611.53 173.627C613.901 168.866 614.985 166.488 614.781 166.492C614.578 166.497 619.67 158.966 630.059 143.899C640.448 128.832 649.394 116.311 656.898 106.337C664.402 96.3621 665.555 97.679 660.356 110.287C655.158 122.895 658.358 138.381 669.957 156.745C681.555 175.109 680.919 187.49 668.047 193.889C655.175 200.287 643.149 206.926 631.969 213.806C620.788 220.685 609.795 227.355 598.987 233.816C588.18 240.278 576.395 246.399 563.632 252.18C550.868 257.961 538.24 261.209 525.747 261.923C513.254 262.638 504.582 248.766 499.733 220.308C494.884 191.851 496.863 172.944 505.669 163.588C514.475 154.231 522.716 144.414 530.392 134.135C538.068 123.856 545.828 113.17 553.67 102.077C561.513 90.9839 568.395 93.2257 574.316 108.803C580.237 124.379 588.323 135.306 598.574 141.582C608.826 147.858 608.327 154.047 597.078 160.148C585.828 166.25 573.562 173.794 560.277 182.78C546.992 191.767 534.519 200.069 522.857 207.688C511.194 215.307 499.599 222.799 488.069 230.166C476.539 237.532 463.48 244.869 448.894 252.176C434.307 259.483 421.042 264.329 409.099 266.716C397.156 269.102 384.683 267.573 371.679 262.129C358.675 256.684 354.219 241.27 358.311 215.886C362.403 190.502 369.199 173.858 378.698 165.953C388.198 158.049 397.988 149.467 408.067 140.208C418.146 130.949 428.176 121.284 438.158 111.213C448.139 101.143 451.959 103.016 449.616 116.832C447.273 130.648 456.1 143.411 476.094 155.119C496.089 166.828 500.734 175.381 490.03 180.778C479.326 186.175 468.212 191.231 456.687 195.946C445.163 200.662 433.601 205.566 422.003 210.661C410.404 215.755 397.741 221.1 384.015 226.696C370.288 232.292 355.922 238.067 340.917 244.021C325.912 249.974 311.666 254.589 298.18 257.866C284.695 261.143 272.032 260.709 260.192 256.566C248.353 252.422 239.286 241.472 232.992 223.714C226.698 205.956 226.267 191.685 231.701 180.902C237.135 170.118 244.482 160.438 253.741 151.864C262.999 143.289 273.099 134.043 284.038 124.126C294.977 114.208 306.178 106.749 317.639 101.747C329.1 96.7458 338.115 103.966 344.685 123.407C351.254 142.848 348.536 155.797 336.53 162.253C324.523 168.709 313.323 175.179 302.929 181.663C292.534 188.147 281.386 194.884 269.483 201.876C257.58 208.867 243.816 216.629 228.192 225.16C212.567 233.692 198.752 239.746 186.745 243.323C174.739 246.9 162.198 246.573 149.122 242.343C136.046 238.113 127.001 227.299 121.987 209.902C116.973 192.506 118.658 178.819 127.043 168.842C135.427 158.865 144.532 150.797 154.357 144.64C164.181 138.482 175.39 131.543 187.984 123.823C200.578 116.103 213 108.233 225.25 100.214C237.499 92.1952 250.007 87.5695 262.773 86.3371C275.539 85.1047 289.285 90.3719 304.013 102.139C318.74 113.905 318.293 129.005 302.671 147.438C287.049 165.87 273.165 175.987 261.018 177.787C248.872 179.587 236.828 181.719 224.888 184.182C212.948 186.646 200.286 189.216 186.9 191.893C173.515 194.569 160.79 195.959 148.724 196.062C136.659 196.164 125.346 192.393 114.784 184.75C93.6949 169.487 86.0007 140.541 97.7618 115.957C103.174 104.645 111.344 95.4477 122.274 88.3652C133.203 81.2827 140.818 76.2455 145.119 73.2538C149.419 70.2622 154.446 67.6606 160.2 65.4491C165.954 63.2376 171.61 62.1556 177.168 62.2031C182.726 62.2506 188.369 63.42 194.097 65.7113C199.826 68.0027 204.609 71.2452 208.446 75.439C212.284 79.6328 215.449 84.455 217.943 89.9056C220.437 95.3562 221.521 95.3943 221.195 101.279C220.869 107.163 216.321 101.555 214.307 106.97C212.294 112.386 209.042 117.159 204.552 121.288C200.063 125.417 197.981 127.48 198.307 127.477C198.633 127.475 196.345 128.993 191.442 132.032H191.454Z" fill="#F6B611"/>
<path d="M147.461 107.577C168.212 94.1164 216.085 74.3837 229.225 71.1804C274.231 60.2081 327.836 62.0671 322.13 115.407C320.502 130.62 317.908 145.18 314.345 159.087C310.783 172.994 305.716 173.624 299.146 160.977C292.575 148.33 296.676 140.74 311.443 138.207C326.209 135.674 340.252 131.229 353.576 124.872C366.9 118.515 379.385 111.282 391.021 103.173C402.657 95.0633 410.829 88.9934 415.545 84.9631C420.261 80.9327 424.381 77.5298 427.903 74.7545C431.425 71.9792 435.444 69.6936 439.954 67.8977C444.464 66.1019 448.931 64.846 453.359 64.1301C457.788 63.4143 462.406 63.2612 467.204 63.6711C472.003 64.0809 476.531 65.0396 480.795 66.5471C485.058 68.0546 489.22 70.069 493.276 72.5902C497.333 75.1114 500.915 78.0647 504.025 81.45C507.135 84.8354 509.873 88.5558 512.241 92.6113C514.609 96.6668 516.4 100.938 517.615 105.425C518.831 109.912 519.533 114.487 519.717 119.148C519.902 123.809 519.506 128.419 518.539 132.98C517.571 137.541 516.074 141.921 514.035 146.119C511.996 150.318 509.483 154.212 506.497 157.802C503.511 161.391 503.959 156.434 507.851 142.929C511.743 129.424 519.883 118.312 532.261 109.592C544.639 100.872 557.449 92.5417 570.691 84.6004C583.933 76.6591 598.24 72.8262 613.625 73.1018C633.18 73.452 626.936 98.762 647.361 100.836C654.549 101.566 661.285 101.231 667.566 99.8302C673.847 98.4297 680.093 98.052 686.293 98.697C692.492 99.3421 698.526 100.975 704.395 103.596C710.264 106.217 715.454 109.69 719.964 114.015C724.475 118.339 728.281 123.288 731.391 128.861C734.5 134.434 736.536 140.341 737.504 146.582C738.472 152.822 738.501 159.069 737.574 165.321C736.647 171.573 734.684 177.505 731.698 183.117C728.713 188.729 724.968 193.725 720.457 198.106C711.454 206.851 699.483 212.394 687.032 213.845C680.832 214.568 674.594 214.268 668.313 212.947C662.032 211.627 656.202 209.351 650.827 206.12C645.451 202.889 640.669 198.874 636.489 194.077C632.308 189.279 629.053 183.947 626.725 178.08C624.397 172.214 637.332 166.329 636.9 160.012C636.468 153.694 622.799 147.272 624.508 141.162C626.217 135.051 628.792 129.366 632.231 124.106C635.671 118.846 639.955 114.285 645.083 110.422C650.21 106.56 655.706 103.6 661.576 101.543C667.445 99.4858 673.602 98.4373 680.047 98.3974C686.493 98.3574 692.649 99.3301 698.519 101.315C704.389 103.301 709.934 106.193 715.144 109.992C720.354 113.791 724.679 118.299 728.118 123.518C731.558 128.736 734.214 134.389 736.088 140.477C737.961 146.565 738.684 152.771 738.252 159.094C737.819 165.417 736.497 171.526 734.293 177.42C732.089 183.314 728.924 188.686 724.785 193.535C720.646 198.384 715.905 202.457 710.57 205.753C681.601 223.655 636.917 239.345 608.251 217.343C596.244 208.129 587.473 196.734 581.933 183.16C576.392 169.586 583.332 165.994 602.753 172.385C622.174 178.776 625.838 186.177 613.748 194.59C601.659 203.002 587.698 212.608 571.861 223.407C556.024 234.206 540.741 243.639 526.016 251.707C511.29 259.775 493.788 264.869 473.503 266.989C453.217 269.109 436.245 267.103 422.59 260.972C408.936 254.84 398.231 244.077 390.467 228.682C382.703 213.287 379.814 197.615 381.812 181.664C383.809 165.714 387.044 151.096 391.514 137.809C395.983 124.523 402.262 111.386 410.355 98.3974C418.448 85.4091 424.299 77.5282 427.903 74.7545C431.508 71.9808 435.527 69.6952 439.954 67.8977C444.381 66.1002 448.849 64.8444 453.359 64.1301C457.87 63.4159 462.489 63.2629 467.204 63.6711C471.92 64.0793 476.449 65.0379 480.795 66.5471C485.14 68.0563 489.302 70.0707 493.276 72.5902C497.251 75.1098 500.833 78.063 504.025 81.45C507.218 84.837 509.955 88.5575 512.241 92.6113C514.526 96.6652 516.317 100.936 517.615 105.425C518.913 109.914 519.615 114.488 519.717 119.148C519.82 123.807 519.424 128.418 518.539 132.98C517.654 137.543 516.157 141.923 514.035 146.119C511.913 150.316 509.4 154.21 506.497 157.802C503.593 161.393 499.248 165.653 493.461 170.582C487.673 175.51 477.947 182.837 464.293 192.562C450.639 202.287 435.61 211.601 419.195 220.505C402.781 229.409 386.535 210.282 371.934 216.13C357.332 221.979 346.193 227.59 318.638 235.47C286.604 244.63 238.718 251.495 214.5 220.706C201.834 204.602 195.698 188.954 196.09 173.761C196.482 158.568 198.854 158.148 204.517 144.828C210.18 131.508 215.288 131.617 219.84 145.157C224.391 158.696 219.821 155.027 204.807 161.824C189.793 168.621 248.535 192.316 231.257 202.002C213.978 211.689 195.248 220.381 180.934 228.238C166.62 236.096 151.297 238.506 134.966 235.47C118.634 232.433 105.997 223.796 97.0454 209.559C70.0527 166.628 116.912 127.392 147.461 107.577Z" fill="#E7516C"/>
<ellipse cx="372.992" cy="141.637" rx="64.33" ry="57.6406" fill="#E7516C"/>
<ellipse cx="213.314" cy="160.434" rx="64.33" ry="57.6406" fill="#E7516C"/>
<path d="M224.772 178.967C226.666 179.359 227.613 180.828 227.613 183.375C227.613 184.747 227.287 185.824 226.634 186.608C225.98 187.391 225.132 187.783 224.087 187.783C223.76 187.783 223.14 187.75 222.226 187.685C221.311 187.555 220.332 187.457 219.287 187.391C218.242 187.261 217.23 187.163 216.25 187.097C215.271 186.967 214.585 186.902 214.193 186.902C213.802 186.902 213.442 186.902 213.116 186.902C212.789 186.902 212.463 186.934 212.136 187C211.026 186.934 209.72 186.804 208.218 186.608C206.782 186.346 205.345 186.085 203.908 185.824C202.537 185.498 201.296 185.171 200.186 184.845C199.141 184.518 198.521 184.224 198.325 183.963C197.672 182.004 197.345 179.392 197.345 176.127C197.345 175.604 197.345 175.082 197.345 174.559C197.345 173.972 197.378 173.384 197.443 172.796L198.031 165.841C198.096 165.319 198.129 164.829 198.129 164.372C198.129 163.85 198.129 163.393 198.129 163.001C198.129 162.478 198.129 162.054 198.129 161.727C198.129 161.336 198.064 160.976 197.933 160.65C198.39 158.168 198.717 156.111 198.913 154.479C199.108 152.781 199.206 151.475 199.206 150.561V149.777C199.206 148.863 199.598 145.957 200.382 141.059C201.361 138.969 202.863 137.925 204.888 137.925C206.129 137.925 207.173 138.414 208.022 139.394C208.871 140.308 209.296 141.582 209.296 143.214C209.034 144.128 208.773 145.271 208.512 146.643C208.316 148.014 208.12 149.646 207.924 151.54V152.324C207.924 152.912 207.859 153.826 207.728 155.067C207.663 156.242 207.565 157.483 207.435 158.789C207.304 160.03 207.173 161.172 207.043 162.217C206.977 163.197 206.945 163.752 206.945 163.882C206.945 164.601 206.977 165.058 207.043 165.254C206.782 167.996 206.586 170.282 206.455 172.111C206.324 173.939 206.259 175.343 206.259 176.323C206.259 176.976 206.292 177.4 206.357 177.596C209.753 177.988 212.006 178.184 213.116 178.184C213.638 178.184 214.161 178.184 214.683 178.184C215.271 178.118 215.859 178.086 216.446 178.086C218.928 178.086 221.703 178.38 224.772 178.967ZM290.819 191.897C290.558 193.138 289.35 193.758 287.195 193.758C285.432 193.758 284.158 193.367 283.375 192.583C283.048 191.473 282.591 190.134 282.003 188.567C281.416 186.934 280.73 185.073 279.946 182.983C279.555 180.437 279.163 178.641 278.771 177.596C278.444 176.551 278.02 175.767 277.498 175.245C276.518 175.31 275.114 175.441 273.286 175.637C271.457 175.767 269.531 175.963 267.506 176.225C265.482 176.421 263.588 176.714 261.825 177.106C260.062 177.433 258.788 177.792 258.005 178.184C257.678 179.816 257.286 181.612 256.829 183.571C256.372 185.53 255.817 187.62 255.164 189.84C254.968 190.493 254.511 190.95 253.793 191.212C253.074 191.538 252.193 191.701 251.148 191.701C250.103 191.701 249.189 191.505 248.405 191.114C247.687 190.787 247.328 190.265 247.328 189.546C247.328 188.24 248.111 184.355 249.679 177.89C249.613 177.629 249.581 177.237 249.581 176.714C249.581 175.865 249.679 174.821 249.875 173.58C250.136 172.274 250.397 171.033 250.658 169.858C250.919 168.682 251.148 167.67 251.344 166.821C251.605 165.972 251.736 165.515 251.736 165.45L254.87 156.732C255.001 155.883 255.327 154.74 255.85 153.303C256.438 151.867 257.058 150.397 257.711 148.895C258.364 147.394 258.984 145.99 259.572 144.683C260.16 143.312 260.552 142.267 260.747 141.549C261.335 139.394 262.902 138.316 265.449 138.316C267.539 138.316 268.878 139.1 269.465 140.667C269.465 140.667 269.661 141.027 270.053 141.745C270.445 142.463 270.967 143.377 271.62 144.488C272.273 145.598 272.959 146.838 273.677 148.21C274.461 149.516 275.179 150.789 275.832 152.03C276.485 153.205 277.04 154.283 277.498 155.262C277.955 156.177 278.216 156.797 278.281 157.124C278.804 158.364 279.457 159.801 280.24 161.434C281.024 163.001 281.971 164.764 283.081 166.723C283.734 167.572 284.322 168.715 284.844 170.151C285.432 171.523 285.954 172.927 286.411 174.363C286.868 175.8 287.26 177.106 287.587 178.282C287.913 179.457 288.207 180.241 288.468 180.633C288.468 181.09 288.599 181.808 288.86 182.788C289.187 183.702 289.481 184.681 289.742 185.726C290.068 186.771 290.362 187.75 290.623 188.665C290.885 189.579 291.015 190.232 291.015 190.624C291.015 190.95 290.95 191.375 290.819 191.897ZM273.677 167.213C273.155 165.646 272.665 164.307 272.208 163.197C271.816 162.087 271.326 160.976 270.739 159.866C270.216 158.756 269.596 157.515 268.878 156.144C268.159 154.707 267.245 152.879 266.135 150.659C264.633 153.401 263.555 156.569 262.902 160.16C261.531 162.838 260.552 165.678 259.964 168.682C261.988 168.094 263.621 167.801 264.862 167.801C265.319 167.801 265.645 167.833 265.841 167.899C266.951 167.637 268.29 167.507 269.857 167.507C271.424 167.507 272.698 167.409 273.677 167.213ZM347.254 187.881C347.123 187.946 346.764 187.979 346.176 187.979C346.046 187.979 345.393 187.946 344.217 187.881C343.042 187.75 341.703 187.62 340.201 187.489C338.764 187.359 337.328 187.261 335.891 187.195C334.454 187.065 333.377 187 332.659 187H330.797C329.491 187 327.467 186.902 324.724 186.706C321.982 186.444 319.272 186.151 316.594 185.824C315.811 185.824 314.994 185.693 314.145 185.432C313.296 185.106 312.48 184.714 311.696 184.257C310.913 183.734 310.227 183.147 309.639 182.494C309.117 181.775 308.758 181.024 308.562 180.241C308.954 179 310.195 177.106 312.284 174.559L318.455 166.919C318.847 166.462 319.631 165.515 320.806 164.078C322.047 162.576 323.418 160.911 324.92 159.083C326.422 157.254 327.957 155.426 329.524 153.597C331.091 151.769 332.43 150.267 333.54 149.091H332.365C331.646 148.961 331.059 148.928 330.602 148.993C330.144 148.993 329.655 148.993 329.132 148.993C328.349 148.928 327.5 148.961 326.585 149.091C325.737 149.157 324.757 149.222 323.647 149.287L315.713 149.875C313.819 148.961 312.872 147.328 312.872 144.977C312.872 144.324 313.035 143.704 313.362 143.116C313.754 142.528 314.504 142.006 315.615 141.549C316.79 141.092 318.455 140.733 320.61 140.471C322.765 140.21 325.671 140.08 329.328 140.08C331.418 140.08 333.703 140.243 336.185 140.569C338.732 140.831 341.474 141.32 344.413 142.039C345.197 143.149 345.589 144.618 345.589 146.447C345.589 148.275 345.033 149.548 343.923 150.267C342.748 151.638 341.638 152.912 340.593 154.087C339.613 155.197 338.471 156.503 337.164 158.005C335.924 159.507 334.422 161.336 332.659 163.491C330.961 165.646 328.806 168.421 326.194 171.817C325.867 172.404 324.398 174.298 321.786 177.498C324.855 178.216 327.467 178.575 329.622 178.575C330.144 178.575 330.569 178.575 330.895 178.575C331.287 178.51 331.744 178.478 332.267 178.478C332.855 178.478 333.769 178.51 335.01 178.575C336.25 178.641 337.524 178.706 338.83 178.771C340.201 178.837 341.409 178.902 342.454 178.967C343.564 179.033 344.217 179.065 344.413 179.065C345.393 179.065 346.078 179 346.47 178.869C348.69 179.326 349.801 180.796 349.801 183.277C349.801 185.759 348.952 187.293 347.254 187.881ZM411.388 143.802C410.866 145.108 410.409 146.12 410.017 146.838C409.625 147.491 409.168 148.144 408.646 148.798C408.123 149.385 407.405 150.136 406.491 151.05C405.642 151.899 404.434 153.14 402.866 154.773C401.56 156.144 400.483 157.287 399.634 158.201C398.85 159.05 398.067 159.834 397.283 160.552C396.565 161.27 395.781 162.054 394.932 162.903C394.083 163.687 393.006 164.699 391.7 165.939C391.7 166.854 391.667 167.964 391.602 169.27C391.536 170.576 391.504 172.078 391.504 173.776C391.504 174.363 391.536 175.082 391.602 175.931C391.667 176.714 391.732 177.498 391.797 178.282C391.928 179.065 392.026 179.816 392.091 180.535C392.157 181.188 392.189 181.71 392.189 182.102V184.845C392.189 187.261 392.32 189.22 392.581 190.722C392.059 192.681 390.524 193.66 387.977 193.66C386.867 193.66 385.986 193.334 385.333 192.681C384.745 192.028 384.288 191.179 383.961 190.134C383.635 189.024 383.406 187.783 383.275 186.412C383.21 184.975 383.178 183.473 383.178 181.906C383.178 181.383 383.178 180.926 383.178 180.535C383.243 180.143 383.308 179.784 383.373 179.457C383.243 176.649 383.112 174.298 382.982 172.404C382.916 170.511 382.884 169.074 382.884 168.094V167.017C381.904 165.972 380.663 164.601 379.161 162.903C377.659 161.205 375.896 159.213 373.872 156.928C373.545 156.275 373.023 155.458 372.305 154.479C371.586 153.499 370.835 152.552 370.052 151.638C369.333 150.659 368.68 149.777 368.093 148.993C367.57 148.144 367.309 147.524 367.309 147.132C367.309 146.022 367.766 144.945 368.68 143.9C369.66 142.855 370.803 142.333 372.109 142.333C372.696 142.333 373.154 142.431 373.48 142.626C373.872 142.757 374.231 143.018 374.558 143.41C374.949 143.737 375.341 144.226 375.733 144.879C376.19 145.467 376.778 146.218 377.496 147.132C378.215 148.047 378.802 148.863 379.259 149.581C379.782 150.299 380.206 150.92 380.533 151.442C380.729 151.638 381.121 152.063 381.708 152.716C382.361 153.369 383.047 154.087 383.765 154.871C384.484 155.589 385.137 156.275 385.724 156.928C386.377 157.581 386.834 158.005 387.096 158.201C387.814 157.548 388.728 156.764 389.838 155.85C390.949 154.936 392.255 153.858 393.757 152.618C394.018 152.095 394.671 151.083 395.716 149.581C396.76 148.079 397.936 146.512 399.242 144.879C400.613 143.181 401.952 141.647 403.258 140.276C404.564 138.839 405.609 137.925 406.393 137.533C406.85 137.729 407.372 138.055 407.96 138.512C408.548 138.904 409.103 139.394 409.625 139.982C410.148 140.504 410.572 141.059 410.898 141.647C411.225 142.235 411.388 142.79 411.388 143.312V143.802ZM468.619 187.489C468.619 188.665 468.096 189.775 467.051 190.82C466.006 191.799 464.962 192.289 463.917 192.289C463.394 192.289 462.97 192.126 462.643 191.799C462.578 191.799 462.284 191.473 461.762 190.82C461.239 190.167 460.619 189.35 459.901 188.371C459.182 187.391 458.399 186.346 457.55 185.236C456.701 184.126 455.917 183.081 455.199 182.102C454.481 181.122 453.893 180.339 453.436 179.751C453.044 179.098 452.881 178.804 452.946 178.869C452.815 178.478 452.489 177.857 451.966 177.008C451.444 176.159 450.856 175.278 450.203 174.363C449.616 173.384 449.06 172.502 448.538 171.719C448.016 170.87 447.722 170.347 447.656 170.151C447.526 170.151 447.167 170.217 446.579 170.347C445.991 170.413 445.338 170.511 444.62 170.641C443.902 170.707 443.151 170.804 442.367 170.935C441.649 171 441.094 171.033 440.702 171.033H440.212C440.016 173.057 439.853 174.723 439.722 176.029C439.592 177.335 439.526 178.314 439.526 178.967V182.004C439.526 185.53 439.232 189.35 438.645 193.464C437.861 194.64 436.718 195.228 435.216 195.228C433.91 195.228 432.767 194.868 431.788 194.15C430.874 193.497 430.417 192.322 430.417 190.624C430.417 190.101 430.417 189.481 430.417 188.763C430.482 187.979 430.515 187.195 430.515 186.412C430.58 185.628 430.612 184.942 430.612 184.355C430.678 183.702 430.71 183.277 430.71 183.081V182.592L431.396 167.801C431.461 166.952 431.461 165.907 431.396 164.666C431.396 163.425 431.461 161.989 431.592 160.356L432.376 154.479C432.767 152.454 432.963 150.724 432.963 149.287C432.963 148.83 432.931 148.406 432.865 148.014C432.865 147.557 432.833 147.1 432.767 146.643C432.767 146.643 432.865 145.5 433.061 143.214C433.127 141.647 433.42 140.373 433.943 139.394C434.465 138.414 435.706 137.925 437.665 137.925C439.036 137.925 440.408 138.153 441.779 138.61C443.085 138.48 444.228 138.414 445.208 138.414C446.252 138.414 447.134 138.414 447.852 138.414C448.505 138.414 449.093 138.447 449.616 138.512C450.138 138.512 450.66 138.578 451.183 138.708C451.705 138.774 452.293 138.904 452.946 139.1C453.599 139.231 454.383 139.427 455.297 139.688L459.607 142.626C462.023 144.52 463.623 146.414 464.407 148.308C465.255 150.202 465.68 152.193 465.68 154.283C465.68 155.72 465.615 156.96 465.484 158.005C465.419 158.985 465.092 159.964 464.504 160.944C463.917 161.923 463.003 162.936 461.762 163.98C460.521 165.025 458.758 166.331 456.472 167.899C457.974 169.792 459.672 172.6 461.566 176.323C462.741 177.237 465.092 180.959 468.619 187.489ZM456.57 156.242C456.636 155.981 456.668 155.622 456.668 155.165C456.668 154.511 456.603 153.858 456.472 153.205C456.342 152.487 456.048 151.801 455.591 151.148C455.134 150.43 454.448 149.744 453.534 149.091C452.685 148.373 451.477 147.687 449.909 147.034C448.538 146.512 447.395 146.251 446.481 146.251C446.22 146.316 445.861 146.381 445.403 146.447C445.012 146.577 444.522 146.708 443.934 146.838C443.346 146.904 442.693 147.002 441.975 147.132C442.04 147.524 442.073 147.916 442.073 148.308C442.073 148.634 442.008 149.287 441.877 150.267C441.812 151.246 441.681 152.65 441.485 154.479C441.289 156.307 441.061 158.854 440.8 162.119C441.061 162.185 441.322 162.217 441.583 162.217C441.845 162.217 442.106 162.217 442.367 162.217C443.608 162.217 444.979 162.054 446.481 161.727C448.048 161.336 449.518 160.878 450.889 160.356C452.26 159.768 453.468 159.115 454.513 158.397C455.558 157.679 456.244 156.96 456.57 156.242ZM524.422 184.159C526.577 185.269 527.655 186.869 527.655 188.959C527.655 190.33 527.296 191.309 526.577 191.897C525.924 192.485 524.945 192.877 523.639 193.073C522.398 193.334 520.831 193.464 518.937 193.464C517.043 193.53 514.921 193.628 512.57 193.758C511.786 193.497 508.913 193.236 503.95 192.975C503.232 193.04 502.546 193.073 501.893 193.073C501.24 193.138 500.62 193.171 500.032 193.171C496.506 193.171 494.089 192.648 492.783 191.603C492.457 188.991 492.196 186.575 492 184.355C491.869 182.134 491.804 180.11 491.804 178.282C491.804 175.408 491.902 172.927 492.098 170.837C492.359 168.682 492.489 166.756 492.489 165.058C492.489 162.968 492.391 161.336 492.196 160.16L492.783 149.875C493.045 147.394 493.338 145.271 493.665 143.508C494.057 141.745 494.514 140.406 495.036 139.492C495.428 138.969 497.387 138.316 500.913 137.533L507.183 136.161C507.574 136.096 508.391 135.998 509.631 135.868C510.872 135.737 512.146 135.606 513.452 135.476C514.823 135.345 516.031 135.247 517.076 135.182C518.121 135.117 518.61 135.084 518.545 135.084H518.937C519.655 135.084 520.374 135.574 521.092 136.553C521.876 137.533 522.267 138.676 522.267 139.982C522.267 140.635 522.235 141.222 522.169 141.745C522.169 142.267 521.974 142.724 521.582 143.116C521.19 143.443 520.537 143.704 519.623 143.9C518.708 144.096 517.37 144.226 515.607 144.292C512.733 144.422 510.774 144.716 509.729 145.173H509.24C507.542 145.173 505.419 145.565 502.873 146.349C502.611 146.675 502.415 147.263 502.285 148.112C502.154 148.895 502.056 149.744 501.991 150.659C501.926 151.508 501.86 152.259 501.795 152.912C501.795 153.499 501.795 153.695 501.795 153.499C501.73 153.826 501.664 154.152 501.599 154.479C501.599 154.805 501.599 155.23 501.599 155.752C501.599 156.209 501.599 156.732 501.599 157.319C501.664 157.842 501.73 158.43 501.795 159.083C503.819 158.887 505.452 158.691 506.693 158.495C507.999 158.234 509.011 158.103 509.729 158.103C511.101 158.103 512.439 158.07 513.745 158.005C515.051 157.94 516.194 158.038 517.174 158.299C518.219 158.495 519.035 158.952 519.623 159.67C520.21 160.323 520.504 161.401 520.504 162.903C520.504 164.601 519.949 165.711 518.839 166.233C517.794 166.756 515.933 167.05 513.256 167.115C510.121 167.245 508.227 167.376 507.574 167.507C507.183 167.507 506.758 167.507 506.301 167.507C505.909 167.441 505.452 167.409 504.93 167.409C504.603 167.409 504.211 167.409 503.754 167.409C503.362 167.343 502.971 167.343 502.579 167.409C502.187 167.409 501.828 167.539 501.501 167.801C501.24 167.996 501.109 168.388 501.109 168.976C501.109 169.368 501.109 169.89 501.109 170.543C501.175 171.131 501.207 171.686 501.207 172.208C501.207 172.992 501.175 173.776 501.109 174.559C501.109 175.343 501.077 176.192 501.011 177.106C501.011 177.955 500.979 178.935 500.913 180.045C500.913 181.155 500.913 182.461 500.913 183.963C501.305 184.028 502.056 184.094 503.166 184.159C504.342 184.224 505.55 184.289 506.791 184.355C508.097 184.42 509.338 184.518 510.513 184.649C511.688 184.714 512.472 184.779 512.864 184.845C512.929 184.845 513.386 184.812 514.235 184.747C515.084 184.681 516.325 184.583 517.957 184.453C520.178 184.257 521.941 184.159 523.247 184.159H524.422ZM583.015 157.711C582.884 158.887 582.721 159.932 582.525 160.846C582.395 161.76 582.101 162.642 581.644 163.491C581.186 164.274 580.566 165.123 579.782 166.037C579.064 166.886 578.117 167.866 576.942 168.976C573.873 171.849 570.477 173.515 566.755 173.972C565.906 174.298 564.795 174.69 563.424 175.147C562.053 175.539 560.42 175.996 558.526 176.518L558.82 182.885C558.951 183.8 559.049 184.714 559.114 185.628C559.179 186.542 559.212 187.555 559.212 188.665C559.212 189.448 559.212 190.297 559.212 191.212C559.212 192.126 559.081 192.975 558.82 193.758C558.624 194.542 558.2 195.195 557.547 195.717C556.959 196.24 556.078 196.501 554.902 196.501C553.661 196.501 552.747 196.272 552.159 195.815C551.572 195.358 551.18 194.705 550.984 193.856C550.788 193.073 550.657 192.126 550.592 191.016C550.592 189.905 550.494 188.73 550.298 187.489V187.587C550.233 186.738 550.168 185.726 550.102 184.551C550.037 183.506 549.972 182.232 549.906 180.73C549.841 179.163 549.743 177.335 549.613 175.245V174.657C549.613 174.266 549.58 173.743 549.515 173.09C549.515 172.437 549.482 171.751 549.417 171.033C549.351 170.315 549.286 169.694 549.221 169.172C549.221 168.584 549.221 168.192 549.221 167.996C549.221 167.605 549.221 166.919 549.221 165.939C549.286 164.895 549.319 163.784 549.319 162.609C549.384 161.434 549.417 160.323 549.417 159.279C549.482 158.168 549.515 157.319 549.515 156.732C549.515 155.687 549.449 154.74 549.319 153.891C549.253 153.042 549.156 152.259 549.025 151.54C549.025 151.41 549.025 150.985 549.025 150.267C549.09 149.548 549.156 148.765 549.221 147.916C549.286 147.002 549.384 146.12 549.515 145.271C549.645 144.357 549.809 143.606 550.004 143.018C551.768 142.169 553.89 141.745 556.371 141.745H557.155C559.963 140.896 562.575 140.471 564.991 140.471C565.906 140.471 568.485 140.863 572.73 141.647L577.04 143.998C578.215 144.716 579.162 145.467 579.88 146.251C580.664 146.969 581.284 147.851 581.741 148.895C582.199 149.94 582.525 151.181 582.721 152.618C582.917 153.989 583.015 155.687 583.015 157.711ZM573.807 159.083C574.003 157.842 574.101 156.732 574.101 155.752C574.101 153.989 573.383 152.389 571.946 150.952C570.509 149.451 568.159 148.7 564.893 148.7C563.391 148.7 561.106 149.222 558.037 150.267C558.167 151.508 558.265 153.01 558.331 154.773C558.396 156.471 558.428 158.462 558.428 160.748C558.363 160.878 558.331 161.532 558.331 162.707C558.331 163.295 558.331 164.013 558.331 164.862C558.331 165.646 558.363 166.56 558.428 167.605C559.016 167.539 559.669 167.409 560.388 167.213C561.171 167.017 561.89 166.821 562.543 166.625C563.196 166.364 563.751 166.135 564.208 165.939C564.665 165.744 564.893 165.646 564.893 165.646C569.595 164.535 572.566 162.348 573.807 159.083ZM647.02 171.817C646.171 175.212 643.755 179.131 639.771 183.571C639.249 183.767 638.563 184.159 637.714 184.747C636.931 185.334 635.886 185.955 634.58 186.608C633.339 187.195 631.805 187.718 629.976 188.175C628.148 188.632 625.993 188.861 623.511 188.861C618.548 188.861 614.401 187.555 611.071 184.942C607.741 182.265 605.161 178.086 603.333 172.404C603.267 171.947 603.235 171.49 603.235 171.033C603.235 170.576 603.235 170.086 603.235 169.564C603.235 165.515 603.659 161.956 604.508 158.887C605.357 155.752 606.5 153.042 607.936 150.757C609.373 148.471 611.006 146.545 612.834 144.977C614.728 143.41 616.687 142.137 618.711 141.157C622.042 140.243 625.307 139.786 628.507 139.786C630.792 139.786 633.045 140.373 635.266 141.549C637.486 142.724 639.445 144.39 641.143 146.545C642.906 148.7 644.31 151.344 645.355 154.479C646.465 157.548 647.085 161.042 647.216 164.96L647.02 171.817ZM638.008 171.523C638.465 168.845 638.694 166.756 638.694 165.254C638.694 162.772 638.335 160.487 637.616 158.397C636.898 156.307 636.049 154.511 635.07 153.01C634.09 151.442 633.045 150.234 631.935 149.385C630.89 148.471 630.009 148.014 629.29 148.014C625.829 148.014 622.989 148.798 620.768 150.365C618.613 151.867 616.916 153.695 615.675 155.85C614.434 158.005 613.585 160.258 613.128 162.609C612.671 164.96 612.442 166.952 612.442 168.584C612.442 170.086 612.671 171.555 613.128 172.992C613.65 174.363 614.369 175.604 615.283 176.714C616.263 177.759 617.405 178.608 618.711 179.261C620.017 179.914 621.519 180.241 623.217 180.241C627.201 180.241 630.335 179.522 632.621 178.086C634.906 176.584 636.702 174.396 638.008 171.523Z" fill="white"/>
</svg>
