<svg width="822" height="326" viewBox="0 0 822 326" fill="none" xmlns="http://www.w3.org/2000/svg">
<path fill-rule="evenodd" clip-rule="evenodd" d="M211.186 225.354C181.266 238.77 147.556 259.854 117.255 234.892C72.0074 197.616 107.846 50.0452 180.755 67.0339C200.25 71.5768 214.749 86.2479 219.982 104.187C261.852 85.412 399.013 2.80694 403.522 102.016C445.739 85.7539 530.737 33.4183 557.438 98.9425C586.123 86.1562 619.836 72.5303 644.955 99.7684C703.19 61.7465 750.675 121.776 707.844 190.088C683.424 218.594 632.483 293.642 557.438 231.293C513.312 258.694 399.512 307.789 380.11 225.656C341.404 244.246 228.215 299.342 211.186 225.354Z" fill="#F6B611"/>
<path d="M455.417 217.577C435.212 219.041 158.377 213.872 158.377 213.872C129.329 213.45 111.465 173.603 138.695 157.098C122.467 138.72 134.288 108.816 159.553 108.816L380.105 108.816C380.105 108.816 502.548 109.202 542.912 107.464C583.276 105.726 616.547 108.774 652.27 114.123C687.993 119.473 700.105 165.92 666.946 179.507C666.946 204.609 648.814 215.617 627.888 215.617C627.888 215.617 475.621 216.113 455.417 217.577Z" fill="#E7516C"/>
<path d="M209.661 174.89C211.555 175.282 212.502 176.751 212.502 179.298C212.502 180.669 212.175 181.747 211.522 182.531C210.869 183.314 210.02 183.706 208.975 183.706C208.649 183.706 208.028 183.673 207.114 183.608C206.2 183.477 205.22 183.379 204.176 183.314C203.131 183.184 202.119 183.086 201.139 183.02C200.16 182.89 199.474 182.824 199.082 182.824C198.69 182.824 198.331 182.824 198.005 182.824C197.678 182.824 197.352 182.857 197.025 182.922C195.915 182.857 194.609 182.726 193.107 182.531C191.67 182.269 190.234 182.008 188.797 181.747C187.426 181.42 186.185 181.094 185.075 180.767C184.03 180.441 183.409 180.147 183.214 179.886C182.56 177.927 182.234 175.315 182.234 172.049C182.234 171.527 182.234 171.005 182.234 170.482C182.234 169.895 182.267 169.307 182.332 168.719L182.92 161.764C182.985 161.242 183.018 160.752 183.018 160.295C183.018 159.773 183.018 159.315 183.018 158.924C183.018 158.401 183.018 157.977 183.018 157.65C183.018 157.258 182.952 156.899 182.822 156.573C183.279 154.091 183.605 152.034 183.801 150.402C183.997 148.704 184.095 147.398 184.095 146.484V145.7C184.095 144.786 184.487 141.88 185.271 136.982C186.25 134.892 187.752 133.847 189.776 133.847C191.017 133.847 192.062 134.337 192.911 135.317C193.76 136.231 194.184 137.504 194.184 139.137C193.923 140.051 193.662 141.194 193.401 142.565C193.205 143.937 193.009 145.569 192.813 147.463V148.247C192.813 148.834 192.748 149.749 192.617 150.989C192.552 152.165 192.454 153.406 192.323 154.712C192.193 155.952 192.062 157.095 191.931 158.14C191.866 159.12 191.833 159.675 191.833 159.805C191.833 160.524 191.866 160.981 191.931 161.177C191.67 163.919 191.474 166.205 191.344 168.033C191.213 169.862 191.148 171.266 191.148 172.245C191.148 172.898 191.18 173.323 191.246 173.519C194.641 173.911 196.894 174.107 198.005 174.107C198.527 174.107 199.049 174.107 199.572 174.107C200.16 174.041 200.747 174.009 201.335 174.009C203.816 174.009 206.592 174.302 209.661 174.89ZM275.708 187.82C275.447 189.061 274.239 189.681 272.084 189.681C270.321 189.681 269.047 189.289 268.263 188.506C267.937 187.396 267.48 186.057 266.892 184.49C266.304 182.857 265.619 180.996 264.835 178.906C264.443 176.359 264.051 174.564 263.66 173.519C263.333 172.474 262.909 171.69 262.386 171.168C261.407 171.233 260.003 171.364 258.174 171.56C256.346 171.69 254.419 171.886 252.395 172.147C250.371 172.343 248.477 172.637 246.714 173.029C244.95 173.356 243.677 173.715 242.893 174.107C242.567 175.739 242.175 177.535 241.718 179.494C241.261 181.453 240.706 183.543 240.053 185.763C239.857 186.416 239.4 186.873 238.681 187.134C237.963 187.461 237.082 187.624 236.037 187.624C234.992 187.624 234.078 187.428 233.294 187.036C232.576 186.71 232.216 186.187 232.216 185.469C232.216 184.163 233 180.278 234.567 173.813C234.502 173.551 234.469 173.16 234.469 172.637C234.469 171.788 234.567 170.743 234.763 169.503C235.024 168.197 235.286 166.956 235.547 165.78C235.808 164.605 236.037 163.593 236.233 162.744C236.494 161.895 236.624 161.438 236.624 161.373L239.759 152.655C239.89 151.806 240.216 150.663 240.738 149.226C241.326 147.79 241.947 146.32 242.6 144.818C243.253 143.316 243.873 141.912 244.461 140.606C245.048 139.235 245.44 138.19 245.636 137.472C246.224 135.317 247.791 134.239 250.338 134.239C252.428 134.239 253.766 135.023 254.354 136.59C254.354 136.59 254.55 136.949 254.942 137.668C255.334 138.386 255.856 139.3 256.509 140.41C257.162 141.521 257.848 142.761 258.566 144.133C259.35 145.439 260.068 146.712 260.721 147.953C261.374 149.128 261.929 150.206 262.386 151.185C262.843 152.1 263.105 152.72 263.17 153.046C263.692 154.287 264.345 155.724 265.129 157.356C265.913 158.924 266.859 160.687 267.97 162.646C268.623 163.495 269.21 164.638 269.733 166.074C270.321 167.446 270.843 168.85 271.3 170.286C271.757 171.723 272.149 173.029 272.475 174.204C272.802 175.38 273.096 176.164 273.357 176.555C273.357 177.012 273.488 177.731 273.749 178.71C274.075 179.625 274.369 180.604 274.63 181.649C274.957 182.694 275.251 183.673 275.512 184.588C275.773 185.502 275.904 186.155 275.904 186.547C275.904 186.873 275.839 187.298 275.708 187.82ZM258.566 163.136C258.044 161.568 257.554 160.23 257.097 159.12C256.705 158.009 256.215 156.899 255.627 155.789C255.105 154.679 254.485 153.438 253.766 152.067C253.048 150.63 252.134 148.802 251.024 146.581C249.522 149.324 248.444 152.491 247.791 156.083C246.42 158.76 245.44 161.601 244.853 164.605C246.877 164.017 248.509 163.723 249.75 163.723C250.207 163.723 250.534 163.756 250.73 163.821C251.84 163.56 253.179 163.43 254.746 163.43C256.313 163.43 257.587 163.332 258.566 163.136ZM332.142 183.804C332.012 183.869 331.653 183.902 331.065 183.902C330.934 183.902 330.281 183.869 329.106 183.804C327.93 183.673 326.592 183.543 325.09 183.412C323.653 183.282 322.216 183.184 320.78 183.118C319.343 182.988 318.266 182.922 317.547 182.922H315.686C314.38 182.922 312.356 182.824 309.613 182.629C306.87 182.367 304.16 182.073 301.483 181.747C300.699 181.747 299.883 181.616 299.034 181.355C298.185 181.029 297.369 180.637 296.585 180.18C295.802 179.657 295.116 179.07 294.528 178.416C294.006 177.698 293.647 176.947 293.451 176.164C293.842 174.923 295.083 173.029 297.173 170.482L303.344 162.842C303.736 162.385 304.519 161.438 305.695 160.001C306.936 158.499 308.307 156.834 309.809 155.006C311.311 153.177 312.845 151.349 314.413 149.52C315.98 147.692 317.319 146.19 318.429 145.014H317.253C316.535 144.884 315.947 144.851 315.49 144.916C315.033 144.916 314.543 144.916 314.021 144.916C313.237 144.851 312.388 144.884 311.474 145.014C310.625 145.08 309.646 145.145 308.536 145.21L300.601 145.798C298.707 144.884 297.761 143.251 297.761 140.9C297.761 140.247 297.924 139.627 298.25 139.039C298.642 138.451 299.393 137.929 300.503 137.472C301.679 137.015 303.344 136.655 305.499 136.394C307.654 136.133 310.56 136.002 314.217 136.002C316.307 136.002 318.592 136.166 321.074 136.492C323.62 136.753 326.363 137.243 329.302 137.962C330.085 139.072 330.477 140.541 330.477 142.369C330.477 144.198 329.922 145.471 328.812 146.19C327.637 147.561 326.526 148.834 325.482 150.01C324.502 151.12 323.359 152.426 322.053 153.928C320.812 155.43 319.31 157.258 317.547 159.413C315.849 161.568 313.694 164.344 311.082 167.74C310.756 168.327 309.287 170.221 306.674 173.421C309.744 174.139 312.356 174.498 314.511 174.498C315.033 174.498 315.458 174.498 315.784 174.498C316.176 174.433 316.633 174.4 317.155 174.4C317.743 174.4 318.657 174.433 319.898 174.498C321.139 174.564 322.412 174.629 323.718 174.694C325.09 174.76 326.298 174.825 327.343 174.89C328.453 174.955 329.106 174.988 329.302 174.988C330.281 174.988 330.967 174.923 331.359 174.792C333.579 175.249 334.689 176.719 334.689 179.2C334.689 181.682 333.84 183.216 332.142 183.804ZM396.277 139.725C395.755 141.031 395.297 142.043 394.906 142.761C394.514 143.414 394.057 144.067 393.534 144.72C393.012 145.308 392.293 146.059 391.379 146.973C390.53 147.822 389.322 149.063 387.755 150.696C386.449 152.067 385.371 153.21 384.522 154.124C383.739 154.973 382.955 155.756 382.172 156.475C381.453 157.193 380.67 157.977 379.821 158.826C378.972 159.609 377.894 160.622 376.588 161.862C376.588 162.777 376.556 163.887 376.49 165.193C376.425 166.499 376.392 168.001 376.392 169.699C376.392 170.286 376.425 171.005 376.49 171.854C376.556 172.637 376.621 173.421 376.686 174.204C376.817 174.988 376.915 175.739 376.98 176.457C377.045 177.11 377.078 177.633 377.078 178.025V180.767C377.078 183.184 377.209 185.143 377.47 186.645C376.947 188.604 375.413 189.583 372.866 189.583C371.756 189.583 370.874 189.257 370.221 188.604C369.633 187.951 369.176 187.102 368.85 186.057C368.523 184.947 368.295 183.706 368.164 182.335C368.099 180.898 368.066 179.396 368.066 177.829C368.066 177.306 368.066 176.849 368.066 176.457C368.132 176.066 368.197 175.706 368.262 175.38C368.132 172.572 368.001 170.221 367.87 168.327C367.805 166.433 367.772 164.997 367.772 164.017V162.94C366.793 161.895 365.552 160.524 364.05 158.826C362.548 157.128 360.785 155.136 358.761 152.851C358.434 152.198 357.912 151.381 357.193 150.402C356.475 149.422 355.724 148.475 354.94 147.561C354.222 146.581 353.569 145.7 352.981 144.916C352.459 144.067 352.198 143.447 352.198 143.055C352.198 141.945 352.655 140.868 353.569 139.823C354.549 138.778 355.691 138.255 356.997 138.255C357.585 138.255 358.042 138.353 358.369 138.549C358.761 138.68 359.12 138.941 359.446 139.333C359.838 139.659 360.23 140.149 360.622 140.802C361.079 141.39 361.667 142.141 362.385 143.055C363.103 143.969 363.691 144.786 364.148 145.504C364.67 146.222 365.095 146.843 365.421 147.365C365.617 147.561 366.009 147.985 366.597 148.639C367.25 149.292 367.936 150.01 368.654 150.794C369.372 151.512 370.025 152.198 370.613 152.851C371.266 153.504 371.723 153.928 371.984 154.124C372.703 153.471 373.617 152.687 374.727 151.773C375.837 150.859 377.143 149.781 378.645 148.541C378.906 148.018 379.559 147.006 380.604 145.504C381.649 144.002 382.825 142.435 384.131 140.802C385.502 139.104 386.841 137.57 388.147 136.198C389.453 134.762 390.498 133.847 391.281 133.456C391.738 133.652 392.261 133.978 392.849 134.435C393.436 134.827 393.991 135.317 394.514 135.905C395.036 136.427 395.461 136.982 395.787 137.57C396.114 138.157 396.277 138.713 396.277 139.235V139.725ZM453.507 183.412C453.507 184.588 452.985 185.698 451.94 186.743C450.895 187.722 449.85 188.212 448.805 188.212C448.283 188.212 447.859 188.049 447.532 187.722C447.467 187.722 447.173 187.396 446.65 186.743C446.128 186.09 445.508 185.273 444.789 184.294C444.071 183.314 443.287 182.269 442.438 181.159C441.59 180.049 440.806 179.004 440.088 178.025C439.369 177.045 438.781 176.262 438.324 175.674C437.933 175.021 437.769 174.727 437.835 174.792C437.704 174.4 437.377 173.78 436.855 172.931C436.333 172.082 435.745 171.201 435.092 170.286C434.504 169.307 433.949 168.425 433.427 167.642C432.904 166.793 432.61 166.27 432.545 166.074C432.415 166.074 432.055 166.14 431.468 166.27C430.88 166.336 430.227 166.433 429.509 166.564C428.79 166.629 428.039 166.727 427.256 166.858C426.537 166.923 425.982 166.956 425.59 166.956H425.101C424.905 168.98 424.741 170.645 424.611 171.952C424.48 173.258 424.415 174.237 424.415 174.89V177.927C424.415 181.453 424.121 185.273 423.533 189.387C422.75 190.563 421.607 191.15 420.105 191.15C418.799 191.15 417.656 190.791 416.677 190.073C415.762 189.42 415.305 188.245 415.305 186.547C415.305 186.024 415.305 185.404 415.305 184.686C415.371 183.902 415.403 183.118 415.403 182.335C415.468 181.551 415.501 180.865 415.501 180.278C415.566 179.625 415.599 179.2 415.599 179.004V178.514L416.285 163.723C416.35 162.874 416.35 161.83 416.285 160.589C416.285 159.348 416.35 157.911 416.481 156.279L417.264 150.402C417.656 148.377 417.852 146.647 417.852 145.21C417.852 144.753 417.819 144.329 417.754 143.937C417.754 143.48 417.721 143.022 417.656 142.565C417.656 142.565 417.754 141.423 417.95 139.137C418.015 137.57 418.309 136.296 418.832 135.317C419.354 134.337 420.595 133.847 422.554 133.847C423.925 133.847 425.297 134.076 426.668 134.533C427.974 134.403 429.117 134.337 430.096 134.337C431.141 134.337 432.023 134.337 432.741 134.337C433.394 134.337 433.982 134.37 434.504 134.435C435.027 134.435 435.549 134.501 436.071 134.631C436.594 134.696 437.182 134.827 437.835 135.023C438.488 135.154 439.271 135.349 440.186 135.611L444.495 138.549C446.912 140.443 448.512 142.337 449.295 144.231C450.144 146.124 450.569 148.116 450.569 150.206C450.569 151.642 450.503 152.883 450.373 153.928C450.307 154.908 449.981 155.887 449.393 156.867C448.805 157.846 447.891 158.858 446.65 159.903C445.41 160.948 443.647 162.254 441.361 163.821C442.863 165.715 444.561 168.523 446.455 172.245C447.63 173.16 449.981 176.882 453.507 183.412ZM441.459 152.165C441.524 151.904 441.557 151.544 441.557 151.087C441.557 150.434 441.492 149.781 441.361 149.128C441.23 148.41 440.936 147.724 440.479 147.071C440.022 146.353 439.337 145.667 438.422 145.014C437.573 144.296 436.365 143.61 434.798 142.957C433.427 142.435 432.284 142.174 431.37 142.174C431.108 142.239 430.749 142.304 430.292 142.369C429.9 142.5 429.411 142.631 428.823 142.761C428.235 142.827 427.582 142.925 426.864 143.055C426.929 143.447 426.962 143.839 426.962 144.231C426.962 144.557 426.896 145.21 426.766 146.19C426.701 147.169 426.57 148.573 426.374 150.402C426.178 152.23 425.95 154.777 425.688 158.042C425.95 158.107 426.211 158.14 426.472 158.14C426.733 158.14 426.994 158.14 427.256 158.14C428.496 158.14 429.868 157.977 431.37 157.65C432.937 157.258 434.406 156.801 435.778 156.279C437.149 155.691 438.357 155.038 439.402 154.32C440.447 153.602 441.132 152.883 441.459 152.165ZM509.311 180.082C511.466 181.192 512.544 182.792 512.544 184.881C512.544 186.253 512.184 187.232 511.466 187.82C510.813 188.408 509.833 188.8 508.527 188.996C507.287 189.257 505.719 189.387 503.826 189.387C501.932 189.453 499.81 189.551 497.459 189.681C496.675 189.42 493.802 189.159 488.839 188.898C488.12 188.963 487.435 188.996 486.782 188.996C486.129 189.061 485.508 189.093 484.921 189.093C481.394 189.093 478.978 188.571 477.672 187.526C477.345 184.914 477.084 182.498 476.888 180.278C476.758 178.057 476.692 176.033 476.692 174.204C476.692 171.331 476.79 168.85 476.986 166.76C477.248 164.605 477.378 162.679 477.378 160.981C477.378 158.891 477.28 157.258 477.084 156.083L477.672 145.798C477.933 143.316 478.227 141.194 478.554 139.431C478.945 137.668 479.402 136.329 479.925 135.415C480.317 134.892 482.276 134.239 485.802 133.456L492.071 132.084C492.463 132.019 493.279 131.921 494.52 131.79C495.761 131.66 497.034 131.529 498.34 131.399C499.712 131.268 500.92 131.17 501.965 131.105C503.009 131.039 503.499 131.007 503.434 131.007H503.826C504.544 131.007 505.262 131.497 505.981 132.476C506.764 133.456 507.156 134.598 507.156 135.905C507.156 136.558 507.123 137.145 507.058 137.668C507.058 138.19 506.862 138.647 506.47 139.039C506.079 139.366 505.426 139.627 504.511 139.823C503.597 140.019 502.258 140.149 500.495 140.214C497.622 140.345 495.663 140.639 494.618 141.096H494.128C492.43 141.096 490.308 141.488 487.761 142.272C487.5 142.598 487.304 143.186 487.173 144.035C487.043 144.818 486.945 145.667 486.88 146.581C486.814 147.43 486.749 148.181 486.684 148.834C486.684 149.422 486.684 149.618 486.684 149.422C486.618 149.749 486.553 150.075 486.488 150.402C486.488 150.728 486.488 151.153 486.488 151.675C486.488 152.132 486.488 152.655 486.488 153.242C486.553 153.765 486.618 154.352 486.684 155.006C488.708 154.81 490.341 154.614 491.581 154.418C492.887 154.157 493.9 154.026 494.618 154.026C495.989 154.026 497.328 153.993 498.634 153.928C499.94 153.863 501.083 153.961 502.062 154.222C503.107 154.418 503.924 154.875 504.511 155.593C505.099 156.246 505.393 157.324 505.393 158.826C505.393 160.524 504.838 161.634 503.728 162.156C502.683 162.679 500.822 162.972 498.144 163.038C495.01 163.168 493.116 163.299 492.463 163.43C492.071 163.43 491.647 163.43 491.19 163.43C490.798 163.364 490.341 163.332 489.818 163.332C489.492 163.332 489.1 163.332 488.643 163.332C488.251 163.266 487.859 163.266 487.467 163.332C487.076 163.332 486.716 163.462 486.39 163.723C486.129 163.919 485.998 164.311 485.998 164.899C485.998 165.291 485.998 165.813 485.998 166.466C486.063 167.054 486.096 167.609 486.096 168.131C486.096 168.915 486.063 169.699 485.998 170.482C485.998 171.266 485.965 172.115 485.9 173.029C485.9 173.878 485.867 174.858 485.802 175.968C485.802 177.078 485.802 178.384 485.802 179.886C486.194 179.951 486.945 180.016 488.055 180.082C489.231 180.147 490.439 180.212 491.679 180.278C492.985 180.343 494.226 180.441 495.402 180.571C496.577 180.637 497.361 180.702 497.753 180.767C497.818 180.767 498.275 180.735 499.124 180.669C499.973 180.604 501.214 180.506 502.846 180.376C505.066 180.18 506.83 180.082 508.136 180.082H509.311ZM567.904 153.634C567.773 154.81 567.61 155.854 567.414 156.769C567.283 157.683 566.989 158.565 566.532 159.413C566.075 160.197 565.455 161.046 564.671 161.96C563.953 162.809 563.006 163.789 561.83 164.899C558.761 167.772 555.365 169.437 551.643 169.895C550.794 170.221 549.684 170.613 548.313 171.07C546.941 171.462 545.309 171.919 543.415 172.441L543.709 178.808C543.84 179.723 543.938 180.637 544.003 181.551C544.068 182.465 544.101 183.477 544.101 184.588C544.101 185.371 544.101 186.22 544.101 187.134C544.101 188.049 543.97 188.898 543.709 189.681C543.513 190.465 543.089 191.118 542.436 191.64C541.848 192.163 540.966 192.424 539.791 192.424C538.55 192.424 537.636 192.195 537.048 191.738C536.46 191.281 536.069 190.628 535.873 189.779C535.677 188.996 535.546 188.049 535.481 186.938C535.481 185.828 535.383 184.653 535.187 183.412V183.51C535.122 182.661 535.056 181.649 534.991 180.474C534.926 179.429 534.86 178.155 534.795 176.653C534.73 175.086 534.632 173.258 534.501 171.168V170.58C534.501 170.188 534.469 169.666 534.403 169.013C534.403 168.36 534.371 167.674 534.305 166.956C534.24 166.238 534.175 165.617 534.109 165.095C534.109 164.507 534.109 164.115 534.109 163.919C534.109 163.528 534.109 162.842 534.109 161.862C534.175 160.817 534.207 159.707 534.207 158.532C534.273 157.356 534.305 156.246 534.305 155.201C534.371 154.091 534.403 153.242 534.403 152.655C534.403 151.61 534.338 150.663 534.207 149.814C534.142 148.965 534.044 148.181 533.914 147.463C533.914 147.332 533.914 146.908 533.914 146.19C533.979 145.471 534.044 144.688 534.109 143.839C534.175 142.925 534.273 142.043 534.403 141.194C534.534 140.28 534.697 139.529 534.893 138.941C536.656 138.092 538.779 137.668 541.26 137.668H542.044C544.852 136.819 547.464 136.394 549.88 136.394C550.794 136.394 553.374 136.786 557.618 137.57L561.928 139.921C563.104 140.639 564.051 141.39 564.769 142.174C565.553 142.892 566.173 143.773 566.63 144.818C567.087 145.863 567.414 147.104 567.61 148.541C567.806 149.912 567.904 151.61 567.904 153.634ZM558.696 155.006C558.892 153.765 558.99 152.655 558.99 151.675C558.99 149.912 558.271 148.312 556.835 146.875C555.398 145.373 553.047 144.622 549.782 144.622C548.28 144.622 545.995 145.145 542.925 146.19C543.056 147.43 543.154 148.932 543.219 150.696C543.284 152.393 543.317 154.385 543.317 156.671C543.252 156.801 543.219 157.454 543.219 158.63C543.219 159.218 543.219 159.936 543.219 160.785C543.219 161.568 543.252 162.483 543.317 163.528C543.905 163.462 544.558 163.332 545.276 163.136C546.06 162.94 546.778 162.744 547.431 162.548C548.084 162.287 548.639 162.058 549.096 161.862C549.554 161.666 549.782 161.568 549.782 161.568C554.484 160.458 557.455 158.271 558.696 155.006ZM631.909 167.74C631.06 171.135 628.644 175.053 624.66 179.494C624.138 179.69 623.452 180.082 622.603 180.669C621.819 181.257 620.775 181.878 619.469 182.531C618.228 183.118 616.693 183.641 614.865 184.098C613.036 184.555 610.881 184.783 608.4 184.783C603.437 184.783 599.29 183.477 595.96 180.865C592.629 178.188 590.05 174.009 588.221 168.327C588.156 167.87 588.123 167.413 588.123 166.956C588.123 166.499 588.123 166.009 588.123 165.487C588.123 161.438 588.548 157.879 589.397 154.81C590.246 151.675 591.388 148.965 592.825 146.679C594.262 144.394 595.894 142.467 597.723 140.9C599.617 139.333 601.576 138.06 603.6 137.08C606.93 136.166 610.196 135.709 613.395 135.709C615.681 135.709 617.934 136.296 620.154 137.472C622.375 138.647 624.334 140.312 626.031 142.467C627.795 144.622 629.199 147.267 630.244 150.402C631.354 153.471 631.974 156.965 632.105 160.883L631.909 167.74ZM622.897 167.446C623.354 164.768 623.583 162.679 623.583 161.177C623.583 158.695 623.223 156.41 622.505 154.32C621.787 152.23 620.938 150.434 619.958 148.932C618.979 147.365 617.934 146.157 616.824 145.308C615.779 144.394 614.897 143.937 614.179 143.937C610.718 143.937 607.877 144.72 605.657 146.288C603.502 147.79 601.804 149.618 600.563 151.773C599.323 153.928 598.474 156.181 598.017 158.532C597.56 160.883 597.331 162.874 597.331 164.507C597.331 166.009 597.56 167.478 598.017 168.915C598.539 170.286 599.257 171.527 600.172 172.637C601.151 173.682 602.294 174.531 603.6 175.184C604.906 175.837 606.408 176.164 608.106 176.164C612.089 176.164 615.224 175.445 617.51 174.009C619.795 172.507 621.591 170.319 622.897 167.446Z" fill="white"/>
</svg>
