<svg width="822" height="326" viewBox="0 0 822 326" fill="none" xmlns="http://www.w3.org/2000/svg">
<path d="M191.455 132.032C186.881 135.07 178.985 131.511 167.767 121.355C156.549 111.199 157.569 103.89 170.828 99.429C184.087 94.9674 197.652 91.289 211.521 88.3937C225.391 85.4984 238.14 83.0527 249.767 81.0566C261.395 79.0606 260.93 87.0214 248.374 104.939C235.817 122.857 237.021 137.685 251.987 149.424C266.952 161.164 270.359 172.585 262.206 183.687C254.054 194.79 243.456 204.356 230.412 212.386C217.368 220.416 208.009 214.301 202.334 194.04C196.659 173.779 188.315 161.502 177.301 157.209C166.287 152.916 168.128 146.892 182.824 139.136C197.519 131.381 210.578 124.33 221.999 117.985C233.42 111.639 244.414 105.417 254.98 99.3195C265.547 93.2219 277.693 86.4422 291.42 78.9804C305.147 71.5186 317.482 65.4762 328.427 60.8533C339.372 56.2304 353.446 53.6422 370.648 53.0888C387.85 52.5354 400.994 60.4044 410.081 76.6956C419.168 92.9868 421.628 106.714 417.461 117.876C413.295 129.038 406.929 138.952 398.364 147.62C389.799 156.287 380.87 165.162 371.577 174.244C362.283 183.326 352.408 192.609 341.95 202.091C331.492 211.574 321.703 209.818 312.582 196.822C303.46 183.826 303.753 171.904 313.459 161.055C323.165 150.206 334.52 142.182 347.524 136.981C360.528 131.78 373.053 126.617 385.099 121.492C397.145 116.367 408.673 111.454 419.681 106.753C430.689 102.051 441.717 96.6904 452.766 90.6702C463.814 84.6501 481.19 86.7218 504.896 96.8855C528.601 107.049 538.993 119.256 536.071 133.505C533.149 147.754 527.041 159.74 517.748 169.463C508.454 179.186 497.684 189.68 485.437 200.944C473.19 212.209 462.575 221.756 453.591 229.586C444.608 237.417 437.451 232.436 432.12 214.644C426.789 196.853 418.755 185.34 408.016 180.106C397.278 174.872 399.841 168.015 415.707 159.535C431.572 151.054 444.889 143.578 455.656 137.107C466.423 130.636 476.918 124.071 487.141 117.413C497.363 110.755 509.183 103.2 522.599 94.7489C536.016 86.2973 548.438 78.9269 559.865 72.6376C571.291 66.3483 587.653 60.8163 607.505 63.4951C627.356 66.174 639.245 79.964 644.615 97.4116C649.986 114.859 648.867 129.834 641.26 142.335C633.653 154.837 625.102 167.462 615.608 180.21C606.114 192.958 597.339 204.093 589.285 213.615C581.23 223.136 570.77 218.551 557.903 199.859C545.037 181.168 542.68 166.862 550.832 156.943C558.985 147.024 569.239 138.18 581.594 130.411C593.95 122.642 584.866 92.8569 597.079 86.8199C609.291 80.7829 630.385 74.4108 652.254 76.6956C674.123 78.9804 693.339 96.8855 696.377 115.809C699.416 134.732 733.433 142.266 727.655 155.119C721.877 167.973 728.801 171.133 720.436 183.918C712.072 196.704 705.758 206.011 701.494 211.839C697.23 217.667 693.393 222.489 689.984 226.306C686.575 230.123 682.48 233.269 677.7 235.743C672.92 238.217 668.033 239.89 663.041 240.761C658.049 241.632 652.888 241.656 647.557 240.834C642.226 240.013 637.323 238.387 632.847 235.957C628.371 233.527 624.242 230.42 620.46 226.637C616.677 222.854 613.753 218.593 611.685 213.853C609.618 209.113 608.224 204.143 607.505 198.942C606.785 193.74 607.043 188.581 608.279 183.465C609.515 178.348 611.39 173.54 613.905 169.042C616.419 164.544 619.757 160.592 623.918 157.185C628.079 153.778 632.483 151.094 637.131 149.134C641.779 147.174 646.82 146.04 652.254 145.732C657.688 145.424 662.832 145.959 667.687 147.336C672.541 148.713 677.238 150.86 681.777 153.777C686.317 156.694 690.067 160.229 693.029 164.381C695.991 168.533 698.434 173.086 700.358 178.038C702.283 182.99 703.143 188.084 702.939 193.318C702.735 198.553 701.927 203.654 700.513 208.622C699.1 213.589 696.708 218.164 693.339 222.345C689.97 226.527 686.236 230.096 682.139 233.053C678.041 236.011 673.361 238.201 668.1 239.624C662.838 241.048 657.711 241.63 652.719 241.37C647.726 241.111 642.668 240.023 637.544 238.108C632.42 236.193 627.981 233.55 624.228 230.18C620.474 226.809 617.119 222.887 614.163 218.415C611.206 213.942 609.262 209.153 608.33 204.045C607.399 198.938 607.106 193.782 607.453 188.576C607.8 183.371 609.159 178.387 611.531 173.627C613.902 168.866 614.986 166.488 614.782 166.492C614.578 166.497 619.671 158.966 630.06 143.899C640.449 128.832 649.395 116.311 656.899 106.337C664.403 96.3621 665.556 97.679 660.357 110.287C655.159 122.895 658.359 138.381 669.958 156.745C681.556 175.109 680.92 187.49 668.048 193.889C655.176 200.287 643.15 206.926 631.97 213.806C620.789 220.685 609.796 227.355 598.988 233.816C588.181 240.278 576.396 246.399 563.633 252.18C550.869 257.961 538.241 261.209 525.748 261.923C513.254 262.638 504.583 248.766 499.734 220.308C494.885 191.851 496.864 172.944 505.67 163.588C514.476 154.231 522.717 144.414 530.393 134.135C538.069 123.856 545.829 113.17 553.671 102.077C561.514 90.9839 568.396 93.2257 574.317 108.803C580.238 124.379 588.324 135.306 598.575 141.582C608.827 147.858 608.328 154.047 597.079 160.148C585.829 166.25 573.562 173.794 560.278 182.78C546.993 191.767 534.52 200.069 522.857 207.688C511.195 215.307 499.599 222.799 488.07 230.166C476.54 237.532 463.481 244.869 448.894 252.176C434.308 259.483 421.043 264.329 409.1 266.716C397.157 269.102 384.684 267.573 371.68 262.129C358.676 256.684 354.22 241.27 358.312 215.886C362.404 190.502 369.2 173.858 378.699 165.953C388.199 158.049 397.989 149.467 408.068 140.208C418.147 130.949 428.177 121.284 438.159 111.213C448.14 101.143 451.96 103.016 449.617 116.832C447.274 130.648 456.1 143.411 476.095 155.119C496.09 166.828 500.735 175.381 490.031 180.778C479.327 186.175 468.213 191.231 456.688 195.946C445.164 200.662 433.602 205.566 422.004 210.661C410.405 215.755 397.742 221.1 384.016 226.696C370.289 232.292 355.923 238.067 340.918 244.021C325.913 249.974 311.667 254.589 298.181 257.866C284.696 261.143 272.033 260.709 260.193 256.566C248.354 252.422 239.287 241.472 232.993 223.714C226.699 205.956 226.268 191.685 231.702 180.902C237.136 170.118 244.483 160.438 253.742 151.864C263.001 143.289 273.1 134.043 284.039 124.126C294.979 114.208 306.179 106.749 317.64 101.747C329.101 96.7458 338.116 103.966 344.686 123.407C351.255 142.848 348.537 155.797 336.531 162.253C324.525 168.709 313.324 175.179 302.93 181.663C292.535 188.147 281.387 194.884 269.484 201.876C257.581 208.867 243.817 216.629 228.193 225.16C212.568 233.692 198.753 239.746 186.747 243.323C174.74 246.9 162.199 246.573 149.123 242.343C136.047 238.113 127.002 227.299 121.988 209.902C116.974 192.506 118.659 178.819 127.044 168.842C135.429 158.865 144.533 150.797 154.358 144.64C164.182 138.482 175.391 131.543 187.985 123.823C200.579 116.103 213.001 108.233 225.251 100.214C237.5 92.1952 250.008 87.5695 262.774 86.3371C275.54 85.1047 289.287 90.3719 304.014 102.139C318.741 113.905 318.294 129.005 302.672 147.438C287.05 165.87 273.166 175.987 261.019 177.787C248.873 179.587 236.829 181.719 224.889 184.182C212.949 186.646 200.287 189.216 186.901 191.893C173.516 194.569 160.791 195.959 148.726 196.062C136.66 196.164 125.347 192.393 114.785 184.75C93.6959 169.487 87.4147 148.406 99.1758 123.823C109.94 101.323 137.749 80.9753 161.035 72.0252C184.446 63.0274 207.885 67.9208 217.944 89.9056C220.438 95.3562 221.522 95.3943 221.196 101.279C220.87 107.163 216.322 101.555 214.308 106.97C212.295 112.386 209.043 117.159 204.553 121.288C200.064 125.417 197.982 127.48 198.308 127.477C198.634 127.475 196.346 128.993 191.443 132.032H191.455Z" fill="#F6B611"/>
<path d="M149.737 115.407C179.945 92.9144 204.807 77.3962 229.225 71.1804C268.166 61.2676 306.569 64.1893 322.13 115.407C320.503 130.62 317.908 145.18 314.346 159.087C310.783 172.994 305.716 173.624 299.146 160.977C292.576 148.33 296.676 140.74 311.443 138.207C326.21 135.674 340.252 131.229 353.577 124.872C366.901 118.515 379.385 111.282 391.021 103.173C402.658 95.0633 410.829 88.9934 415.545 84.9631C420.261 80.9327 424.382 77.5298 427.904 74.7545C431.426 71.9792 435.445 69.6936 439.954 67.8977C444.464 66.1019 448.931 64.846 453.36 64.1301C457.788 63.4143 462.407 63.2612 467.205 63.6711C472.003 64.0809 476.531 65.0396 480.795 66.5471C485.058 68.0546 489.22 70.069 493.277 72.5902C497.333 75.1114 500.915 78.0647 504.026 81.45C507.136 84.8354 509.873 88.5558 512.241 92.6113C514.609 96.6668 516.4 100.938 517.616 105.425C518.831 109.912 519.533 114.487 519.718 119.148C519.903 123.809 519.507 128.419 518.539 132.98C517.572 137.541 516.075 141.921 514.036 146.119C511.996 150.318 509.483 154.212 506.497 157.802C503.511 161.391 503.96 156.434 507.852 142.929C511.744 129.424 519.883 118.312 532.261 109.592C544.639 100.872 554.627 92.5023 570.691 84.6004C587.38 76.3914 602.247 70.5479 621.084 76.9763C636.156 82.12 647.281 93.4525 647.281 109.872C654.469 110.602 661.285 101.231 667.566 99.8302C673.847 98.4297 680.094 98.052 686.293 98.697C692.493 99.3421 698.527 100.975 704.396 103.596C710.265 106.217 715.454 109.69 719.965 114.015C724.475 118.339 728.282 123.288 731.391 128.861C734.5 134.434 736.536 140.341 737.504 146.582C738.473 152.822 738.502 159.069 737.575 165.321C736.648 171.573 734.685 177.505 731.699 183.117C728.713 188.729 724.968 193.725 720.457 198.106C711.454 206.851 699.483 212.394 687.032 213.845C680.833 214.568 674.595 214.268 668.314 212.947C662.033 211.627 656.203 209.351 650.827 206.12C645.451 202.889 640.669 198.874 636.489 194.077C632.309 189.279 627.712 138.847 625.384 132.98C615.089 107.032 647.112 98.6015 680.048 98.3974C686.494 98.3574 692.65 99.3301 698.52 101.315C704.39 103.301 709.935 106.193 715.145 109.992C720.355 113.791 724.679 118.299 728.119 123.518C731.559 128.736 734.214 134.389 736.088 140.477C737.962 146.565 738.684 152.771 738.252 159.094C737.82 165.417 736.498 171.526 734.294 177.42C732.09 183.314 728.924 188.686 724.785 193.535C720.646 198.384 715.905 202.457 710.571 205.753C681.602 223.655 636.917 239.345 608.251 217.343C596.245 208.129 587.473 196.734 581.933 183.16C576.393 169.586 583.332 165.994 602.753 172.385C622.175 178.776 625.838 186.177 613.749 194.59C601.659 203.002 587.698 212.608 571.861 223.407C556.024 234.206 540.741 243.639 526.016 251.707C511.29 259.775 493.788 264.869 473.503 266.989C453.218 269.109 436.245 267.103 422.591 260.972C408.936 254.84 398.231 244.077 390.467 228.682C382.704 213.287 379.815 197.615 381.812 181.664C383.809 165.714 387.045 151.096 391.514 137.809C395.984 124.523 402.262 111.386 410.355 98.3974C418.449 85.4091 424.299 77.5282 427.904 74.7545C431.508 71.9808 435.527 69.6952 439.954 67.8977C444.382 66.1002 448.849 64.8444 453.36 64.1301C457.87 63.4159 462.489 63.2629 467.205 63.6711C471.921 64.0793 476.449 65.0379 480.795 66.5471C485.141 68.0563 489.302 70.0707 493.277 72.5902C497.251 75.1098 500.833 78.063 504.026 81.45C507.218 84.837 509.956 88.5575 512.241 92.6113C514.527 96.6652 516.318 100.936 517.616 105.425C518.913 109.914 519.615 114.488 519.718 119.148C519.82 123.807 519.424 128.418 518.539 132.98C517.654 137.543 516.157 141.923 514.036 146.119C511.914 150.316 509.401 154.21 506.497 157.802C503.594 161.393 499.249 165.653 493.461 170.582C487.674 175.51 477.947 182.837 464.293 192.562C450.639 202.287 435.61 211.601 419.196 220.505C402.781 229.409 386.535 210.282 371.934 216.13C357.333 221.979 346.194 227.59 318.638 235.47C286.604 244.63 238.718 251.495 214.501 220.706C201.835 204.602 195.699 188.954 196.09 173.761C196.482 158.568 198.854 158.148 204.517 144.828C210.18 131.508 215.288 131.617 219.84 145.157C224.392 158.696 219.821 155.027 204.807 161.824C189.793 168.621 248.536 192.316 231.257 202.002C213.979 211.689 195.248 220.381 180.935 228.238C166.621 236.096 151.297 238.506 134.966 235.47C118.635 232.433 105.997 223.796 97.0458 209.559C78.7489 167.864 115.789 140.684 149.737 115.407Z" fill="#E7516C"/>
<ellipse cx="372.99" cy="141.637" rx="64.33" ry="57.6406" fill="#E7516C"/>
<ellipse cx="213.314" cy="160.434" rx="64.33" ry="57.6406" fill="#E7516C"/>
<path d="M223.647 176.715C225.541 177.107 226.488 178.576 226.488 181.123C226.488 182.495 226.162 183.572 225.509 184.356C224.855 185.139 224.007 185.531 222.962 185.531C222.635 185.531 222.015 185.499 221.101 185.433C220.186 185.303 219.207 185.205 218.162 185.139C217.117 185.009 216.105 184.911 215.125 184.846C214.146 184.715 213.46 184.65 213.068 184.65C212.677 184.65 212.317 184.65 211.991 184.65C211.664 184.65 211.338 184.682 211.011 184.748C209.901 184.682 208.595 184.552 207.093 184.356C205.657 184.095 204.22 183.833 202.783 183.572C201.412 183.246 200.171 182.919 199.061 182.593C198.016 182.266 197.396 181.972 197.2 181.711C196.547 179.752 196.22 177.14 196.22 173.875C196.22 173.352 196.22 172.83 196.22 172.307C196.22 171.72 196.253 171.132 196.318 170.544L196.906 163.59C196.971 163.067 197.004 162.577 197.004 162.12C197.004 161.598 197.004 161.141 197.004 160.749C197.004 160.226 197.004 159.802 197.004 159.475C197.004 159.084 196.939 158.724 196.808 158.398C197.265 155.916 197.592 153.859 197.788 152.227C197.983 150.529 198.081 149.223 198.081 148.309V147.525C198.081 146.611 198.473 143.705 199.257 138.807C200.236 136.718 201.738 135.673 203.763 135.673C205.004 135.673 206.048 136.162 206.897 137.142C207.746 138.056 208.171 139.33 208.171 140.962C207.909 141.876 207.648 143.019 207.387 144.391C207.191 145.762 206.995 147.394 206.799 149.288V150.072C206.799 150.66 206.734 151.574 206.603 152.815C206.538 153.99 206.44 155.231 206.31 156.537C206.179 157.778 206.048 158.92 205.918 159.965C205.852 160.945 205.82 161.5 205.82 161.63C205.82 162.349 205.852 162.806 205.918 163.002C205.657 165.745 205.461 168.03 205.33 169.859C205.199 171.687 205.134 173.091 205.134 174.071C205.134 174.724 205.167 175.148 205.232 175.344C208.628 175.736 210.881 175.932 211.991 175.932C212.513 175.932 213.036 175.932 213.558 175.932C214.146 175.866 214.734 175.834 215.321 175.834C217.803 175.834 220.578 176.128 223.647 176.715ZM289.694 189.645C289.433 190.886 288.225 191.506 286.07 191.506C284.307 191.506 283.033 191.115 282.25 190.331C281.923 189.221 281.466 187.882 280.878 186.315C280.291 184.682 279.605 182.821 278.821 180.731C278.43 178.185 278.038 176.389 277.646 175.344C277.319 174.299 276.895 173.516 276.373 172.993C275.393 173.058 273.989 173.189 272.161 173.385C270.332 173.516 268.406 173.711 266.381 173.973C264.357 174.169 262.463 174.462 260.7 174.854C258.937 175.181 257.663 175.54 256.88 175.932C256.553 177.564 256.161 179.36 255.704 181.319C255.247 183.278 254.692 185.368 254.039 187.588C253.843 188.241 253.386 188.698 252.668 188.96C251.949 189.286 251.068 189.449 250.023 189.449C248.978 189.449 248.064 189.253 247.28 188.862C246.562 188.535 246.203 188.013 246.203 187.294C246.203 185.988 246.986 182.103 248.554 175.638C248.488 175.377 248.456 174.985 248.456 174.462C248.456 173.613 248.554 172.569 248.75 171.328C249.011 170.022 249.272 168.781 249.533 167.606C249.794 166.43 250.023 165.418 250.219 164.569C250.48 163.72 250.611 163.263 250.611 163.198L253.745 154.48C253.876 153.631 254.202 152.488 254.725 151.051C255.313 149.615 255.933 148.145 256.586 146.644C257.239 145.142 257.859 143.738 258.447 142.431C259.035 141.06 259.427 140.015 259.622 139.297C260.21 137.142 261.777 136.064 264.324 136.064C266.414 136.064 267.753 136.848 268.34 138.415C268.34 138.415 268.536 138.775 268.928 139.493C269.32 140.211 269.842 141.125 270.495 142.236C271.148 143.346 271.834 144.586 272.552 145.958C273.336 147.264 274.054 148.537 274.707 149.778C275.36 150.953 275.915 152.031 276.373 153.011C276.83 153.925 277.091 154.545 277.156 154.872C277.679 156.112 278.332 157.549 279.115 159.182C279.899 160.749 280.846 162.512 281.956 164.471C282.609 165.32 283.197 166.463 283.719 167.9C284.307 169.271 284.829 170.675 285.286 172.112C285.743 173.548 286.135 174.854 286.462 176.03C286.788 177.205 287.082 177.989 287.343 178.381C287.343 178.838 287.474 179.556 287.735 180.536C288.062 181.45 288.356 182.429 288.617 183.474C288.943 184.519 289.237 185.499 289.498 186.413C289.76 187.327 289.89 187.98 289.89 188.372C289.89 188.698 289.825 189.123 289.694 189.645ZM272.552 164.961C272.03 163.394 271.54 162.055 271.083 160.945C270.691 159.835 270.201 158.724 269.614 157.614C269.091 156.504 268.471 155.263 267.753 153.892C267.034 152.455 266.12 150.627 265.01 148.407C263.508 151.149 262.43 154.317 261.777 157.908C260.406 160.586 259.427 163.426 258.839 166.43C260.863 165.842 262.496 165.549 263.737 165.549C264.194 165.549 264.52 165.581 264.716 165.647C265.826 165.385 267.165 165.255 268.732 165.255C270.299 165.255 271.573 165.157 272.552 164.961ZM346.129 185.629C345.998 185.694 345.639 185.727 345.051 185.727C344.921 185.727 344.268 185.694 343.092 185.629C341.917 185.499 340.578 185.368 339.076 185.237C337.639 185.107 336.203 185.009 334.766 184.943C333.329 184.813 332.252 184.748 331.534 184.748H329.672C328.366 184.748 326.342 184.65 323.599 184.454C320.857 184.192 318.147 183.899 315.469 183.572C314.686 183.572 313.869 183.442 313.02 183.18C312.171 182.854 311.355 182.462 310.571 182.005C309.788 181.482 309.102 180.895 308.514 180.242C307.992 179.523 307.633 178.772 307.437 177.989C307.829 176.748 309.07 174.854 311.159 172.307L317.33 164.667C317.722 164.21 318.506 163.263 319.681 161.826C320.922 160.324 322.293 158.659 323.795 156.831C325.297 155.002 326.832 153.174 328.399 151.345C329.966 149.517 331.305 148.015 332.415 146.839H331.24C330.521 146.709 329.934 146.676 329.477 146.741C329.019 146.741 328.53 146.741 328.007 146.741C327.224 146.676 326.375 146.709 325.46 146.839C324.612 146.905 323.632 146.97 322.522 147.035L314.588 147.623C312.694 146.709 311.747 145.076 311.747 142.725C311.747 142.072 311.91 141.452 312.237 140.864C312.629 140.277 313.379 139.754 314.49 139.297C315.665 138.84 317.33 138.481 319.485 138.219C321.64 137.958 324.546 137.828 328.203 137.828C330.293 137.828 332.578 137.991 335.06 138.317C337.607 138.579 340.349 139.068 343.288 139.787C344.072 140.897 344.464 142.366 344.464 144.195C344.464 146.023 343.908 147.297 342.798 148.015C341.623 149.386 340.513 150.66 339.468 151.835C338.488 152.945 337.346 154.251 336.039 155.753C334.799 157.255 333.297 159.084 331.534 161.239C329.836 163.394 327.681 166.169 325.069 169.565C324.742 170.152 323.273 172.046 320.661 175.246C323.73 175.964 326.342 176.324 328.497 176.324C329.019 176.324 329.444 176.324 329.77 176.324C330.162 176.258 330.619 176.226 331.142 176.226C331.73 176.226 332.644 176.258 333.885 176.324C335.125 176.389 336.399 176.454 337.705 176.519C339.076 176.585 340.284 176.65 341.329 176.715C342.439 176.781 343.092 176.813 343.288 176.813C344.268 176.813 344.953 176.748 345.345 176.617C347.565 177.075 348.676 178.544 348.676 181.025C348.676 183.507 347.827 185.041 346.129 185.629ZM410.263 141.55C409.741 142.856 409.284 143.868 408.892 144.586C408.5 145.24 408.043 145.893 407.521 146.546C406.998 147.133 406.28 147.884 405.366 148.798C404.517 149.647 403.309 150.888 401.741 152.521C400.435 153.892 399.358 155.035 398.509 155.949C397.725 156.798 396.942 157.582 396.158 158.3C395.44 159.018 394.656 159.802 393.807 160.651C392.958 161.435 391.881 162.447 390.575 163.687C390.575 164.602 390.542 165.712 390.477 167.018C390.411 168.324 390.379 169.826 390.379 171.524C390.379 172.112 390.411 172.83 390.477 173.679C390.542 174.462 390.607 175.246 390.672 176.03C390.803 176.813 390.901 177.564 390.966 178.283C391.032 178.936 391.064 179.458 391.064 179.85V182.593C391.064 185.009 391.195 186.968 391.456 188.47C390.934 190.429 389.399 191.408 386.852 191.408C385.742 191.408 384.861 191.082 384.208 190.429C383.62 189.776 383.163 188.927 382.836 187.882C382.51 186.772 382.281 185.531 382.15 184.16C382.085 182.723 382.053 181.221 382.053 179.654C382.053 179.132 382.053 178.674 382.053 178.283C382.118 177.891 382.183 177.532 382.248 177.205C382.118 174.397 381.987 172.046 381.857 170.152C381.791 168.259 381.759 166.822 381.759 165.842V164.765C380.779 163.72 379.538 162.349 378.036 160.651C376.534 158.953 374.771 156.961 372.747 154.676C372.42 154.023 371.898 153.206 371.18 152.227C370.461 151.247 369.71 150.3 368.927 149.386C368.208 148.407 367.555 147.525 366.968 146.741C366.445 145.893 366.184 145.272 366.184 144.88C366.184 143.77 366.641 142.693 367.555 141.648C368.535 140.603 369.678 140.081 370.984 140.081C371.571 140.081 372.029 140.179 372.355 140.374C372.747 140.505 373.106 140.766 373.433 141.158C373.824 141.485 374.216 141.974 374.608 142.627C375.065 143.215 375.653 143.966 376.371 144.88C377.09 145.795 377.677 146.611 378.134 147.329C378.657 148.048 379.081 148.668 379.408 149.19C379.604 149.386 379.996 149.811 380.583 150.464C381.236 151.117 381.922 151.835 382.64 152.619C383.359 153.337 384.012 154.023 384.599 154.676C385.252 155.329 385.709 155.753 385.971 155.949C386.689 155.296 387.603 154.512 388.713 153.598C389.824 152.684 391.13 151.607 392.632 150.366C392.893 149.843 393.546 148.831 394.591 147.329C395.635 145.827 396.811 144.26 398.117 142.627C399.488 140.93 400.827 139.395 402.133 138.024C403.439 136.587 404.484 135.673 405.268 135.281C405.725 135.477 406.247 135.803 406.835 136.26C407.423 136.652 407.978 137.142 408.5 137.73C409.023 138.252 409.447 138.807 409.773 139.395C410.1 139.983 410.263 140.538 410.263 141.06V141.55ZM467.494 185.237C467.494 186.413 466.971 187.523 465.926 188.568C464.881 189.547 463.837 190.037 462.792 190.037C462.269 190.037 461.845 189.874 461.518 189.547C461.453 189.547 461.159 189.221 460.637 188.568C460.114 187.915 459.494 187.098 458.776 186.119C458.057 185.139 457.274 184.095 456.425 182.984C455.576 181.874 454.792 180.829 454.074 179.85C453.356 178.87 452.768 178.087 452.311 177.499C451.919 176.846 451.756 176.552 451.821 176.617C451.69 176.226 451.364 175.605 450.841 174.756C450.319 173.907 449.731 173.026 449.078 172.112C448.491 171.132 447.935 170.25 447.413 169.467C446.891 168.618 446.597 168.095 446.531 167.9C446.401 167.9 446.042 167.965 445.454 168.095C444.866 168.161 444.213 168.259 443.495 168.389C442.777 168.455 442.026 168.553 441.242 168.683C440.524 168.748 439.969 168.781 439.577 168.781H439.087C438.891 170.805 438.728 172.471 438.597 173.777C438.467 175.083 438.401 176.062 438.401 176.715V179.752C438.401 183.278 438.107 187.098 437.52 191.213C436.736 192.388 435.593 192.976 434.091 192.976C432.785 192.976 431.642 192.617 430.663 191.898C429.749 191.245 429.292 190.07 429.292 188.372C429.292 187.849 429.292 187.229 429.292 186.511C429.357 185.727 429.39 184.943 429.39 184.16C429.455 183.376 429.487 182.691 429.487 182.103C429.553 181.45 429.585 181.025 429.585 180.829V180.34L430.271 165.549C430.336 164.7 430.336 163.655 430.271 162.414C430.271 161.173 430.336 159.737 430.467 158.104L431.251 152.227C431.642 150.203 431.838 148.472 431.838 147.035C431.838 146.578 431.806 146.154 431.74 145.762C431.74 145.305 431.708 144.848 431.642 144.391C431.642 144.391 431.74 143.248 431.936 140.962C432.002 139.395 432.295 138.122 432.818 137.142C433.34 136.162 434.581 135.673 436.54 135.673C437.911 135.673 439.283 135.901 440.654 136.358C441.96 136.228 443.103 136.162 444.083 136.162C445.127 136.162 446.009 136.162 446.727 136.162C447.38 136.162 447.968 136.195 448.491 136.26C449.013 136.26 449.535 136.326 450.058 136.456C450.58 136.522 451.168 136.652 451.821 136.848C452.474 136.979 453.258 137.175 454.172 137.436L458.482 140.374C460.898 142.268 462.498 144.162 463.282 146.056C464.13 147.95 464.555 149.941 464.555 152.031C464.555 153.468 464.49 154.708 464.359 155.753C464.294 156.733 463.967 157.712 463.379 158.692C462.792 159.671 461.878 160.684 460.637 161.728C459.396 162.773 457.633 164.079 455.347 165.647C456.849 167.54 458.547 170.348 460.441 174.071C461.616 174.985 463.967 178.707 467.494 185.237ZM455.445 153.99C455.511 153.729 455.543 153.37 455.543 152.913C455.543 152.26 455.478 151.607 455.347 150.953C455.217 150.235 454.923 149.549 454.466 148.896C454.009 148.178 453.323 147.492 452.409 146.839C451.56 146.121 450.352 145.435 448.784 144.782C447.413 144.26 446.27 143.999 445.356 143.999C445.095 144.064 444.736 144.129 444.278 144.195C443.887 144.325 443.397 144.456 442.809 144.586C442.221 144.652 441.568 144.75 440.85 144.88C440.915 145.272 440.948 145.664 440.948 146.056C440.948 146.382 440.883 147.035 440.752 148.015C440.687 148.994 440.556 150.398 440.36 152.227C440.164 154.055 439.936 156.602 439.675 159.867C439.936 159.933 440.197 159.965 440.458 159.965C440.72 159.965 440.981 159.965 441.242 159.965C442.483 159.965 443.854 159.802 445.356 159.475C446.923 159.084 448.393 158.627 449.764 158.104C451.135 157.516 452.343 156.863 453.388 156.145C454.433 155.427 455.119 154.708 455.445 153.99ZM523.297 181.907C525.452 183.017 526.53 184.617 526.53 186.707C526.53 188.078 526.171 189.058 525.452 189.645C524.799 190.233 523.82 190.625 522.514 190.821C521.273 191.082 519.706 191.213 517.812 191.213C515.918 191.278 513.796 191.376 511.445 191.506C510.661 191.245 507.788 190.984 502.825 190.723C502.107 190.788 501.421 190.821 500.768 190.821C500.115 190.886 499.495 190.919 498.907 190.919C495.381 190.919 492.964 190.396 491.658 189.351C491.332 186.739 491.071 184.323 490.875 182.103C490.744 179.883 490.679 177.858 490.679 176.03C490.679 173.156 490.777 170.675 490.973 168.585C491.234 166.43 491.364 164.504 491.364 162.806C491.364 160.716 491.266 159.084 491.071 157.908L491.658 147.623C491.92 145.142 492.213 143.019 492.54 141.256C492.932 139.493 493.389 138.154 493.911 137.24C494.303 136.718 496.262 136.064 499.788 135.281L506.058 133.91C506.449 133.844 507.266 133.746 508.506 133.616C509.747 133.485 511.021 133.354 512.327 133.224C513.698 133.093 514.906 132.995 515.951 132.93C516.996 132.865 517.485 132.832 517.42 132.832H517.812C518.53 132.832 519.249 133.322 519.967 134.301C520.751 135.281 521.142 136.424 521.142 137.73C521.142 138.383 521.11 138.97 521.044 139.493C521.044 140.015 520.849 140.472 520.457 140.864C520.065 141.191 519.412 141.452 518.498 141.648C517.583 141.844 516.245 141.974 514.482 142.04C511.608 142.17 509.649 142.464 508.604 142.921H508.115C506.417 142.921 504.294 143.313 501.748 144.097C501.486 144.423 501.29 145.011 501.16 145.86C501.029 146.644 500.931 147.492 500.866 148.407C500.801 149.256 500.735 150.007 500.67 150.66C500.67 151.247 500.67 151.443 500.67 151.247C500.605 151.574 500.539 151.9 500.474 152.227C500.474 152.553 500.474 152.978 500.474 153.5C500.474 153.957 500.474 154.48 500.474 155.068C500.539 155.59 500.605 156.178 500.67 156.831C502.694 156.635 504.327 156.439 505.568 156.243C506.874 155.982 507.886 155.851 508.604 155.851C509.976 155.851 511.314 155.819 512.62 155.753C513.926 155.688 515.069 155.786 516.049 156.047C517.094 156.243 517.91 156.7 518.498 157.418C519.085 158.071 519.379 159.149 519.379 160.651C519.379 162.349 518.824 163.459 517.714 163.981C516.669 164.504 514.808 164.798 512.131 164.863C508.996 164.994 507.102 165.124 506.449 165.255C506.058 165.255 505.633 165.255 505.176 165.255C504.784 165.189 504.327 165.157 503.805 165.157C503.478 165.157 503.086 165.157 502.629 165.157C502.237 165.091 501.846 165.091 501.454 165.157C501.062 165.157 500.703 165.287 500.376 165.549C500.115 165.745 499.984 166.136 499.984 166.724C499.984 167.116 499.984 167.638 499.984 168.291C500.05 168.879 500.082 169.434 500.082 169.957C500.082 170.74 500.05 171.524 499.984 172.307C499.984 173.091 499.952 173.94 499.886 174.854C499.886 175.703 499.854 176.683 499.788 177.793C499.788 178.903 499.788 180.209 499.788 181.711C500.18 181.776 500.931 181.842 502.041 181.907C503.217 181.972 504.425 182.038 505.666 182.103C506.972 182.168 508.213 182.266 509.388 182.397C510.563 182.462 511.347 182.527 511.739 182.593C511.804 182.593 512.261 182.56 513.11 182.495C513.959 182.429 515.2 182.331 516.832 182.201C519.053 182.005 520.816 181.907 522.122 181.907H523.297ZM581.89 155.459C581.759 156.635 581.596 157.68 581.4 158.594C581.27 159.508 580.976 160.39 580.519 161.239C580.061 162.022 579.441 162.871 578.657 163.785C577.939 164.634 576.992 165.614 575.817 166.724C572.748 169.597 569.352 171.263 565.63 171.72C564.781 172.046 563.67 172.438 562.299 172.895C560.928 173.287 559.295 173.744 557.401 174.267L557.695 180.634C557.826 181.548 557.924 182.462 557.989 183.376C558.054 184.29 558.087 185.303 558.087 186.413C558.087 187.196 558.087 188.045 558.087 188.96C558.087 189.874 557.956 190.723 557.695 191.506C557.499 192.29 557.075 192.943 556.422 193.465C555.834 193.988 554.953 194.249 553.777 194.249C552.536 194.249 551.622 194.021 551.034 193.563C550.447 193.106 550.055 192.453 549.859 191.604C549.663 190.821 549.532 189.874 549.467 188.764C549.467 187.654 549.369 186.478 549.173 185.237V185.335C549.108 184.486 549.043 183.474 548.977 182.299C548.912 181.254 548.847 179.98 548.781 178.479C548.716 176.911 548.618 175.083 548.488 172.993V172.405C548.488 172.014 548.455 171.491 548.39 170.838C548.39 170.185 548.357 169.499 548.292 168.781C548.226 168.063 548.161 167.442 548.096 166.92C548.096 166.332 548.096 165.94 548.096 165.745C548.096 165.353 548.096 164.667 548.096 163.687C548.161 162.643 548.194 161.532 548.194 160.357C548.259 159.182 548.292 158.071 548.292 157.027C548.357 155.916 548.39 155.068 548.39 154.48C548.39 153.435 548.324 152.488 548.194 151.639C548.128 150.79 548.031 150.007 547.9 149.288C547.9 149.158 547.9 148.733 547.9 148.015C547.965 147.297 548.031 146.513 548.096 145.664C548.161 144.75 548.259 143.868 548.39 143.019C548.52 142.105 548.684 141.354 548.879 140.766C550.643 139.917 552.765 139.493 555.246 139.493H556.03C558.838 138.644 561.45 138.219 563.866 138.219C564.781 138.219 567.36 138.611 571.605 139.395L575.915 141.746C577.09 142.464 578.037 143.215 578.755 143.999C579.539 144.717 580.159 145.599 580.616 146.644C581.074 147.688 581.4 148.929 581.596 150.366C581.792 151.737 581.89 153.435 581.89 155.459ZM572.682 156.831C572.878 155.59 572.976 154.48 572.976 153.5C572.976 151.737 572.258 150.137 570.821 148.701C569.384 147.199 567.034 146.448 563.768 146.448C562.266 146.448 559.981 146.97 556.912 148.015C557.042 149.256 557.14 150.758 557.206 152.521C557.271 154.219 557.303 156.21 557.303 158.496C557.238 158.627 557.206 159.28 557.206 160.455C557.206 161.043 557.206 161.761 557.206 162.61C557.206 163.394 557.238 164.308 557.303 165.353C557.891 165.287 558.544 165.157 559.263 164.961C560.046 164.765 560.765 164.569 561.418 164.373C562.071 164.112 562.626 163.883 563.083 163.687C563.54 163.492 563.768 163.394 563.768 163.394C568.47 162.283 571.441 160.096 572.682 156.831ZM645.895 169.565C645.046 172.96 642.63 176.879 638.646 181.319C638.124 181.515 637.438 181.907 636.589 182.495C635.806 183.082 634.761 183.703 633.455 184.356C632.214 184.943 630.68 185.466 628.851 185.923C627.023 186.38 624.868 186.609 622.386 186.609C617.423 186.609 613.276 185.303 609.946 182.691C606.616 180.013 604.036 175.834 602.208 170.152C602.142 169.695 602.11 169.238 602.11 168.781C602.11 168.324 602.11 167.834 602.11 167.312C602.11 163.263 602.534 159.704 603.383 156.635C604.232 153.5 605.375 150.79 606.811 148.505C608.248 146.219 609.881 144.293 611.709 142.725C613.603 141.158 615.562 139.885 617.586 138.905C620.917 137.991 624.182 137.534 627.382 137.534C629.667 137.534 631.92 138.122 634.141 139.297C636.361 140.472 638.32 142.138 640.018 144.293C641.781 146.448 643.185 149.092 644.23 152.227C645.34 155.296 645.96 158.79 646.091 162.708L645.895 169.565ZM636.883 169.271C637.34 166.593 637.569 164.504 637.569 163.002C637.569 160.52 637.21 158.235 636.491 156.145C635.773 154.055 634.924 152.26 633.945 150.758C632.965 149.19 631.92 147.982 630.81 147.133C629.765 146.219 628.884 145.762 628.165 145.762C624.704 145.762 621.864 146.546 619.643 148.113C617.488 149.615 615.791 151.443 614.55 153.598C613.309 155.753 612.46 158.006 612.003 160.357C611.546 162.708 611.317 164.7 611.317 166.332C611.317 167.834 611.546 169.304 612.003 170.74C612.525 172.112 613.244 173.352 614.158 174.462C615.138 175.507 616.28 176.356 617.586 177.009C618.892 177.662 620.394 177.989 622.092 177.989C626.076 177.989 629.21 177.27 631.496 175.834C633.781 174.332 635.577 172.144 636.883 169.271Z" fill="white"/>
</svg>
