<svg width="1184" height="241" viewBox="0 0 1184 241" fill="none" xmlns="http://www.w3.org/2000/svg">
  <path
    d="M100.616 189.709H157.646C163.12 189.709 167.181 185.825 167.181 180.174C167.181 174.524 163.12 170.64 157.646 170.64H111.21V74.765C111.21 68.9384 106.442 64.3477 100.616 64.3477C94.7892 64.3477 90.1985 68.9384 90.1985 74.765V179.292C90.1985 185.118 94.7892 189.709 100.616 189.709ZM211.304 191.475C215.718 191.475 219.956 188.826 221.369 184.942L230.55 158.633L275.397 158.457L284.579 184.942C285.815 188.826 290.052 191.475 294.467 191.475C302.589 191.475 306.826 183.176 304.354 176.82L264.097 72.6462C261.979 66.8196 258.094 64.3477 252.974 64.3477C247.853 64.3477 243.969 66.8196 241.674 72.6462L201.417 176.82C199.121 182.646 202.829 191.475 211.304 191.475ZM237.083 139.388L252.974 93.834L268.688 139.388H237.083ZM348.824 189.709H420.862C425.983 189.709 430.397 185.471 430.397 180.351C430.397 175.054 425.983 170.817 420.862 170.817H368.069L425.1 85.8886C428.631 80.7682 430.044 77.7666 430.044 75.1181C430.044 69.9977 425.983 66.1133 420.509 66.1133H350.413C345.116 66.1133 340.878 70.3509 340.878 75.4713C340.878 80.7682 345.116 85.0058 350.413 85.0058H401.44L344.233 169.934C340.172 175.76 339.466 177.703 339.466 180.704C339.466 185.471 343.703 189.709 348.824 189.709ZM514.279 191.475C520.106 191.475 524.697 186.884 524.697 181.057V131.619L562.305 80.9448C563.541 79.3557 564.247 77.0604 564.247 74.765C564.247 69.1149 559.833 64.5242 554.006 64.5242C550.475 64.5242 547.473 66.1133 545.708 68.5852L514.456 110.784L485.323 68.9384C483.38 66.2899 480.202 64.5242 476.847 64.5242C471.021 64.5242 466.43 69.1149 466.43 74.765C466.43 77.0604 467.136 79.0026 468.372 80.7682L503.685 131.442V181.057C503.685 186.884 508.453 191.475 514.279 191.475ZM619.701 191.475C625.704 191.475 630.295 186.884 630.295 180.881V138.152H658.369L681.146 185.825C682.911 189.179 686.266 191.475 690.327 191.475C695.977 191.475 700.391 186.884 700.391 181.234C700.391 179.468 700.215 178.056 699.332 176.643L678.674 134.267C690.327 128.441 698.096 117.141 698.096 102.309C698.096 80.7682 681.675 66.1133 659.781 66.1133H619.701C613.698 66.1133 609.107 70.704 609.107 76.7072V180.881C609.107 186.884 613.698 191.475 619.701 191.475ZM630.295 119.083V85.3589H659.075C668.61 85.3589 676.732 91.7153 676.732 102.662C676.732 112.197 670.199 119.083 660.488 119.083H630.295ZM758.735 189.709H817.885C823.358 189.709 827.419 185.825 827.419 180.174C827.419 174.524 823.358 170.64 817.885 170.64H769.329V136.033H809.763C815.236 136.033 819.297 132.149 819.297 126.499C819.297 120.849 815.236 116.788 809.763 116.788H769.329V85.1824H815.766C821.416 85.1824 825.3 81.2979 825.3 75.6478C825.3 69.9977 821.416 66.1133 815.766 66.1133H758.735C752.732 66.1133 748.318 70.5274 748.318 76.5307V179.292C748.318 185.471 752.732 189.709 758.735 189.709ZM884.324 191.475C890.327 191.475 894.918 186.884 894.918 181.057V142.036H926.876C946.828 142.036 963.072 126.499 963.072 103.898C963.072 81.8276 946.652 66.1133 924.228 66.1133H884.324C878.497 66.1133 873.907 70.704 873.907 76.5307V181.057C873.907 186.884 878.497 191.475 884.324 191.475ZM894.918 122.791V85.3589H923.168C934.469 85.3589 941.708 92.7747 941.708 104.251C941.708 115.375 934.469 122.791 923.875 122.791H894.918ZM1052.01 192.357C1083.79 192.357 1104.98 166.756 1104.98 128.088C1104.98 89.773 1083.26 63.4648 1052.54 63.4648C1021.82 63.4648 999.22 89.773 999.22 128.088C999.22 166.756 1020.58 192.357 1052.01 192.357ZM1020.23 128.088C1020.23 101.603 1032.59 82.3573 1052.01 82.3573C1071.79 82.3573 1083.79 101.603 1083.79 128.088C1083.79 155.102 1071.79 173.465 1052.01 173.465C1032.59 173.465 1020.23 155.102 1020.23 128.088Z"
    fill="#52A3BD" />
  <path
    d="M111.21 170.64H104.964V176.886H111.21V170.64ZM100.616 195.955H157.646V183.463H100.616V195.955ZM157.646 195.955C166.492 195.955 173.427 189.351 173.427 180.174H160.935C160.935 182.298 159.748 183.463 157.646 183.463V195.955ZM173.427 180.174C173.427 170.998 166.492 164.394 157.646 164.394V176.886C159.748 176.886 160.935 178.051 160.935 180.174H173.427ZM157.646 164.394H111.21V176.886H157.646V164.394ZM117.456 170.64V74.765H104.964V170.64H117.456ZM117.456 74.765C117.456 65.3527 109.754 58.1018 100.616 58.1018V70.5935C103.131 70.5935 104.964 72.524 104.964 74.765H117.456ZM100.616 58.1018C91.3397 58.1018 83.9526 65.4889 83.9526 74.765H96.4443C96.4443 72.3878 98.2386 70.5935 100.616 70.5935V58.1018ZM83.9526 74.765V179.292H96.4443V74.765H83.9526ZM83.9526 179.292C83.9526 188.568 91.3397 195.955 100.616 195.955V183.463C98.2386 183.463 96.4443 181.669 96.4443 179.292H83.9526ZM221.369 184.942L227.238 187.076L227.252 187.038L227.266 187L221.369 184.942ZM230.55 158.633L230.525 152.388L226.108 152.405L224.653 156.575L230.55 158.633ZM275.397 158.457L281.299 156.411L279.837 152.194L275.373 152.211L275.397 158.457ZM284.579 184.942L290.531 183.048L290.506 182.972L290.48 182.896L284.579 184.942ZM304.354 176.82L298.528 179.071L298.533 179.083L304.354 176.82ZM264.097 72.6462L258.228 74.7807L258.249 74.8394L258.271 74.8976L264.097 72.6462ZM241.674 72.6462L235.862 70.357L235.855 70.3759L235.848 70.3948L241.674 72.6462ZM201.417 176.82L207.228 179.109L207.235 179.09L207.243 179.071L201.417 176.82ZM237.083 139.388L231.186 137.331L228.289 145.634H237.083V139.388ZM252.974 93.834L258.878 91.7973L253.007 74.7768L247.076 91.7769L252.974 93.834ZM268.688 139.388V145.634H277.45L274.592 137.351L268.688 139.388ZM211.304 197.72C217.923 197.72 224.792 193.803 227.238 187.076L215.499 182.807C215.12 183.85 213.513 185.229 211.304 185.229V197.72ZM227.266 187L236.447 160.692L224.653 156.575L215.472 182.884L227.266 187ZM230.574 164.879L275.422 164.703L275.373 152.211L230.525 152.388L230.574 164.879ZM269.496 160.503L278.678 186.987L290.48 182.896L281.299 156.411L269.496 160.503ZM278.627 186.835C280.853 193.832 287.921 197.72 294.467 197.72V185.229C292.184 185.229 290.776 183.82 290.531 183.048L278.627 186.835ZM294.467 197.72C307.682 197.72 313.977 184.332 310.175 174.556L298.533 179.083C299.011 180.312 298.878 181.934 298.064 183.257C297.336 184.44 296.177 185.229 294.467 185.229V197.72ZM310.18 174.568L269.923 70.3948L258.271 74.8976L298.528 179.071L310.18 174.568ZM269.967 70.5118C268.584 66.7083 266.427 63.4794 263.303 61.2376C260.162 58.9837 256.566 58.1018 252.974 58.1018V70.5935C254.502 70.5935 255.408 70.9476 256.02 71.3863C256.648 71.8371 257.492 72.7575 258.228 74.7807L269.967 70.5118ZM252.974 58.1018C249.373 58.1018 245.795 58.9873 242.651 61.2175C239.535 63.4277 237.339 66.6074 235.862 70.357L247.485 74.9355C248.303 72.8584 249.197 71.8888 249.878 71.4063C250.53 70.944 251.454 70.5935 252.974 70.5935V58.1018ZM235.848 70.3948L195.591 174.568L207.243 179.071L247.499 74.8976L235.848 70.3948ZM195.605 174.53C193.691 179.389 194.358 185.043 196.916 189.462C199.607 194.109 204.599 197.72 211.304 197.72V185.229C209.535 185.229 208.435 184.426 207.727 183.203C206.886 181.75 206.847 180.077 207.228 179.109L195.605 174.53ZM242.98 141.445L258.871 95.8912L247.076 91.7769L231.186 137.331L242.98 141.445ZM247.069 95.8708L262.784 141.425L274.592 137.351L258.878 91.7973L247.069 95.8708ZM268.688 133.142H237.083V145.634H268.688V133.142ZM368.069 170.817L362.884 167.335L356.352 177.062H368.069V170.817ZM425.1 85.8886L419.958 82.3427L419.936 82.3745L419.915 82.4067L425.1 85.8886ZM401.44 85.0058L406.62 88.4952L413.178 78.76H401.44V85.0058ZM344.233 169.934L349.357 173.505L349.386 173.464L349.413 173.423L344.233 169.934ZM348.824 195.955H420.862V183.463H348.824V195.955ZM420.862 195.955C429.28 195.955 436.643 189.071 436.643 180.351H424.151C424.151 181.872 422.685 183.463 420.862 183.463V195.955ZM436.643 180.351C436.643 171.53 429.357 164.571 420.862 164.571V177.062C422.609 177.062 424.151 178.578 424.151 180.351H436.643ZM420.862 164.571H368.069V177.062H420.862V164.571ZM373.255 174.298L430.285 89.3706L419.915 82.4067L362.884 167.335L373.255 174.298ZM430.242 89.4346C433.712 84.4023 436.29 79.9302 436.29 75.1181H423.798C423.798 75.2707 423.772 75.7739 423.225 76.959C422.654 78.1961 421.655 79.8822 419.958 82.3427L430.242 89.4346ZM436.29 75.1181C436.29 66.2385 429.114 59.8675 420.509 59.8675V72.3591C422.851 72.3591 423.798 73.757 423.798 75.1181H436.29ZM420.509 59.8675H350.413V72.3591H420.509V59.8675ZM350.413 59.8675C341.743 59.8675 334.633 66.8257 334.633 75.4713H347.124C347.124 73.8761 348.489 72.3591 350.413 72.3591V59.8675ZM334.633 75.4713C334.633 84.2177 341.666 91.2516 350.413 91.2516V78.76C348.565 78.76 347.124 77.3187 347.124 75.4713H334.633ZM350.413 91.2516H401.44V78.76H350.413V91.2516ZM396.26 81.5164L339.053 166.444L349.413 173.423L406.62 88.4952L396.26 81.5164ZM339.109 166.362C337.057 169.306 335.544 171.692 334.59 173.908C333.509 176.418 333.22 178.522 333.22 180.704H345.712C345.712 179.885 345.776 179.516 346.063 178.848C346.478 177.886 347.348 176.388 349.357 173.505L339.109 166.362ZM333.22 180.704C333.22 189.075 340.41 195.955 348.824 195.955V183.463C346.997 183.463 345.712 181.868 345.712 180.704H333.22ZM524.697 131.619L519.681 127.897L518.451 129.555V131.619H524.697ZM562.305 80.9448L557.375 77.1102L557.332 77.1659L557.29 77.2225L562.305 80.9448ZM545.708 68.5852L550.727 72.3024L550.759 72.2592L550.79 72.2155L545.708 68.5852ZM514.456 110.784L509.33 114.353L514.299 121.491L519.475 114.501L514.456 110.784ZM485.323 68.9384L490.448 65.3697L490.405 65.3067L490.359 65.2448L485.323 68.9384ZM468.372 80.7682L473.497 77.1973L473.489 77.1865L468.372 80.7682ZM503.685 131.442H509.931V129.481L508.81 127.872L503.685 131.442ZM514.279 197.72C523.555 197.72 530.942 190.333 530.942 181.057H518.451C518.451 183.434 516.656 185.229 514.279 185.229V197.72ZM530.942 181.057V131.619H518.451V181.057H530.942ZM529.712 135.341L567.32 84.6671L557.29 77.2225L519.681 127.897L529.712 135.341ZM567.235 84.7794C569.467 81.9096 570.493 78.1962 570.493 74.765H558.001C558.001 75.9246 557.615 76.8018 557.375 77.1102L567.235 84.7794ZM570.493 74.765C570.493 65.7362 563.353 58.2784 554.006 58.2784V70.77C556.313 70.77 558.001 72.4936 558.001 74.765H570.493ZM554.006 58.2784C548.568 58.2784 543.626 60.754 540.625 64.9549L550.79 72.2155C551.321 71.4726 552.382 70.77 554.006 70.77V58.2784ZM540.689 64.868L509.437 107.067L519.475 114.501L550.727 72.3024L540.689 64.868ZM519.582 107.216L490.448 65.3697L480.197 72.507L509.33 114.353L519.582 107.216ZM490.359 65.2448C487.345 61.1343 482.362 58.2784 476.847 58.2784V70.77C478.042 70.77 479.416 71.4454 480.286 72.6319L490.359 65.2448ZM476.847 58.2784C467.641 58.2784 460.184 65.596 460.184 74.765H472.676C472.676 72.6339 474.4 70.77 476.847 70.77V58.2784ZM460.184 74.765C460.184 78.4812 461.369 81.6548 463.255 84.35L473.489 77.1865C472.904 76.3504 472.676 75.6395 472.676 74.765H460.184ZM463.248 84.3392L498.561 135.013L508.81 127.872L473.497 77.1973L463.248 84.3392ZM497.439 131.442V181.057H509.931V131.442H497.439ZM497.439 181.057C497.439 190.47 505.141 197.72 514.279 197.72V185.229C511.764 185.229 509.931 183.298 509.931 181.057H497.439ZM630.295 138.152V131.906H624.049V138.152H630.295ZM658.369 138.152L664.004 135.459L662.307 131.906H658.369V138.152ZM681.146 185.825L675.51 188.517L675.562 188.626L675.619 188.734L681.146 185.825ZM699.332 176.643L693.718 179.38L693.862 179.675L694.036 179.953L699.332 176.643ZM678.674 134.267L675.881 128.681L670.35 131.446L673.06 137.004L678.674 134.267ZM630.295 119.083H624.049V125.329H630.295V119.083ZM630.295 85.3589V79.1131H624.049V85.3589H630.295ZM619.701 197.72C629.154 197.72 636.541 190.333 636.541 180.881H624.049C624.049 183.434 622.255 185.229 619.701 185.229V197.72ZM636.541 180.881V138.152H624.049V180.881H636.541ZM630.295 144.398H658.369V131.906H630.295V144.398ZM652.733 140.845L675.51 188.517L686.781 183.132L664.004 135.459L652.733 140.845ZM675.619 188.734C678.364 193.95 683.74 197.72 690.327 197.72V185.229C688.793 185.229 687.459 184.409 686.673 182.916L675.619 188.734ZM690.327 197.72C699.568 197.72 706.637 190.191 706.637 181.234H694.146C694.146 183.577 692.387 185.229 690.327 185.229V197.72ZM706.637 181.234C706.637 179.045 706.435 176.223 704.628 173.333L694.036 179.953C694.053 179.981 694.058 179.983 694.075 180.066C694.106 180.214 694.146 180.525 694.146 181.234H706.637ZM704.946 173.906L684.288 131.531L673.06 137.004L693.718 179.38L704.946 173.906ZM681.467 139.854C695.17 133.003 704.342 119.58 704.342 102.309H691.85C691.85 114.701 685.485 123.879 675.881 128.681L681.467 139.854ZM704.342 102.309C704.342 76.8937 684.684 59.8675 659.781 59.8675V72.3591C678.667 72.3591 691.85 84.6427 691.85 102.309H704.342ZM659.781 59.8675H619.701V72.3591H659.781V59.8675ZM619.701 59.8675C610.248 59.8675 602.861 67.2545 602.861 76.7072H615.353C615.353 74.1535 617.147 72.3591 619.701 72.3591V59.8675ZM602.861 76.7072V180.881H615.353V76.7072H602.861ZM602.861 180.881C602.861 190.333 610.248 197.72 619.701 197.72V185.229C617.147 185.229 615.353 183.434 615.353 180.881H602.861ZM636.541 119.083V85.3589H624.049V119.083H636.541ZM630.295 91.6047H659.075V79.1131H630.295V91.6047ZM659.075 91.6047C662.475 91.6047 665.323 92.7331 667.256 94.507C669.116 96.2142 670.486 98.836 670.486 102.662H682.977C682.977 95.5416 680.287 89.5117 675.702 85.304C671.19 81.1629 665.209 79.1131 659.075 79.1131V91.6047ZM670.486 102.662C670.486 105.979 669.37 108.46 667.784 110.083C666.215 111.689 663.814 112.837 660.488 112.837V125.329C666.873 125.329 672.594 123.034 676.718 118.813C680.826 114.61 682.977 108.88 682.977 102.662H670.486ZM660.488 112.837H630.295V125.329H660.488V112.837ZM769.329 170.64H763.083V176.886H769.329V170.64ZM769.329 136.033V129.787H763.083V136.033H769.329ZM769.329 116.788H763.083V123.033H769.329V116.788ZM769.329 85.1824V78.9365H763.083V85.1824H769.329ZM758.735 195.955H817.885V183.463H758.735V195.955ZM817.885 195.955C826.73 195.955 833.665 189.351 833.665 180.174H821.173C821.173 182.298 819.986 183.463 817.885 183.463V195.955ZM833.665 180.174C833.665 170.998 826.73 164.394 817.885 164.394V176.886C819.986 176.886 821.173 178.051 821.173 180.174H833.665ZM817.885 164.394H769.329V176.886H817.885V164.394ZM775.575 170.64V136.033H763.083V170.64H775.575ZM769.329 142.279H809.763V129.787H769.329V142.279ZM809.763 142.279C818.608 142.279 825.543 135.675 825.543 126.499H813.051C813.051 128.623 811.864 129.787 809.763 129.787V142.279ZM825.543 126.499C825.543 117.475 818.761 110.542 809.763 110.542V123.033C811.711 123.033 813.051 124.222 813.051 126.499H825.543ZM809.763 110.542H769.329V123.033H809.763V110.542ZM775.575 116.788V85.1824H763.083V116.788H775.575ZM769.329 91.4282H815.766V78.9365H769.329V91.4282ZM815.766 91.4282C820.059 91.4282 824.093 89.926 827.068 86.9503C830.044 83.9747 831.546 79.9407 831.546 75.6478H819.054C819.054 77.0051 818.614 77.7384 818.235 78.1174C817.856 78.4965 817.123 78.9365 815.766 78.9365V91.4282ZM831.546 75.6478C831.546 71.355 830.044 67.321 827.068 64.3453C824.093 61.3696 820.059 59.8675 815.766 59.8675V72.3591C817.123 72.3591 817.856 72.7992 818.235 73.1782C818.614 73.5573 819.054 74.2906 819.054 75.6478H831.546ZM815.766 59.8675H758.735V72.3591H815.766V59.8675ZM758.735 59.8675C749.283 59.8675 742.072 67.078 742.072 76.5307H754.564C754.564 73.9769 756.181 72.3591 758.735 72.3591V59.8675ZM742.072 76.5307V179.292H754.564V76.5307H742.072ZM742.072 179.292C742.072 188.991 749.353 195.955 758.735 195.955V183.463C756.111 183.463 754.564 181.952 754.564 179.292H742.072ZM894.918 142.036V135.791H888.672V142.036H894.918ZM894.918 122.791H888.672V129.037H894.918V122.791ZM894.918 85.3589V79.1131H888.672V85.3589H894.918ZM884.324 197.72C893.708 197.72 901.164 190.402 901.164 181.057H888.672C888.672 183.366 886.947 185.229 884.324 185.229V197.72ZM901.164 181.057V142.036H888.672V181.057H901.164ZM894.918 148.282H926.876V135.791H894.918V148.282ZM926.876 148.282C950.414 148.282 969.318 129.81 969.318 103.898H956.826C956.826 123.187 943.242 135.791 926.876 135.791V148.282ZM969.318 103.898C969.318 78.1885 949.908 59.8675 924.228 59.8675V72.3591C943.395 72.3591 956.826 85.4667 956.826 103.898H969.318ZM924.228 59.8675H884.324V72.3591H924.228V59.8675ZM884.324 59.8675C875.048 59.8675 867.661 67.2545 867.661 76.5307H880.153C880.153 74.1535 881.947 72.3591 884.324 72.3591V59.8675ZM867.661 76.5307V181.057H880.153V76.5307H867.661ZM867.661 181.057C867.661 190.333 875.048 197.72 884.324 197.72V185.229C881.947 185.229 880.153 183.434 880.153 181.057H867.661ZM901.164 122.791V85.3589H888.672V122.791H901.164ZM894.918 91.6047H923.168V79.1131H894.918V91.6047ZM923.168 91.6047C927.418 91.6047 930.348 92.968 932.215 94.8727C934.094 96.7909 935.462 99.8396 935.462 104.251H947.954C947.954 97.1864 945.702 90.7889 941.137 86.1301C936.559 81.4577 930.219 79.1131 923.168 79.1131V91.6047ZM935.462 104.251C935.462 108.44 934.121 111.439 932.272 113.353C930.439 115.251 927.665 116.545 923.875 116.545V129.037C930.679 129.037 936.821 126.623 941.256 122.032C945.675 117.457 947.954 111.187 947.954 104.251H935.462ZM923.875 116.545H894.918V129.037H923.875V116.545ZM1052.01 198.603C1069.72 198.603 1084.75 191.405 1095.23 178.698C1105.63 166.099 1111.23 148.517 1111.23 128.088H1098.74C1098.74 146.326 1093.74 160.879 1085.6 170.748C1077.54 180.509 1066.08 186.112 1052.01 186.112V198.603ZM1111.23 128.088C1111.23 107.788 1105.47 90.1517 1095.12 77.4609C1084.7 64.683 1069.84 57.219 1052.54 57.219V69.7106C1065.97 69.7106 1077.32 75.4007 1085.44 85.3557C1093.63 95.3976 1098.74 110.073 1098.74 128.088H1111.23ZM1052.54 57.219C1017.36 57.219 992.974 87.426 992.974 128.088H1005.47C1005.47 92.1201 1026.28 69.7106 1052.54 69.7106V57.219ZM992.974 128.088C992.974 148.529 998.623 166.107 1009.01 178.698C1019.49 191.391 1034.46 198.603 1052.01 198.603V186.112C1038.14 186.112 1026.71 180.523 1018.65 170.748C1010.5 160.872 1005.47 146.314 1005.47 128.088H992.974ZM1026.48 128.088C1026.48 115.728 1029.37 105.619 1034.01 98.8005C1038.53 92.1396 1044.66 88.6031 1052.01 88.6031V76.1115C1039.95 76.1115 1030.18 82.1978 1023.67 91.7809C1017.27 101.207 1013.99 113.963 1013.99 128.088H1026.48ZM1052.01 88.6031C1059.57 88.6031 1065.68 92.1611 1070.14 98.7812C1074.73 105.586 1077.55 115.692 1077.55 128.088H1090.04C1090.04 113.998 1086.86 101.24 1080.5 91.8002C1074.01 82.1763 1064.23 76.1115 1052.01 76.1115V88.6031ZM1077.55 128.088C1077.55 140.77 1074.72 150.754 1070.17 157.37C1065.77 163.779 1059.68 167.219 1052.01 167.219V179.711C1064.12 179.711 1073.92 173.969 1080.47 164.443C1086.87 155.125 1090.04 142.42 1090.04 128.088H1077.55ZM1052.01 167.219C1044.55 167.219 1038.44 163.8 1033.97 157.351C1029.38 150.721 1026.48 140.734 1026.48 128.088H1013.99C1013.99 142.456 1017.26 155.158 1023.7 164.463C1030.27 173.948 1040.06 179.711 1052.01 179.711V167.219Z"
    fill="#52A3BD" />
  <path
    d="M96.2935 186.145H153.324C158.798 186.145 162.859 182.26 162.859 176.61C162.859 170.96 158.798 167.075 153.324 167.075H106.887V71.2006C106.887 65.3739 102.12 60.7832 96.2935 60.7832C90.4669 60.7832 85.8762 65.3739 85.8762 71.2006V175.727C85.8762 181.554 90.4669 186.145 96.2935 186.145ZM206.982 187.91C211.396 187.91 215.634 185.262 217.046 181.377L226.228 155.069L271.075 154.892L280.257 181.377C281.493 185.262 285.73 187.91 290.144 187.91C298.266 187.91 302.504 179.612 300.032 173.255L259.775 69.0818C257.656 63.2551 253.772 60.7832 248.651 60.7832C243.531 60.7832 239.647 63.2551 237.351 69.0818L197.094 173.255C194.799 179.082 198.507 187.91 206.982 187.91ZM232.761 135.823L248.651 90.2696L264.366 135.823H232.761ZM344.502 186.145H416.54C421.661 186.145 426.075 181.907 426.075 176.787C426.075 171.49 421.661 167.252 416.54 167.252H363.747L420.778 82.3242C424.309 77.2038 425.722 74.2022 425.722 71.5537C425.722 66.4333 421.661 62.5489 416.187 62.5489H346.091C340.794 62.5489 336.556 66.7864 336.556 71.9068C336.556 77.2038 340.794 81.4413 346.091 81.4413H397.118L339.911 166.369C335.85 172.196 335.144 174.138 335.144 177.14C335.144 181.907 339.381 186.145 344.502 186.145ZM509.957 187.91C515.784 187.91 520.374 183.319 520.374 177.493V128.055L557.983 77.3803C559.219 75.7913 559.925 73.4959 559.925 71.2006C559.925 65.5505 555.511 60.9598 549.684 60.9598C546.153 60.9598 543.151 62.5489 541.386 65.0208L510.134 107.22L481 65.3739C479.058 62.7254 475.88 60.9598 472.525 60.9598C466.698 60.9598 462.108 65.5505 462.108 71.2006C462.108 73.4959 462.814 75.4381 464.05 77.2038L499.363 127.878V177.493C499.363 183.319 504.13 187.91 509.957 187.91ZM615.379 187.91C621.382 187.91 625.973 183.319 625.973 177.316V134.587H654.047L676.824 182.26C678.589 185.615 681.944 187.91 686.005 187.91C691.655 187.91 696.069 183.319 696.069 177.669C696.069 175.904 695.893 174.491 695.01 173.079L674.352 130.703C686.005 124.876 693.774 113.576 693.774 98.7447C693.774 77.2038 677.353 62.5489 655.459 62.5489H615.379C609.376 62.5489 604.785 67.1396 604.785 73.1428V177.316C604.785 183.319 609.376 187.91 615.379 187.91ZM625.973 115.518V81.7945H654.753C664.287 81.7945 672.409 88.1508 672.409 99.0979C672.409 108.632 665.876 115.518 656.165 115.518H625.973ZM754.413 186.145H813.562C819.036 186.145 823.097 182.26 823.097 176.61C823.097 170.96 819.036 167.075 813.562 167.075H765.007V132.469H805.44C810.914 132.469 814.975 128.584 814.975 122.934C814.975 117.284 810.914 113.223 805.44 113.223H765.007V81.6179H811.444C817.094 81.6179 820.978 77.7335 820.978 72.0834C820.978 66.4333 817.094 62.5489 811.444 62.5489H754.413C748.41 62.5489 743.996 66.963 743.996 72.9662V175.727C743.996 181.907 748.41 186.145 754.413 186.145ZM880.002 187.91C886.005 187.91 890.596 183.319 890.596 177.493V138.472H922.554C942.506 138.472 958.75 122.934 958.75 100.334C958.75 78.2632 942.329 62.5489 919.906 62.5489H880.002C874.175 62.5489 869.585 67.1396 869.585 72.9662V177.493C869.585 183.319 874.175 187.91 880.002 187.91ZM890.596 119.226V81.7945H918.846C930.146 81.7945 937.386 89.2102 937.386 100.687C937.386 111.811 930.146 119.226 919.552 119.226H890.596ZM1047.69 188.793C1079.47 188.793 1100.66 163.191 1100.66 124.523C1100.66 86.2086 1078.94 59.9004 1048.22 59.9004C1017.5 59.9004 994.898 86.2086 994.898 124.523C994.898 163.191 1016.26 188.793 1047.69 188.793ZM1015.91 124.523C1015.91 98.0385 1028.27 78.7929 1047.69 78.7929C1067.47 78.7929 1079.47 98.0385 1079.47 124.523C1079.47 151.538 1067.47 169.901 1047.69 169.901C1028.27 169.901 1015.91 151.538 1015.91 124.523Z"
    fill="#CC3737" />
  <path
    d="M106.887 167.075H101.534V172.429H106.887V167.075ZM96.2935 191.498H153.324V180.791H96.2935V191.498ZM153.324 191.498C161.688 191.498 168.212 185.283 168.212 176.61H157.505C157.505 179.238 155.907 180.791 153.324 180.791V191.498ZM168.212 176.61C168.212 167.937 161.688 161.722 153.324 161.722V172.429C155.907 172.429 157.505 173.982 157.505 176.61H168.212ZM153.324 161.722H106.887V172.429H153.324V161.722ZM112.241 167.075V71.2006H101.534V167.075H112.241ZM112.241 71.2006C112.241 62.3005 104.959 55.4296 96.2935 55.4296V66.1368C99.2816 66.1368 101.534 68.4473 101.534 71.2006H112.241ZM96.2935 55.4296C87.5102 55.4296 80.5226 62.4172 80.5226 71.2006H91.2298C91.2298 68.3306 93.4236 66.1368 96.2935 66.1368V55.4296ZM80.5226 71.2006V175.727H91.2298V71.2006H80.5226ZM80.5226 175.727C80.5226 184.511 87.5102 191.498 96.2935 191.498V180.791C93.4236 180.791 91.2298 178.597 91.2298 175.727H80.5226ZM217.046 181.377L222.077 183.207L222.089 183.174L222.101 183.141L217.046 181.377ZM226.228 155.069L226.207 149.716L222.421 149.73L221.173 153.305L226.228 155.069ZM271.075 154.892L276.133 153.139L274.88 149.524L271.054 149.539L271.075 154.892ZM280.257 181.377L285.358 179.754L285.337 179.689L285.315 179.624L280.257 181.377ZM300.032 173.255L295.038 175.185L295.042 175.196L300.032 173.255ZM259.775 69.0818L254.744 70.9113L254.762 70.9616L254.781 71.0115L259.775 69.0818ZM237.351 69.0818L232.37 67.1196L232.364 67.1358L232.358 67.152L237.351 69.0818ZM197.094 173.255L202.075 175.217L202.082 175.201L202.088 175.185L197.094 173.255ZM232.761 135.823L227.706 134.06L225.223 141.177H232.761V135.823ZM248.651 90.2696L253.712 88.5238L248.68 73.9348L243.597 88.5063L248.651 90.2696ZM264.366 135.823V141.177H271.876L269.427 134.078L264.366 135.823ZM206.982 193.264C213.286 193.264 219.779 189.527 222.077 183.207L212.015 179.548C211.488 180.996 209.506 182.557 206.982 182.557V193.264ZM222.101 183.141L231.282 156.833L221.173 153.305L211.992 179.613L222.101 183.141ZM226.249 160.423L271.096 160.246L271.054 149.539L226.207 149.716L226.249 160.423ZM266.017 156.646L275.198 183.131L285.315 179.624L276.133 153.139L266.017 156.646ZM275.155 183C277.24 189.552 283.903 193.264 290.144 193.264V182.557C287.557 182.557 285.745 180.971 285.358 179.754L275.155 183ZM290.144 193.264C302.632 193.264 308.633 180.602 305.021 171.315L295.042 175.196C295.629 176.703 295.452 178.617 294.501 180.161C293.625 181.584 292.19 182.557 290.144 182.557V193.264ZM305.026 171.326L264.769 67.152L254.781 71.0115L295.038 175.185L305.026 171.326ZM264.806 67.2522C263.469 63.5759 261.406 60.512 258.46 58.398C255.5 56.2738 252.096 55.4296 248.651 55.4296V66.1368C250.327 66.1368 251.426 66.5286 252.217 67.0969C253.024 67.6756 253.962 68.761 254.744 70.9113L264.806 67.2522ZM248.651 55.4296C245.2 55.4296 241.811 56.2769 238.845 58.3809C235.903 60.4676 233.8 63.4894 232.37 67.1196L242.332 71.044C243.198 68.8474 244.185 67.72 245.039 67.1141C245.869 66.5255 246.983 66.1368 248.651 66.1368V55.4296ZM232.358 67.152L192.101 171.326L202.088 175.185L242.345 71.0115L232.358 67.152ZM192.113 171.293C190.309 175.874 190.931 181.244 193.366 185.45C195.915 189.853 200.629 193.264 206.982 193.264V182.557C204.86 182.557 203.482 181.553 202.632 180.085C201.669 178.421 201.585 176.463 202.075 175.217L192.113 171.293ZM237.815 137.587L253.706 92.0329L243.597 88.5063L227.706 134.06L237.815 137.587ZM243.591 92.0154L259.305 137.569L269.427 134.078L253.712 88.5238L243.591 92.0154ZM264.366 130.47H232.761V141.177H264.366V130.47ZM363.747 167.252L359.303 164.268L353.704 172.606H363.747V167.252ZM420.778 82.3242L416.371 79.2848L416.352 79.3121L416.333 79.3396L420.778 82.3242ZM397.118 81.4413L401.558 84.4322L407.179 76.0878H397.118V81.4413ZM339.911 166.369L344.303 169.43L344.327 169.395L344.351 169.36L339.911 166.369ZM344.502 191.498H416.54V180.791H344.502V191.498ZM416.54 191.498C424.487 191.498 431.428 184.992 431.428 176.787H420.721C420.721 178.822 418.834 180.791 416.54 180.791V191.498ZM431.428 176.787C431.428 168.469 424.553 161.898 416.54 161.898V172.606C418.768 172.606 420.721 174.51 420.721 176.787H431.428ZM416.54 161.898H363.747V172.606H416.54V161.898ZM368.192 170.237L425.222 85.3087L416.333 79.3396L359.303 164.268L368.192 170.237ZM425.185 85.3636C428.664 80.3187 431.075 76.0567 431.075 71.5537H420.368C420.368 72.3476 419.954 74.0889 416.371 79.2848L425.185 85.3636ZM431.075 71.5537C431.075 63.2111 424.345 57.1953 416.187 57.1953V67.9024C418.977 67.9024 420.368 69.6555 420.368 71.5537H431.075ZM416.187 57.1953H346.091V67.9024H416.187V57.1953ZM346.091 57.1953C337.902 57.1953 331.203 63.7648 331.203 71.9068H341.91C341.91 69.808 343.685 67.9024 346.091 67.9024V57.1953ZM331.203 71.9068C331.203 80.1605 337.837 86.7949 346.091 86.7949V76.0878C343.75 76.0878 341.91 74.2471 341.91 71.9068H331.203ZM346.091 86.7949H397.118V76.0878H346.091V86.7949ZM392.678 78.4504L335.471 163.378L344.351 169.36L401.558 84.4322L392.678 78.4504ZM335.519 163.308C333.47 166.247 332.003 168.57 331.087 170.697C330.063 173.075 329.79 175.055 329.79 177.14H340.497C340.497 176.223 340.577 175.731 340.921 174.931C341.374 173.879 342.29 172.318 344.303 169.43L335.519 163.308ZM329.79 177.14C329.79 184.996 336.558 191.498 344.502 191.498V180.791C342.204 180.791 340.497 178.818 340.497 177.14H329.79ZM520.374 128.055L516.075 124.864L515.021 126.285V128.055H520.374ZM557.983 77.3803L553.757 74.0935L553.72 74.1413L553.684 74.1898L557.983 77.3803ZM541.386 65.0208L545.688 68.2069L545.715 68.1699L545.742 68.1325L541.386 65.0208ZM510.134 107.22L505.74 110.279L509.999 116.397L514.436 110.406L510.134 107.22ZM481 65.3739L485.394 62.315L485.356 62.2611L485.317 62.208L481 65.3739ZM464.05 77.2038L468.442 74.1429L468.436 74.1337L464.05 77.2038ZM499.363 127.878H504.717V126.197L503.755 124.817L499.363 127.878ZM509.957 193.264C518.74 193.264 525.728 186.276 525.728 177.493H515.021C515.021 180.363 512.827 182.557 509.957 182.557V193.264ZM525.728 177.493V128.055H515.021V177.493H525.728ZM524.673 131.245L562.282 80.5709L553.684 74.1898L516.075 124.864L524.673 131.245ZM562.209 80.6671C564.298 77.9803 565.278 74.4694 565.278 71.2006H554.571C554.571 72.5224 554.139 73.6022 553.757 74.0935L562.209 80.6671ZM565.278 71.2006C565.278 62.6544 558.528 55.6062 549.684 55.6062V66.3133C552.494 66.3133 554.571 68.4465 554.571 71.2006H565.278ZM549.684 55.6062C544.518 55.6062 539.853 57.9552 537.029 61.9091L545.742 68.1325C546.449 67.1425 547.787 66.3133 549.684 66.3133V55.6062ZM537.083 61.8346L505.831 104.034L514.436 110.406L545.688 68.2069L537.083 61.8346ZM514.527 104.161L485.394 62.315L476.607 68.4328L505.74 110.279L514.527 104.161ZM485.317 62.208C482.456 58.3063 477.731 55.6062 472.525 55.6062V66.3133C474.029 66.3133 475.66 67.1445 476.683 68.5398L485.317 62.208ZM472.525 55.6062C463.802 55.6062 456.754 62.5342 456.754 71.2006H467.461C467.461 68.5667 469.595 66.3133 472.525 66.3133V55.6062ZM456.754 71.2006C456.754 74.7138 457.87 77.7114 459.664 80.2738L468.436 74.1337C467.758 73.1648 467.461 72.278 467.461 71.2006H456.754ZM459.658 80.2646L494.971 130.939L503.755 124.817L468.442 74.143L459.658 80.2646ZM494.009 127.878V177.493H504.717V127.878H494.009ZM494.009 177.493C494.009 186.393 501.292 193.264 509.957 193.264V182.557C506.969 182.557 504.717 180.246 504.717 177.493H494.009ZM625.973 134.587V129.234H620.619V134.587H625.973ZM654.047 134.587L658.877 132.28L657.422 129.234H654.047V134.587ZM676.824 182.26L671.993 184.568L672.038 184.662L672.086 184.753L676.824 182.26ZM695.01 173.079L690.198 175.425L690.321 175.678L690.47 175.916L695.01 173.079ZM674.352 130.703L671.957 125.915L667.217 128.285L669.539 133.049L674.352 130.703ZM625.973 115.518H620.619V120.872H625.973V115.518ZM625.973 81.7945V76.4409H620.619V81.7945H625.973ZM615.379 193.264C624.339 193.264 631.326 186.276 631.326 177.316H620.619C620.619 180.363 618.425 182.557 615.379 182.557V193.264ZM631.326 177.316V134.587H620.619V177.316H631.326ZM625.973 139.941H654.047V129.234H625.973V139.941ZM649.216 136.895L671.993 184.568L681.654 179.952L658.877 132.28L649.216 136.895ZM672.086 184.753C674.691 189.704 679.778 193.264 686.005 193.264V182.557C684.11 182.557 682.487 181.526 681.561 179.767L672.086 184.753ZM686.005 193.264C694.733 193.264 701.423 186.154 701.423 177.669H690.716C690.716 180.485 688.577 182.557 686.005 182.557V193.264ZM701.423 177.669C701.423 175.541 701.224 172.921 699.55 170.241L690.47 175.916C690.548 176.041 690.59 176.143 690.627 176.321C690.675 176.555 690.716 176.936 690.716 177.669H701.423ZM699.822 170.733L679.164 128.357L669.539 133.049L690.198 175.425L699.822 170.733ZM676.746 135.491C690.155 128.787 699.127 115.667 699.127 98.7447H688.42C688.42 111.485 681.854 120.966 671.957 125.915L676.746 135.491ZM699.127 98.7447C699.127 73.8828 679.932 57.1953 655.459 57.1953V67.9024C674.774 67.9024 688.42 80.5248 688.42 98.7447H699.127ZM655.459 57.1953H615.379V67.9024H655.459V57.1953ZM615.379 57.1953C606.419 57.1953 599.431 64.1829 599.431 73.1428H610.138C610.138 70.0962 612.332 67.9024 615.379 67.9024V57.1953ZM599.431 73.1428V177.316H610.138V73.1428H599.431ZM599.431 177.316C599.431 186.276 606.419 193.264 615.379 193.264V182.557C612.332 182.557 610.138 180.363 610.138 177.316H599.431ZM631.326 115.518V81.7945H620.619V115.518H631.326ZM625.973 87.148H654.753V76.4409H625.973V87.148ZM654.753 87.148C658.348 87.148 661.42 88.3422 663.537 90.2852C665.591 92.171 667.056 95.0362 667.056 99.0979H677.763C677.763 92.2125 675.167 86.426 670.777 82.3969C666.449 78.4249 660.692 76.4409 654.753 76.4409V87.148ZM667.056 99.0979C667.056 102.622 665.866 105.335 664.1 107.142C662.348 108.935 659.71 110.165 656.165 110.165V120.872C662.332 120.872 667.816 118.659 671.758 114.625C675.686 110.606 677.763 105.108 677.763 99.0979H667.056ZM656.165 110.165H625.973V120.872H656.165V110.165ZM765.007 167.075H759.653V172.429H765.007V167.075ZM765.007 132.469V127.115H759.653V132.469H765.007ZM765.007 113.223H759.653V118.577H765.007V113.223ZM765.007 81.6179V76.2643H759.653V81.6179H765.007ZM754.413 191.498H813.562V180.791H754.413V191.498ZM813.562 191.498C821.926 191.498 828.45 185.283 828.45 176.61H817.743C817.743 179.238 816.145 180.791 813.562 180.791V191.498ZM828.45 176.61C828.45 167.937 821.926 161.722 813.562 161.722V172.429C816.145 172.429 817.743 173.982 817.743 176.61H828.45ZM813.562 161.722H765.007V172.429H813.562V161.722ZM770.36 167.075V132.469H759.653V167.075H770.36ZM765.007 137.822H805.44V127.115H765.007V137.822ZM805.44 137.822C813.804 137.822 820.328 131.607 820.328 122.934H809.621C809.621 125.562 808.023 127.115 805.44 127.115V137.822ZM820.328 122.934C820.328 114.393 813.935 107.87 805.44 107.87V118.577C807.892 118.577 809.621 120.175 809.621 122.934H820.328ZM805.44 107.87H765.007V118.577H805.44V107.87ZM770.36 113.223V81.6179H759.653V113.223H770.36ZM765.007 86.9715H811.444V76.2643H765.007V86.9715ZM811.444 86.9715C815.527 86.9715 819.325 85.5452 822.115 82.755C824.905 79.9648 826.332 76.1665 826.332 72.0834H815.624C815.624 73.6503 815.109 74.6194 814.544 75.1839C813.979 75.7484 813.01 76.2643 811.444 76.2643V86.9715ZM826.332 72.0834C826.332 68.0002 824.905 64.202 822.115 61.4118C819.325 58.6216 815.527 57.1953 811.444 57.1953V67.9024C813.01 67.9024 813.979 68.4183 814.544 68.9829C815.109 69.5474 815.624 70.5165 815.624 72.0834H826.332ZM811.444 57.1953H754.413V67.9024H811.444V57.1953ZM754.413 57.1953C745.453 57.1953 738.642 64.0063 738.642 72.9662H749.349C749.349 69.9197 751.366 67.9024 754.413 67.9024V57.1953ZM738.642 72.9662V175.727H749.349V72.9662H738.642ZM738.642 175.727C738.642 184.924 745.514 191.498 754.413 191.498V180.791C751.306 180.791 749.349 178.89 749.349 175.727H738.642ZM890.596 138.472V133.118H885.242V138.472H890.596ZM890.596 119.226H885.242V124.58H890.596V119.226ZM890.596 81.7945V76.4409H885.242V81.7945H890.596ZM880.002 193.264C888.903 193.264 895.949 186.335 895.949 177.493H885.242C885.242 180.304 883.108 182.557 880.002 182.557V193.264ZM895.949 177.493V138.472H885.242V177.493H895.949ZM890.596 143.825H922.554V133.118H890.596V143.825ZM922.554 143.825C945.58 143.825 964.104 125.773 964.104 100.334H953.396C953.396 120.096 939.432 133.118 922.554 133.118V143.825ZM964.104 100.334C964.104 75.144 945.121 57.1953 919.906 57.1953V67.9024C939.538 67.9024 953.396 81.3824 953.396 100.334H964.104ZM919.906 57.1953H880.002V67.9024H919.906V57.1953ZM880.002 57.1953C871.219 57.1953 864.231 64.1829 864.231 72.9662H874.938C874.938 70.0962 877.132 67.9024 880.002 67.9024V57.1953ZM864.231 72.9662V177.493H874.938V72.9662H864.231ZM864.231 177.493C864.231 186.276 871.219 193.264 880.002 193.264V182.557C877.132 182.557 874.938 180.363 874.938 177.493H864.231ZM895.949 119.226V81.7945H885.242V119.226H895.949ZM890.596 87.148H918.846V76.4409H890.596V87.148ZM918.846 87.148C923.296 87.148 926.47 88.5814 928.53 90.6838C930.601 92.7977 932.032 96.0857 932.032 100.687H942.739C942.739 93.8115 940.551 87.6532 936.177 83.1901C931.793 78.7154 925.697 76.4409 918.846 76.4409V87.148ZM932.032 100.687C932.032 105.072 930.624 108.304 928.591 110.408C926.572 112.499 923.558 113.873 919.552 113.873V124.58C926.141 124.58 932.043 122.246 936.292 117.847C940.527 113.463 942.739 107.426 942.739 100.687H932.032ZM919.552 113.873H890.596V124.58H919.552V113.873ZM1047.69 194.147C1065.14 194.147 1079.91 187.062 1090.22 174.566C1100.46 162.161 1106.01 144.796 1106.01 124.523H1095.31C1095.31 142.918 1090.27 157.688 1081.96 167.751C1073.74 177.723 1062.02 183.439 1047.69 183.439V194.147ZM1106.01 124.523C1106.01 104.387 1100.31 86.9619 1090.11 74.4603C1079.85 61.8841 1065.24 54.5468 1048.22 54.5468V65.2539C1061.93 65.2539 1073.53 71.0707 1081.81 81.2273C1090.16 91.4585 1095.31 106.345 1095.31 124.523H1106.01ZM1048.22 54.5468C1013.68 54.5468 989.544 84.1968 989.544 124.523H1000.25C1000.25 88.2203 1021.32 65.2539 1048.22 65.2539V54.5468ZM989.544 124.523C989.544 144.807 995.149 162.168 1005.38 174.566C1015.68 187.05 1030.4 194.147 1047.69 194.147V183.439C1033.55 183.439 1021.88 177.735 1013.64 167.751C1005.33 157.681 1000.25 142.908 1000.25 124.523H989.544ZM1021.26 124.523C1021.26 112.037 1024.19 101.739 1028.94 94.7346C1033.61 87.865 1040 84.1464 1047.69 84.1464V73.4393C1035.96 73.4393 1026.46 79.3435 1020.09 88.7179C1013.81 97.9573 1010.56 110.525 1010.56 124.523H1021.26ZM1047.69 84.1464C1055.58 84.1464 1061.95 87.8834 1066.56 94.7181C1071.27 101.711 1074.12 112.007 1074.12 124.523H1084.83C1084.83 110.555 1081.67 97.9858 1075.44 88.7344C1069.1 79.3251 1059.58 73.4393 1047.69 73.4393V84.1464ZM1074.12 124.523C1074.12 137.323 1071.26 147.502 1066.58 154.311C1062.03 160.943 1055.68 164.547 1047.69 164.547V175.254C1059.48 175.254 1069.02 169.677 1075.41 160.374C1081.68 151.248 1084.83 138.738 1084.83 124.523H1074.12ZM1047.69 164.547C1039.9 164.547 1033.53 160.961 1028.92 154.294C1024.19 147.473 1021.26 137.293 1021.26 124.523H1010.56C1010.56 138.768 1013.8 151.276 1020.12 160.39C1026.53 169.659 1036.06 175.254 1047.69 175.254V164.547Z"
    fill="#CC3737" />
  <path
    d="M93.4693 183.291H150.5C155.973 183.291 160.034 179.407 160.034 173.756C160.034 168.106 155.973 164.222 150.5 164.222H104.063V68.347C104.063 62.5204 99.296 57.9297 93.4693 57.9297C87.6427 57.9297 83.052 62.5204 83.052 68.347V172.874C83.052 178.7 87.6427 183.291 93.4693 183.291ZM204.158 185.057C208.572 185.057 212.81 182.408 214.222 178.524L223.403 152.216L268.251 152.039L277.432 178.524C278.668 182.408 282.906 185.057 287.32 185.057C295.442 185.057 299.68 176.758 297.208 170.402L256.951 66.2282C254.832 60.4016 250.948 57.9297 245.827 57.9297C240.707 57.9297 236.822 60.4016 234.527 66.2282L194.27 170.402C191.975 176.228 195.683 185.057 204.158 185.057ZM229.936 132.97L245.827 87.4161L261.542 132.97H229.936ZM341.677 183.291H413.716C418.836 183.291 423.25 179.053 423.25 173.933C423.25 168.636 418.836 164.399 413.716 164.399H360.923L417.953 79.4707C421.485 74.3503 422.897 71.3486 422.897 68.7002C422.897 63.5798 418.836 59.6953 413.363 59.6953H343.266C337.969 59.6953 333.732 63.9329 333.732 69.0533C333.732 74.3503 337.969 78.5878 343.266 78.5878H394.294L337.087 163.516C333.026 169.342 332.319 171.285 332.319 174.286C332.319 179.053 336.557 183.291 341.677 183.291ZM507.133 185.057C512.959 185.057 517.55 180.466 517.55 174.639V125.201L555.158 74.5268C556.394 72.9377 557.101 70.6424 557.101 68.347C557.101 62.6969 552.687 58.1062 546.86 58.1062C543.329 58.1062 540.327 59.6953 538.561 62.1672L507.309 104.366L478.176 62.5204C476.234 59.8719 473.056 58.1062 469.701 58.1062C463.874 58.1062 459.284 62.6969 459.284 68.347C459.284 70.6424 459.99 72.5846 461.226 74.3503L496.539 125.024V174.639C496.539 180.466 501.306 185.057 507.133 185.057ZM612.555 185.057C618.558 185.057 623.148 180.466 623.148 174.463V131.734H651.222L673.999 179.407C675.765 182.761 679.12 185.057 683.181 185.057C688.831 185.057 693.245 180.466 693.245 174.816C693.245 173.05 693.068 171.638 692.186 170.225L671.527 127.85C683.181 122.023 690.95 110.723 690.95 95.8912C690.95 74.3503 674.529 59.6953 652.635 59.6953H612.555C606.551 59.6953 601.961 64.286 601.961 70.2892V174.463C601.961 180.466 606.551 185.057 612.555 185.057ZM623.148 112.665V78.941H651.929C661.463 78.941 669.585 85.2973 669.585 96.2443C669.585 105.779 663.052 112.665 653.341 112.665H623.148ZM751.589 183.291H810.738C816.212 183.291 820.273 179.407 820.273 173.756C820.273 168.106 816.212 164.222 810.738 164.222H762.183V129.615H802.616C808.09 129.615 812.151 125.731 812.151 120.081C812.151 114.431 808.09 110.37 802.616 110.37H762.183V78.7644H808.619C814.269 78.7644 818.154 74.88 818.154 69.2299C818.154 63.5798 814.269 59.6953 808.619 59.6953H751.589C745.585 59.6953 741.171 64.1095 741.171 70.1127V172.874C741.171 179.053 745.585 183.291 751.589 183.291ZM877.178 185.057C883.181 185.057 887.772 180.466 887.772 174.639V135.618H919.73C939.682 135.618 955.926 120.081 955.926 97.4803C955.926 75.4096 939.505 59.6953 917.081 59.6953H877.178C871.351 59.6953 866.76 64.286 866.76 70.1127V174.639C866.76 180.466 871.351 185.057 877.178 185.057ZM887.772 116.373V78.941H916.022C927.322 78.941 934.561 86.3567 934.561 97.8334C934.561 108.957 927.322 116.373 916.728 116.373H887.772ZM1044.87 185.939C1076.65 185.939 1097.84 160.338 1097.84 121.67C1097.84 83.3551 1076.12 57.0469 1045.4 57.0469C1014.67 57.0469 992.073 83.3551 992.073 121.67C992.073 160.338 1013.44 185.939 1044.87 185.939ZM1013.08 121.67C1013.08 95.185 1025.44 75.9393 1044.87 75.9393C1064.64 75.9393 1076.65 95.185 1076.65 121.67C1076.65 148.684 1064.64 167.047 1044.87 167.047C1025.44 167.047 1013.08 148.684 1013.08 121.67Z"
    fill="#E4BB29" />
</svg>
  