<svg width="822" height="326" viewBox="0 0 822 326" fill="none" xmlns="http://www.w3.org/2000/svg">
  <path
    d="M217.64 135.726C213.612 138.401 206.657 135.266 196.777 126.322C186.897 117.377 187.796 110.94 199.473 107.011C211.151 103.081 223.097 99.8418 235.313 97.2918C247.528 94.7418 258.756 92.5878 268.997 90.8298C279.238 89.0719 278.829 96.0832 267.77 111.864C256.711 127.644 257.771 140.704 270.952 151.043C284.132 161.382 287.132 171.441 279.952 181.219C272.772 190.997 263.438 199.423 251.95 206.495C240.462 213.567 232.219 208.181 227.221 190.337C222.223 172.493 214.874 161.68 205.174 157.899C195.474 154.118 197.095 148.812 210.038 141.982C222.981 135.152 234.482 128.942 244.541 123.353C254.6 117.764 264.282 112.285 273.588 106.914C282.894 101.544 293.592 95.573 305.682 89.0012C317.771 82.4295 328.635 77.1078 338.275 73.0362C347.914 68.9647 360.309 66.6852 375.459 66.1978C390.61 65.7105 402.186 72.6409 410.189 86.989C418.192 101.337 420.359 113.427 416.69 123.257C413.02 133.088 407.414 141.82 399.87 149.454C392.327 157.087 384.462 164.903 376.278 172.902C368.093 180.901 359.395 189.076 350.185 197.428C340.974 205.78 332.353 204.233 324.319 192.787C316.286 181.341 316.544 170.841 325.092 161.286C333.641 151.732 343.641 144.664 355.094 140.084C366.547 135.503 377.578 130.956 388.188 126.443C398.797 121.929 408.949 117.602 418.644 113.461C428.34 109.32 438.052 104.599 447.783 99.2968C457.513 93.9947 472.817 95.8193 493.695 104.771C514.573 113.722 523.725 124.473 521.152 137.022C518.578 149.572 513.199 160.128 505.014 168.692C496.829 177.255 487.344 186.497 476.558 196.418C465.771 206.339 456.422 214.747 448.51 221.644C440.598 228.54 434.295 224.154 429.6 208.484C424.905 192.814 417.829 182.675 408.371 178.065C398.913 173.456 401.171 167.416 415.144 159.947C429.117 152.479 440.845 145.894 450.328 140.195C459.812 134.495 469.055 128.714 478.058 122.85C487.061 116.986 497.471 110.332 509.287 102.889C521.104 95.4455 532.044 88.9541 542.108 83.415C552.172 77.8758 565.945 76.2859 583.429 78.6452C600.913 81.0046 612.02 89.8675 616.75 105.234C621.48 120.601 620.495 133.789 613.795 144.799C607.095 155.81 599.564 166.929 591.202 178.157C582.841 189.384 575.113 199.191 568.019 207.577C560.925 215.963 551.712 211.925 540.38 195.462C529.049 179 526.973 166.401 534.153 157.665C541.333 148.929 550.364 141.14 561.246 134.298C572.128 127.455 564.127 101.223 574.883 95.9057C585.639 90.5887 604.217 84.9767 623.477 86.989C642.738 89.0012 659.662 104.771 662.338 121.437C665.014 138.103 694.974 144.739 689.885 156.059C684.796 167.379 690.894 170.162 683.527 181.423C676.161 192.683 670.6 200.88 666.844 206.013C663.089 211.146 659.71 215.393 656.707 218.755C653.704 222.117 650.098 224.887 645.888 227.066C641.678 229.245 637.375 230.718 632.978 231.485C628.581 232.252 624.036 232.274 619.341 231.55C614.646 230.826 610.327 229.394 606.385 227.254C602.443 225.114 598.807 222.378 595.475 219.046C592.144 215.715 589.568 211.962 587.748 207.787C585.927 203.612 584.699 199.235 584.065 194.654C583.431 190.073 583.659 185.53 584.747 181.023C585.836 176.517 587.488 172.283 589.702 168.321C591.917 164.36 594.857 160.879 598.521 157.878C602.186 154.877 606.065 152.514 610.158 150.787C614.252 149.061 618.692 148.062 623.477 147.791C628.263 147.52 632.794 147.991 637.069 149.204C641.345 150.416 645.481 152.307 649.479 154.876C653.477 157.445 656.78 160.559 659.389 164.216C661.998 167.873 664.149 171.882 665.844 176.244C667.539 180.606 668.296 185.091 668.117 189.702C667.938 194.312 667.225 198.804 665.981 203.18C664.736 207.555 662.629 211.584 659.662 215.266C656.694 218.949 653.406 222.093 649.798 224.697C646.189 227.302 642.067 229.231 637.433 230.485C632.799 231.738 628.283 232.251 623.887 232.022C619.49 231.794 615.035 230.836 610.522 229.149C606.009 227.462 602.1 225.135 598.794 222.166C595.488 219.198 592.533 215.744 589.93 211.805C587.326 207.866 585.613 203.647 584.793 199.149C583.972 194.651 583.715 190.11 584.02 185.525C584.326 180.94 585.523 176.552 587.611 172.359C589.7 168.165 590.654 166.071 590.475 166.075C590.296 166.079 594.781 159.447 603.931 146.177C613.08 132.907 620.96 121.879 627.569 113.094C634.178 104.31 635.193 105.47 630.614 116.574C626.036 127.678 628.854 141.317 639.07 157.491C649.285 173.664 648.724 184.568 637.388 190.204C626.051 195.839 615.459 201.687 605.613 207.745C595.766 213.804 586.083 219.679 576.565 225.369C567.047 231.06 556.667 236.451 545.426 241.543C534.185 246.634 523.063 249.494 512.06 250.124C501.057 250.753 493.42 238.536 489.149 213.472C484.879 188.409 486.621 171.757 494.377 163.517C502.133 155.277 509.391 146.63 516.151 137.577C522.912 128.525 529.746 119.113 536.653 109.343C543.56 99.5731 549.621 101.547 554.836 115.266C560.051 128.985 567.173 138.609 576.201 144.136C585.23 149.664 584.79 155.114 574.883 160.488C564.976 165.862 554.172 172.506 542.472 180.42C530.771 188.335 519.786 195.647 509.515 202.357C499.244 209.067 489.031 215.666 478.876 222.154C468.721 228.642 457.22 235.103 444.373 241.539C431.526 247.974 419.844 252.243 409.325 254.345C398.807 256.446 387.821 255.1 376.369 250.305C364.916 245.509 360.991 231.934 364.595 209.577C368.199 187.221 374.184 172.562 382.551 165.601C390.917 158.639 399.539 151.081 408.416 142.926C417.293 134.771 426.127 126.259 434.918 117.39C443.709 108.52 447.073 110.17 445.01 122.338C442.947 134.506 450.72 145.747 468.33 156.059C485.94 166.371 490.031 173.904 480.603 178.657C471.176 183.41 461.387 187.863 451.238 192.016C441.088 196.169 430.905 200.489 420.69 204.976C410.475 209.462 399.322 214.17 387.233 219.098C375.144 224.027 362.491 229.113 349.276 234.356C336.06 239.6 323.514 243.665 311.637 246.55C299.759 249.436 288.607 249.055 278.18 245.405C267.752 241.756 259.767 232.111 254.223 216.472C248.68 200.832 248.301 188.263 253.087 178.766C257.873 169.268 264.343 160.743 272.497 153.191C280.652 145.639 289.546 137.496 299.181 128.762C308.816 120.027 318.68 113.458 328.774 109.053C338.868 104.648 346.808 111.006 352.594 128.129C358.38 145.251 355.986 156.656 345.412 162.342C334.838 168.028 324.973 173.726 315.819 179.436C306.664 185.147 296.845 191.081 286.362 197.238C275.879 203.396 263.757 210.232 249.996 217.746C236.235 225.26 224.067 230.592 213.493 233.742C202.919 236.892 191.874 236.604 180.357 232.879C168.84 229.153 160.874 219.629 156.458 204.308C152.043 188.986 153.527 176.931 160.911 168.144C168.296 159.357 176.315 152.252 184.967 146.829C193.62 141.406 203.492 135.295 214.584 128.495C225.676 121.696 236.616 114.765 247.405 107.702C258.193 100.64 269.209 96.5659 280.452 95.4805C291.696 94.3951 303.803 99.034 316.773 109.397C329.744 119.761 329.35 133.059 315.591 149.293C301.833 165.527 289.605 174.437 278.907 176.023C268.209 177.608 257.602 179.486 247.086 181.655C236.57 183.825 225.418 186.088 213.629 188.446C201.841 190.803 190.633 192.027 180.007 192.118C169.381 192.208 159.416 188.887 150.114 182.155C131.541 168.713 124.765 143.219 135.123 121.568C139.889 111.605 147.085 103.504 156.711 97.2667C166.337 91.0289 173.044 86.5926 176.831 83.9577C180.619 81.3229 185.046 79.0316 190.114 77.0839C195.182 75.1362 200.163 74.1832 205.058 74.225C209.953 74.2669 214.923 75.2968 219.968 77.3148C225.013 79.3329 229.226 82.1887 232.605 85.8823C235.985 89.5758 238.773 93.8229 240.97 98.6234C243.166 103.424 244.121 103.457 243.833 108.64C243.546 113.823 239.541 108.883 237.768 113.653C235.994 118.423 233.13 122.626 229.176 126.262C225.222 129.899 223.388 131.716 223.676 131.714C223.963 131.711 221.948 133.049 217.63 135.726H217.64Z"
    fill="#F6B611" />
  <path
    d="M178.894 114.187C197.171 102.332 239.334 84.9533 250.906 82.1321C290.544 72.4685 337.755 74.1058 332.73 121.084C331.296 134.482 329.011 147.305 325.874 159.554C322.736 171.802 318.273 172.357 312.487 161.218C306.7 150.08 310.312 143.395 323.317 141.164C336.323 138.933 348.69 135.018 360.425 129.419C372.16 123.821 383.155 117.451 393.404 110.308C403.652 103.166 410.849 97.8205 415.003 94.2708C419.156 90.7212 422.785 87.7242 425.887 85.2799C428.989 82.8355 432.529 80.8226 436.5 79.2409C440.472 77.6593 444.407 76.5532 448.307 75.9227C452.207 75.2922 456.275 75.1575 460.501 75.5184C464.726 75.8794 468.715 76.7237 472.47 78.0514C476.225 79.3791 479.89 81.1532 483.463 83.3737C487.036 85.5942 490.19 88.1952 492.93 91.1768C495.669 94.1583 498.08 97.435 500.165 101.007C502.251 104.579 503.828 108.34 504.899 112.292C505.969 116.244 506.587 120.273 506.75 124.378C506.913 128.483 506.564 132.544 505.712 136.561C504.86 140.578 503.542 144.435 501.746 148.133C499.95 151.83 497.736 155.26 495.106 158.421C492.477 161.583 492.872 157.217 496.299 145.323C499.727 133.429 506.896 123.642 517.797 115.962C528.699 108.282 539.981 100.946 551.644 93.9514C563.306 86.9573 575.907 83.5816 589.457 83.8243C606.68 84.1327 601.18 106.424 619.169 108.251C625.5 108.893 631.432 108.598 636.964 107.365C642.496 106.131 647.997 105.799 653.457 106.367C658.917 106.935 664.232 108.373 669.401 110.681C674.57 112.989 679.14 116.048 683.113 119.857C687.085 123.666 690.438 128.025 693.176 132.933C695.915 137.841 697.707 143.044 698.56 148.54C699.413 154.036 699.439 159.537 698.622 165.044C697.806 170.55 696.077 175.775 693.447 180.717C690.818 185.66 687.519 190.061 683.547 193.919C675.617 201.62 665.074 206.503 654.108 207.781C648.648 208.417 643.154 208.153 637.622 206.99C632.091 205.827 626.956 203.822 622.221 200.977C617.487 198.131 613.275 194.596 609.594 190.37C605.912 186.145 603.044 181.448 600.994 176.281C598.944 171.115 610.336 165.932 609.956 160.368C609.575 154.804 597.537 149.148 599.042 143.767C600.547 138.385 602.815 133.378 605.844 128.745C608.873 124.113 612.646 120.096 617.162 116.693C621.678 113.291 626.518 110.685 631.688 108.873C636.858 107.061 642.28 106.138 647.957 106.103C653.634 106.068 659.056 106.924 664.226 108.673C669.395 110.421 674.279 112.968 678.867 116.314C683.456 119.66 687.265 123.631 690.294 128.227C693.324 132.823 695.663 137.802 697.313 143.164C698.963 148.526 699.599 153.991 699.219 159.56C698.838 165.129 697.674 170.509 695.733 175.7C693.791 180.891 691.004 185.622 687.358 189.893C683.713 194.164 679.537 197.751 674.839 200.654C649.325 216.42 609.971 230.239 584.724 210.862C574.149 202.746 566.424 192.71 561.545 180.755C556.665 168.801 562.777 165.637 579.882 171.266C596.986 176.894 600.213 183.413 589.565 190.822C578.918 198.231 566.622 206.691 552.674 216.202C538.726 225.713 525.266 234.021 512.297 241.126C499.328 248.232 483.913 252.718 466.047 254.585C448.182 256.453 433.234 254.686 421.208 249.286C409.182 243.886 399.754 234.406 392.916 220.848C386.078 207.289 383.534 193.486 385.293 179.438C387.052 165.39 389.901 152.516 393.838 140.814C397.774 129.112 403.304 117.542 410.432 106.103C417.56 94.6637 422.713 87.7227 425.887 85.2799C429.062 82.837 432.601 80.824 436.5 79.2409C440.4 77.6578 444.334 76.5517 448.307 75.9227C452.28 75.2937 456.347 75.1589 460.501 75.5184C464.654 75.8779 468.642 76.7222 472.47 78.0514C476.297 79.3806 479.962 81.1547 483.463 83.3737C486.963 85.5927 490.118 88.1938 492.93 91.1768C495.741 94.1598 498.152 97.4365 500.165 101.007C502.178 104.577 503.756 108.339 504.899 112.292C506.042 116.246 506.66 120.274 506.75 124.378C506.84 128.482 506.492 132.543 505.712 136.561C504.932 140.579 503.614 144.437 501.746 148.133C499.877 151.829 497.664 155.259 495.106 158.421C492.549 161.584 488.723 165.336 483.625 169.677C478.528 174.018 469.962 180.471 457.936 189.036C445.911 197.601 432.674 205.804 418.218 213.646C403.761 221.488 389.453 204.642 376.593 209.793C363.734 214.944 353.923 219.886 329.654 226.826C301.441 234.893 259.266 240.94 237.938 213.823C226.782 199.64 221.378 185.858 221.723 172.477C222.068 159.096 224.157 158.727 229.145 146.995C234.132 135.264 238.631 135.361 242.64 147.285C246.649 159.209 242.624 155.978 229.4 161.964C216.177 167.951 267.913 188.819 252.696 197.35C237.478 205.881 220.981 213.537 208.375 220.457C195.769 227.378 182.273 229.5 167.889 226.826C153.506 224.151 142.376 216.544 134.492 204.006C110.719 166.196 151.989 131.639 178.894 114.187Z"
    fill="#E7516C" />
  <ellipse cx="377.524" cy="144.184" rx="56.6571" ry="50.7655" fill="#E7516C" />
  <ellipse cx="236.893" cy="160.739" rx="56.6571" ry="50.7655" fill="#E7516C" />
  <path
    d="M246.716 177.32C248.384 177.665 249.217 178.96 249.217 181.203C249.217 182.41 248.93 183.359 248.355 184.049C247.78 184.74 247.032 185.085 246.112 185.085C245.824 185.085 245.278 185.056 244.473 184.998C243.667 184.883 242.805 184.797 241.884 184.74C240.964 184.625 240.073 184.538 239.21 184.481C238.347 184.366 237.744 184.308 237.398 184.308C237.053 184.308 236.737 184.308 236.449 184.308C236.162 184.308 235.874 184.337 235.587 184.395C234.609 184.337 233.459 184.222 232.136 184.049C230.871 183.819 229.605 183.589 228.34 183.359C227.132 183.072 226.039 182.784 225.062 182.497C224.142 182.209 223.595 181.95 223.423 181.72C222.847 179.995 222.56 177.694 222.56 174.819C222.56 174.358 222.56 173.898 222.56 173.438C222.56 172.921 222.589 172.403 222.646 171.885L223.164 165.76C223.221 165.3 223.25 164.869 223.25 164.466C223.25 164.006 223.25 163.603 223.25 163.258C223.25 162.798 223.25 162.424 223.25 162.137C223.25 161.792 223.193 161.475 223.078 161.188C223.48 159.002 223.768 157.191 223.94 155.753C224.113 154.257 224.199 153.107 224.199 152.302V151.612C224.199 150.807 224.544 148.247 225.234 143.934C226.097 142.093 227.42 141.173 229.203 141.173C230.295 141.173 231.216 141.604 231.963 142.467C232.711 143.272 233.085 144.394 233.085 145.832C232.855 146.637 232.625 147.643 232.395 148.851C232.222 150.059 232.05 151.497 231.877 153.165V153.855C231.877 154.372 231.82 155.178 231.705 156.27C231.647 157.306 231.561 158.398 231.446 159.549C231.331 160.641 231.216 161.648 231.101 162.568C231.043 163.431 231.014 163.92 231.014 164.035C231.014 164.667 231.043 165.07 231.101 165.243C230.871 167.658 230.698 169.671 230.583 171.281C230.468 172.892 230.411 174.128 230.411 174.991C230.411 175.566 230.439 175.94 230.497 176.113C233.488 176.458 235.472 176.63 236.449 176.63C236.91 176.63 237.37 176.63 237.83 176.63C238.347 176.573 238.865 176.544 239.383 176.544C241.568 176.544 244.012 176.803 246.716 177.32ZM304.885 188.708C304.655 189.801 303.591 190.347 301.693 190.347C300.14 190.347 299.018 190.002 298.328 189.312C298.041 188.334 297.638 187.155 297.121 185.775C296.603 184.337 295.999 182.698 295.309 180.857C294.964 178.614 294.619 177.033 294.274 176.113C293.986 175.192 293.612 174.502 293.152 174.042C292.289 174.1 291.053 174.215 289.442 174.387C287.832 174.502 286.135 174.675 284.352 174.905C282.57 175.077 280.902 175.336 279.349 175.681C277.796 175.969 276.674 176.285 275.984 176.63C275.697 178.068 275.352 179.65 274.949 181.375C274.546 183.1 274.058 184.941 273.482 186.896C273.31 187.472 272.907 187.874 272.275 188.104C271.642 188.392 270.866 188.536 269.945 188.536C269.025 188.536 268.22 188.363 267.53 188.018C266.897 187.73 266.581 187.27 266.581 186.638C266.581 185.487 267.271 182.065 268.651 176.371C268.594 176.141 268.565 175.796 268.565 175.336C268.565 174.588 268.651 173.668 268.824 172.575C269.054 171.425 269.284 170.332 269.514 169.297C269.744 168.262 269.945 167.371 270.118 166.623C270.348 165.875 270.463 165.473 270.463 165.415L273.224 157.737C273.339 156.989 273.626 155.983 274.086 154.718C274.604 153.452 275.15 152.158 275.725 150.835C276.301 149.513 276.847 148.276 277.365 147.126C277.882 145.918 278.227 144.998 278.4 144.365C278.917 142.467 280.298 141.518 282.541 141.518C284.381 141.518 285.56 142.208 286.078 143.589C286.078 143.589 286.25 143.905 286.596 144.538C286.941 145.17 287.401 145.975 287.976 146.953C288.551 147.931 289.155 149.024 289.788 150.231C290.478 151.382 291.11 152.503 291.685 153.596C292.261 154.631 292.749 155.58 293.152 156.443C293.555 157.248 293.785 157.794 293.842 158.082C294.302 159.175 294.877 160.44 295.568 161.878C296.258 163.258 297.092 164.811 298.069 166.537C298.645 167.284 299.162 168.291 299.622 169.556C300.14 170.764 300.6 172 301.003 173.266C301.405 174.531 301.75 175.681 302.038 176.716C302.325 177.752 302.584 178.442 302.814 178.787C302.814 179.19 302.929 179.822 303.159 180.685C303.447 181.49 303.706 182.353 303.936 183.273C304.223 184.193 304.482 185.056 304.712 185.861C304.942 186.666 305.057 187.241 305.057 187.587C305.057 187.874 305 188.248 304.885 188.708ZM289.788 166.968C289.327 165.588 288.896 164.409 288.493 163.431C288.148 162.453 287.717 161.475 287.199 160.498C286.739 159.52 286.193 158.427 285.56 157.219C284.928 155.954 284.122 154.344 283.145 152.388C281.822 154.804 280.873 157.593 280.298 160.756C279.09 163.115 278.227 165.616 277.71 168.262C279.493 167.744 280.93 167.486 282.023 167.486C282.426 167.486 282.713 167.514 282.886 167.572C283.864 167.342 285.043 167.227 286.423 167.227C287.803 167.227 288.925 167.14 289.788 166.968ZM354.588 185.171C354.473 185.228 354.157 185.257 353.639 185.257C353.524 185.257 352.949 185.228 351.914 185.171C350.878 185.056 349.699 184.941 348.377 184.826C347.111 184.711 345.846 184.625 344.581 184.567C343.315 184.452 342.366 184.395 341.734 184.395H340.095C338.944 184.395 337.161 184.308 334.746 184.136C332.33 183.906 329.943 183.647 327.585 183.359C326.895 183.359 326.176 183.244 325.429 183.014C324.681 182.727 323.962 182.382 323.272 181.979C322.582 181.519 321.978 181.001 321.46 180.426C321 179.793 320.684 179.132 320.511 178.442C320.856 177.349 321.949 175.681 323.79 173.438L329.225 166.709C329.57 166.307 330.26 165.473 331.295 164.207C332.388 162.884 333.596 161.418 334.918 159.807C336.241 158.197 337.593 156.587 338.973 154.976C340.353 153.366 341.532 152.043 342.51 151.008H341.475C340.842 150.893 340.325 150.864 339.922 150.922C339.52 150.922 339.088 150.922 338.628 150.922C337.938 150.864 337.19 150.893 336.385 151.008C335.637 151.065 334.775 151.123 333.797 151.18L326.809 151.698C325.141 150.893 324.307 149.455 324.307 147.385C324.307 146.809 324.451 146.263 324.739 145.745C325.084 145.228 325.745 144.768 326.723 144.365C327.758 143.962 329.225 143.646 331.123 143.416C333.02 143.186 335.58 143.071 338.801 143.071C340.641 143.071 342.654 143.215 344.84 143.502C347.083 143.732 349.498 144.164 352.086 144.796C352.776 145.774 353.121 147.068 353.121 148.679C353.121 150.289 352.633 151.41 351.655 152.043C350.62 153.251 349.642 154.372 348.722 155.408C347.859 156.385 346.853 157.536 345.702 158.858C344.609 160.181 343.287 161.792 341.734 163.69C340.238 165.588 338.34 168.032 336.04 171.023C335.752 171.54 334.458 173.208 332.158 176.026C334.861 176.659 337.161 176.975 339.059 176.975C339.52 176.975 339.893 176.975 340.181 176.975C340.526 176.918 340.929 176.889 341.389 176.889C341.906 176.889 342.712 176.918 343.804 176.975C344.897 177.033 346.019 177.09 347.169 177.148C348.377 177.205 349.441 177.263 350.361 177.32C351.339 177.378 351.914 177.407 352.086 177.407C352.949 177.407 353.553 177.349 353.898 177.234C355.853 177.637 356.831 178.931 356.831 181.116C356.831 183.302 356.083 184.653 354.588 185.171ZM411.073 146.349C410.613 147.5 410.21 148.391 409.865 149.024C409.52 149.599 409.118 150.174 408.657 150.749C408.197 151.267 407.565 151.928 406.759 152.733C406.012 153.481 404.948 154.574 403.567 156.012C402.417 157.219 401.468 158.226 400.721 159.031C400.03 159.779 399.34 160.469 398.65 161.102C398.017 161.734 397.327 162.424 396.58 163.172C395.832 163.862 394.883 164.754 393.733 165.846C393.733 166.652 393.704 167.629 393.646 168.78C393.589 169.93 393.56 171.253 393.56 172.748C393.56 173.266 393.589 173.898 393.646 174.646C393.704 175.336 393.761 176.026 393.819 176.716C393.934 177.407 394.02 178.068 394.078 178.701C394.135 179.276 394.164 179.736 394.164 180.081V182.497C394.164 184.625 394.279 186.35 394.509 187.673C394.049 189.398 392.697 190.261 390.454 190.261C389.477 190.261 388.7 189.973 388.125 189.398C387.607 188.823 387.205 188.075 386.917 187.155C386.63 186.177 386.428 185.085 386.313 183.877C386.256 182.612 386.227 181.289 386.227 179.908C386.227 179.448 386.227 179.046 386.227 178.701C386.285 178.356 386.342 178.039 386.4 177.752C386.285 175.279 386.17 173.208 386.055 171.54C385.997 169.872 385.968 168.607 385.968 167.744V166.795C385.106 165.875 384.013 164.667 382.69 163.172C381.367 161.677 379.814 159.922 378.031 157.91C377.744 157.334 377.284 156.615 376.651 155.753C376.018 154.89 375.357 154.056 374.667 153.251C374.034 152.388 373.459 151.612 372.941 150.922C372.481 150.174 372.251 149.628 372.251 149.282C372.251 148.305 372.654 147.356 373.459 146.436C374.322 145.515 375.328 145.055 376.479 145.055C376.996 145.055 377.399 145.141 377.686 145.314C378.031 145.429 378.348 145.659 378.635 146.004C378.98 146.292 379.325 146.723 379.671 147.298C380.073 147.816 380.591 148.477 381.223 149.282C381.856 150.088 382.374 150.807 382.776 151.439C383.236 152.072 383.61 152.618 383.898 153.078C384.07 153.251 384.415 153.625 384.933 154.2C385.508 154.775 386.112 155.408 386.745 156.098C387.377 156.73 387.953 157.334 388.47 157.91C389.045 158.485 389.448 158.858 389.678 159.031C390.311 158.456 391.116 157.766 392.094 156.961C393.071 156.155 394.222 155.206 395.544 154.114C395.774 153.654 396.35 152.762 397.27 151.439C398.19 150.116 399.225 148.736 400.375 147.298C401.583 145.803 402.762 144.451 403.913 143.244C405.063 141.978 405.983 141.173 406.673 140.828C407.076 141.001 407.536 141.288 408.054 141.691C408.571 142.036 409.06 142.467 409.52 142.985C409.98 143.445 410.354 143.934 410.642 144.451C410.929 144.969 411.073 145.458 411.073 145.918V146.349ZM461.477 184.826C461.477 185.861 461.017 186.839 460.097 187.759C459.177 188.622 458.256 189.053 457.336 189.053C456.876 189.053 456.502 188.909 456.215 188.622C456.157 188.622 455.898 188.334 455.438 187.759C454.978 187.184 454.432 186.465 453.799 185.602C453.166 184.74 452.476 183.819 451.729 182.842C450.981 181.864 450.291 180.944 449.658 180.081C449.025 179.218 448.508 178.528 448.105 178.011C447.76 177.435 447.616 177.177 447.674 177.234C447.559 176.889 447.271 176.343 446.811 175.595C446.351 174.847 445.833 174.071 445.258 173.266C444.741 172.403 444.252 171.627 443.792 170.936C443.332 170.189 443.073 169.729 443.015 169.556C442.9 169.556 442.584 169.614 442.066 169.729C441.549 169.786 440.974 169.872 440.341 169.987C439.708 170.045 439.047 170.131 438.357 170.246C437.724 170.304 437.235 170.332 436.89 170.332H436.459C436.286 172.115 436.142 173.582 436.027 174.732C435.912 175.883 435.855 176.745 435.855 177.32V179.995C435.855 183.1 435.596 186.465 435.078 190.088C434.388 191.124 433.382 191.641 432.059 191.641C430.909 191.641 429.902 191.325 429.039 190.692C428.234 190.117 427.832 189.082 427.832 187.587C427.832 187.126 427.832 186.58 427.832 185.947C427.889 185.257 427.918 184.567 427.918 183.877C427.975 183.187 428.004 182.583 428.004 182.065C428.062 181.49 428.091 181.116 428.091 180.944V180.512L428.694 167.486C428.752 166.738 428.752 165.818 428.694 164.725C428.694 163.632 428.752 162.367 428.867 160.929L429.557 155.753C429.902 153.97 430.075 152.446 430.075 151.18C430.075 150.778 430.046 150.404 429.988 150.059C429.988 149.656 429.96 149.254 429.902 148.851C429.902 148.851 429.988 147.845 430.161 145.832C430.219 144.451 430.477 143.33 430.937 142.467C431.398 141.604 432.49 141.173 434.216 141.173C435.424 141.173 436.631 141.374 437.839 141.777C438.989 141.662 439.996 141.604 440.859 141.604C441.779 141.604 442.555 141.604 443.188 141.604C443.763 141.604 444.281 141.633 444.741 141.691C445.201 141.691 445.661 141.748 446.121 141.863C446.581 141.921 447.099 142.036 447.674 142.208C448.249 142.323 448.939 142.496 449.744 142.726L453.54 145.314C455.668 146.982 457.077 148.65 457.768 150.318C458.515 151.986 458.889 153.74 458.889 155.58C458.889 156.846 458.832 157.938 458.717 158.858C458.659 159.721 458.371 160.584 457.854 161.447C457.336 162.309 456.531 163.201 455.438 164.121C454.346 165.041 452.793 166.191 450.78 167.572C452.102 169.24 453.598 171.713 455.266 174.991C456.301 175.796 458.371 179.075 461.477 184.826ZM450.866 157.306C450.923 157.076 450.952 156.759 450.952 156.357C450.952 155.782 450.895 155.206 450.78 154.631C450.665 153.999 450.406 153.395 450.003 152.82C449.601 152.187 448.997 151.583 448.192 151.008C447.444 150.375 446.38 149.771 445 149.196C443.792 148.736 442.785 148.506 441.98 148.506C441.75 148.564 441.434 148.621 441.031 148.679C440.686 148.794 440.255 148.909 439.737 149.024C439.219 149.081 438.644 149.167 438.012 149.282C438.069 149.628 438.098 149.973 438.098 150.318C438.098 150.605 438.04 151.18 437.925 152.043C437.868 152.906 437.753 154.142 437.58 155.753C437.408 157.363 437.206 159.606 436.976 162.482C437.206 162.539 437.436 162.568 437.667 162.568C437.897 162.568 438.127 162.568 438.357 162.568C439.449 162.568 440.657 162.424 441.98 162.137C443.36 161.792 444.654 161.389 445.862 160.929C447.07 160.411 448.134 159.836 449.054 159.204C449.974 158.571 450.578 157.938 450.866 157.306ZM510.625 181.893C512.523 182.87 513.472 184.28 513.472 186.12C513.472 187.328 513.156 188.19 512.523 188.708C511.948 189.226 511.085 189.571 509.935 189.743C508.842 189.973 507.462 190.088 505.794 190.088C504.126 190.146 502.257 190.232 500.186 190.347C499.496 190.117 496.966 189.887 492.595 189.657C491.962 189.715 491.358 189.743 490.783 189.743C490.208 189.801 489.661 189.83 489.144 189.83C486.038 189.83 483.91 189.369 482.76 188.449C482.472 186.149 482.242 184.021 482.07 182.065C481.955 180.11 481.897 178.327 481.897 176.716C481.897 174.186 481.983 172 482.156 170.16C482.386 168.262 482.501 166.565 482.501 165.07C482.501 163.23 482.415 161.792 482.242 160.756L482.76 151.698C482.99 149.513 483.249 147.643 483.536 146.09C483.881 144.538 484.284 143.359 484.744 142.553C485.089 142.093 486.814 141.518 489.92 140.828L495.441 139.62C495.787 139.563 496.505 139.476 497.598 139.361C498.691 139.246 499.813 139.131 500.963 139.016C502.171 138.901 503.235 138.815 504.155 138.757C505.075 138.7 505.506 138.671 505.449 138.671H505.794C506.427 138.671 507.059 139.103 507.692 139.965C508.382 140.828 508.727 141.834 508.727 142.985C508.727 143.56 508.698 144.077 508.641 144.538C508.641 144.998 508.468 145.4 508.123 145.745C507.778 146.033 507.203 146.263 506.398 146.436C505.593 146.608 504.414 146.723 502.861 146.781C500.33 146.896 498.605 147.154 497.685 147.557H497.253C495.758 147.557 493.889 147.902 491.646 148.592C491.416 148.88 491.243 149.397 491.128 150.145C491.013 150.835 490.927 151.583 490.869 152.388C490.812 153.136 490.754 153.797 490.697 154.372C490.697 154.89 490.697 155.063 490.697 154.89C490.639 155.178 490.582 155.465 490.524 155.753C490.524 156.04 490.524 156.414 490.524 156.874C490.524 157.277 490.524 157.737 490.524 158.255C490.582 158.715 490.639 159.232 490.697 159.807C492.48 159.635 493.917 159.462 495.01 159.29C496.16 159.06 497.052 158.945 497.685 158.945C498.892 158.945 500.071 158.916 501.222 158.858C502.372 158.801 503.378 158.887 504.241 159.117C505.161 159.29 505.88 159.692 506.398 160.325C506.915 160.9 507.174 161.849 507.174 163.172C507.174 164.667 506.685 165.645 505.708 166.105C504.787 166.565 503.148 166.824 500.79 166.882C498.03 166.997 496.362 167.112 495.787 167.227C495.441 167.227 495.068 167.227 494.665 167.227C494.32 167.169 493.917 167.14 493.457 167.14C493.17 167.14 492.825 167.14 492.422 167.14C492.077 167.083 491.732 167.083 491.387 167.14C491.042 167.14 490.725 167.255 490.438 167.486C490.208 167.658 490.093 168.003 490.093 168.521C490.093 168.866 490.093 169.326 490.093 169.901C490.15 170.419 490.179 170.908 490.179 171.368C490.179 172.058 490.15 172.748 490.093 173.438C490.093 174.128 490.064 174.876 490.006 175.681C490.006 176.429 489.978 177.292 489.92 178.269C489.92 179.247 489.92 180.397 489.92 181.72C490.265 181.778 490.927 181.835 491.904 181.893C492.94 181.95 494.004 182.008 495.096 182.065C496.247 182.123 497.339 182.209 498.375 182.324C499.41 182.382 500.1 182.439 500.445 182.497C500.503 182.497 500.905 182.468 501.653 182.41C502.401 182.353 503.493 182.267 504.931 182.152C506.887 181.979 508.44 181.893 509.59 181.893H510.625ZM562.229 158.6C562.114 159.635 561.97 160.555 561.798 161.36C561.683 162.166 561.424 162.942 561.021 163.69C560.619 164.38 560.072 165.127 559.382 165.933C558.749 166.68 557.915 167.543 556.88 168.521C554.177 171.051 551.186 172.518 547.908 172.921C547.16 173.208 546.183 173.553 544.975 173.956C543.767 174.301 542.329 174.704 540.661 175.164L540.92 180.771C541.035 181.576 541.121 182.382 541.179 183.187C541.236 183.992 541.265 184.883 541.265 185.861C541.265 186.551 541.265 187.299 541.265 188.104C541.265 188.909 541.15 189.657 540.92 190.347C540.748 191.037 540.374 191.613 539.799 192.073C539.281 192.533 538.505 192.763 537.469 192.763C536.377 192.763 535.571 192.561 535.054 192.159C534.536 191.756 534.191 191.181 534.019 190.433C533.846 189.743 533.731 188.909 533.673 187.932C533.673 186.954 533.587 185.919 533.415 184.826V184.912C533.357 184.164 533.3 183.273 533.242 182.238C533.185 181.318 533.127 180.196 533.07 178.873C533.012 177.493 532.926 175.883 532.811 174.042V173.524C532.811 173.179 532.782 172.719 532.724 172.144C532.724 171.569 532.696 170.965 532.638 170.332C532.581 169.7 532.523 169.153 532.466 168.693C532.466 168.176 532.466 167.831 532.466 167.658C532.466 167.313 532.466 166.709 532.466 165.846C532.523 164.926 532.552 163.948 532.552 162.913C532.609 161.878 532.638 160.9 532.638 159.98C532.696 159.002 532.724 158.255 532.724 157.737C532.724 156.817 532.667 155.983 532.552 155.235C532.494 154.487 532.408 153.797 532.293 153.165C532.293 153.05 532.293 152.676 532.293 152.043C532.351 151.41 532.408 150.72 532.466 149.973C532.523 149.167 532.609 148.391 532.724 147.643C532.84 146.838 532.983 146.177 533.156 145.659C534.709 144.911 536.578 144.538 538.763 144.538H539.454C541.927 143.79 544.227 143.416 546.355 143.416C547.16 143.416 549.432 143.761 553.171 144.451L556.966 146.522C558.002 147.154 558.836 147.816 559.468 148.506C560.158 149.139 560.705 149.915 561.107 150.835C561.51 151.756 561.798 152.848 561.97 154.114C562.143 155.321 562.229 156.817 562.229 158.6ZM554.12 159.807C554.292 158.715 554.378 157.737 554.378 156.874C554.378 155.321 553.746 153.912 552.48 152.647C551.215 151.324 549.145 150.663 546.269 150.663C544.946 150.663 542.933 151.123 540.23 152.043C540.345 153.136 540.431 154.459 540.489 156.012C540.546 157.507 540.575 159.261 540.575 161.274C540.518 161.389 540.489 161.964 540.489 162.999C540.489 163.517 540.489 164.15 540.489 164.897C540.489 165.588 540.518 166.393 540.575 167.313C541.093 167.255 541.668 167.14 542.3 166.968C542.991 166.795 543.623 166.623 544.198 166.45C544.774 166.22 545.262 166.019 545.665 165.846C546.068 165.674 546.269 165.588 546.269 165.588C550.41 164.61 553.027 162.683 554.12 159.807ZM618.6 171.023C617.852 174.013 615.724 177.464 612.216 181.375C611.756 181.548 611.152 181.893 610.404 182.41C609.714 182.928 608.794 183.474 607.644 184.049C606.551 184.567 605.199 185.027 603.589 185.43C601.979 185.832 600.081 186.034 597.895 186.034C593.524 186.034 589.872 184.883 586.939 182.583C584.006 180.225 581.734 176.544 580.123 171.54C580.066 171.138 580.037 170.735 580.037 170.332C580.037 169.93 580.037 169.499 580.037 169.038C580.037 165.473 580.411 162.338 581.159 159.635C581.906 156.874 582.913 154.487 584.178 152.474C585.443 150.462 586.881 148.765 588.492 147.385C590.159 146.004 591.885 144.883 593.668 144.02C596.601 143.215 599.477 142.812 602.295 142.812C604.308 142.812 606.292 143.33 608.248 144.365C610.203 145.4 611.928 146.867 613.424 148.765C614.977 150.663 616.213 152.992 617.133 155.753C618.111 158.456 618.657 161.533 618.773 164.984L618.6 171.023ZM610.663 170.764C611.066 168.406 611.267 166.565 611.267 165.243C611.267 163.057 610.951 161.044 610.318 159.204C609.685 157.363 608.938 155.782 608.075 154.459C607.212 153.078 606.292 152.014 605.314 151.267C604.394 150.462 603.618 150.059 602.985 150.059C599.937 150.059 597.435 150.749 595.479 152.129C593.582 153.452 592.086 155.063 590.993 156.961C589.901 158.858 589.153 160.843 588.75 162.913C588.348 164.984 588.146 166.738 588.146 168.176C588.146 169.499 588.348 170.793 588.75 172.058C589.21 173.266 589.843 174.358 590.648 175.336C591.511 176.256 592.518 177.004 593.668 177.579C594.818 178.154 596.141 178.442 597.636 178.442C601.145 178.442 603.905 177.809 605.918 176.544C607.931 175.221 609.513 173.294 610.663 170.764Z"
    fill="white" />
</svg>